<svg role="img" xmlns="http://www.w3.org/2000/svg" viewBox="0 0 24 24"><title>Contentful icon</title>
<path fill-rule="evenodd" clip-rule="evenodd" d="M12 24C18.6274 24 24 18.6274 24 12C24 5.37258 18.6274 0 12 0C5.37258 0 0 5.37258 0 12C0 18.6274 5.37258 24 12 24ZM7.915 7.10305C7.9076 7.11011 7.90025 7.11726 7.89297 7.1245C6.64469 8.36267 5.86972 10.0778 5.86264 11.9749C5.85557 13.8722 6.61794 15.592 7.85691 16.8395C7.86417 16.8468 7.87148 16.854 7.87884 16.8612C9.11526 18.0969 10.8212 18.8633 12.7072 18.8702C14.6042 18.8773 16.3236 18.1149 17.5709 16.8756C18.1635 16.2874 18.167 15.3305 17.5789 14.738C16.9917 14.1454 16.035 14.1419 15.4425 14.7301L15.4406 14.729C14.741 15.4226 13.7778 15.8504 12.7185 15.8465C11.657 15.8425 10.6971 15.4075 10.0037 14.708C9.31032 14.0084 8.88201 13.0458 8.88598 11.9862C8.88986 10.9246 9.32478 9.9646 10.0244 9.27102C10.7238 8.57759 11.6866 8.14962 12.746 8.15359C13.8074 8.15747 14.7674 8.59246 15.4608 9.29213L15.4627 9.2902C16.0509 9.88278 17.0075 9.88636 17.5991 9.29814C18.1916 8.70993 18.1952 7.75301 17.607 7.16043C16.369 5.91198 14.6542 5.13689 12.7573 5.12982C10.8712 5.12279 9.16052 5.87649 7.915 7.10305Z"/>
</svg>
