          <svg
            xmlns="http://www.w3.org/2000/svg"
            preserveAspectRatio="none"
            viewBox="0 0 1920 167"
          >
            <path
              d="M1920 0.999069L1920 70.4991C1557.37 130.535 1227.2 126.035 929.5 56.999C565.833 -27.335 256 9.09293 -1.44493e-05 166.28L1 0.998901L1920 0.999069Z"
              fill="url(#paint0_linear)"
            />
            <path
              d="M1920 1.00008L1920 72.0001C1650.97 142.44 1316.47 138.44 916.5 60C427 -36 0 166.281 0 166.281L1.00001 0.99991L1920 1.00008Z"
              fill="#F0F4F8"
              fill-opacity="0.3"
            />
            <path
              d="M1920 0.250078L1920 72.0001C1547.89 166.784 1215.72 175.951 923.5 99.5C557.833 3.83297 250 26.0939 0 166.281L1.00001 0.24991L1920 0.250078Z"
              fill="#F0F4F8"
              fill-opacity="0.3"
            />
            <path
              d="M1920 1.00008L1920 68.0001C1520.67 172.333 1176.83 190 888.5 121C456 17.5 134.5 101.781 0 166.281L1.00001 0.24991L1920 1.00008Z"
              fill="#F0F4F8"
              fill-opacity="0.35"
            />
            <defs>
              <linearGradient
                id="paint0_linear"
                x1="945.658"
                y1="142.817"
                x2="945.658"
                y2="72.1921"
                gradientUnits="userSpaceOnUse"
              >
                <stop stop-color="#F0F4F8" />
                <stop offset="1" stop-color="#F0F4F8" />
              </linearGradient>
            </defs>
          </svg>