<svg width="1144" height="863" viewBox="0 0 1144 863" fill="none" xmlns="http://www.w3.org/2000/svg">
<g><path d="M684.74 232.87C684.74 232.87 670.67 227.16 625.93 247.69C581.19 268.22 575.57 265.6 564.01 262.46C552.45 259.32 546.01 258.58 533.55 241.46C533.55 241.46 524.79 193.98 516.32 186.62C507.85 179.26 471.82 190.81 471.82 190.81C471.82 190.81 428.63 200.72 420.4 143C420.4 143 426.24 99.49 418.29 86.14C418.29 86.14 434.29 93.07 460.83 81.89C487.37 70.71 508.52 93.89 508.52 93.89C508.52 93.89 515.2 111.19 514.52 121.5C513.84 131.81 518.05 135.68 530.69 130.7C530.69 130.7 536.89 121.87 528.1 107.28C519.31 92.69 513.04 81.81 515.5 70.48C517.96 59.15 525 43.48 547.66 35.58C570.32 27.68 601.1 26.2 615.88 20.05C630.66 13.9 634.23 9.90002 634.23 9.90002C634.23 9.90002 625.12 19.04 646.57 57.65C668.02 96.26 654.34 113.03 654.34 113.03C654.34 113.03 642.94 140.19 592.64 138.03C592.64 138.03 544.17 139.8 570.64 160.36C570.64 160.36 587.57 156.91 612.87 148.87C638.17 140.83 656.44 174.02 660.97 197.12C665.5 220.22 684.74 232.87 684.74 232.87Z" fill="#4098D7"/>
<path d="M619.57 39.21L619.84 39.14C621.78 46.51 600.11 76.14 581.6 99.67L581.38 99.5C607.51 66.29 621.08 44.88 619.57 39.21Z" fill="#444053"/>
<path d="M581.77 99.01L581.88 99.31C567.09 118.12 548.49 140.56 533.6 157.18C532.18 158.77 530.77 160.43 529.41 162.13L528.99 161.78C530.35 160.08 531.77 158.41 533.19 156.78C548.07 140.21 566.99 117.81 581.77 99.01Z" fill="#444053"/>
<path d="M529.35 161.34L529.64 161.84C502.54 195.67 500.75 248.2 500.64 248.66L494.92 242.06C495.04 241.6 502.06 195.4 529.35 161.34Z" fill="#444053"/>
<path d="M653.31 214.52C653.31 214.52 621.31 197.91 596.46 203.87C571.61 209.83 515.46 182.81 515.46 182.81C515.46 182.81 491.65 173.13 486.87 162.11C486.87 162.11 470.54 144.85 469.61 135.91C468.68 126.97 452.78 104.51 442.41 103.64" stroke="#444053" stroke-miterlimit="10"/>
<path d="M648.69 230.51C648.69 230.51 632.57 219.67 634.47 207.04" stroke="#444053" stroke-miterlimit="10"/>
<path d="M624 244.52C624 244.52 601 236.16 598.68 203.41" stroke="#444053" stroke-miterlimit="10"/>
<path d="M586.87 253C586.87 253 564.87 234.75 572.18 202.87" stroke="#444053" stroke-miterlimit="10"/>
<path d="M542.25 244.08C542.25 244.08 527.6 213.37 540.63 193.39" stroke="#444053" stroke-miterlimit="10"/>
<path d="M653.69 194.28C653.69 194.28 637.04 199.56 640.61 208.28" stroke="#444053" stroke-miterlimit="10"/>
<path d="M633.57 164.07C633.57 164.07 611.3 171.14 610.77 202.64" stroke="#444053" stroke-miterlimit="10"/>
<path d="M602.57 156.8C602.57 156.8 582.31 181.8 583.8 204.55" stroke="#444053" stroke-miterlimit="10"/>
<path d="M567.05 166.61C567.05 166.61 546.92 185.85 549.49 196.56" stroke="#444053" stroke-miterlimit="10"/>
<path d="M554.91 159.81C554.91 159.81 536.03 163.2 533.39 157" stroke="#444053" stroke-miterlimit="10"/>
<path d="M530.38 137.02C530.38 137.02 539.92 149.65 542.38 146.82" stroke="#444053" stroke-miterlimit="10"/>
<path d="M624.93 129.03C624.93 129.03 577.35 132.46 566.57 118.14" stroke="#444053" stroke-miterlimit="10"/>
<path d="M520.37 73.37C520.37 73.37 542.7 121.3 558.91 127.37" stroke="#444053" stroke-miterlimit="10"/>
<path d="M543.79 50.54C543.79 50.54 557.51 94.63 574.5 108.39" stroke="#444053" stroke-miterlimit="10"/>
<path d="M644.96 92.65C644.96 92.65 608.77 108.18 587.04 92.47" stroke="#444053" stroke-width="0.75" stroke-miterlimit="10"/>
<path d="M576.03 41.14C576.03 41.14 584.3 73.55 595.44 81.38" stroke="#444053" stroke-width="0.75" stroke-miterlimit="10"/>
<path d="M639.49 56.35C639.49 56.35 619.16 64.05 611.56 58.15" stroke="#444053" stroke-width="0.75" stroke-miterlimit="10"/>
<path d="M512.96 147.61C512.96 147.61 512.96 175.86 505.27 177.87" stroke="#444053" stroke-miterlimit="10"/>
<path d="M450.09 184.21C450.09 184.21 480.63 186.83 494.72 171.07" stroke="#444053" stroke-miterlimit="10"/>
<path d="M505.08 114.24C505.08 114.24 497.69 142.89 477.3 150.61" stroke="#444053" stroke-miterlimit="10"/>
<path d="M431.77 154.03C431.77 154.03 453.39 161.55 471.98 142.41" stroke="#444053" stroke-miterlimit="10"/>
<path d="M481.04 89.61C481.04 89.61 479.04 113.94 465.77 125.33" stroke="#444053" stroke-miterlimit="10"/>
<path d="M432.57 116.95C432.57 116.95 450.51 117.08 454.71 111.23" stroke="#444053" stroke-miterlimit="10"/>
<path opacity="0.1" d="M591.97 137.46C520.57 149.37 449.06 142.96 380.22 134.08C311.38 125.2 242.7 113.86 171.15 116.08C125.15 117.52 73.98 126.56 42.15 154.3C11.53 180.99 7.14998 217.48 7.43998 250.48C7.65998 275.3 9.98999 301.01 26.8 320.97C38.47 334.82 56.31 344.88 69.8 357.69C116.8 402.27 103.47 471.33 73.71 529.81C59.71 557.25 42.6 584.18 33.21 612.31C23.82 640.44 22.89 670.74 40.57 694.03C58.11 717.12 91.66 730.42 126.57 737.55C197.46 752.02 276.14 744.55 352.24 734.16C520.68 711.05 687.24 673.67 853.32 636.36C914.79 622.56 976.53 608.68 1035.67 588.36C1068.51 577.1 1101.92 562.93 1122.95 540.52C1149.64 512.07 1149.88 472.8 1123.51 448.98C1079.27 408.98 980.3 416.5 945.91 370.98C926.97 345.98 934.68 312.36 949.15 282.81C980.15 219.41 1040.9 157.16 1032.15 93.45C1026.15 49.69 983.77 13.05 927.47 2.92C868.47 -7.69 793.06 10.03 759.69 53.54C725.33 98.46 655.01 126.96 591.97 137.46Z" fill="#4098D7"/>
<path d="M1014.13 150.11H88.78C81.882 150.11 76.29 155.702 76.29 162.6V675.95C76.29 682.848 81.882 688.44 88.78 688.44H1014.13C1021.03 688.44 1026.62 682.848 1026.62 675.95V162.6C1026.62 155.702 1021.03 150.11 1014.13 150.11Z" fill="url(#paint0_linear)"/>
<path d="M1012.73 157.68H90.29C83.3919 157.68 77.8 163.272 77.8 170.17V674.16C77.8 681.058 83.3919 686.65 90.29 686.65H1012.73C1019.63 686.65 1025.22 681.058 1025.22 674.16V170.17C1025.22 163.272 1019.63 157.68 1012.73 157.68Z" fill="white"/>
<path d="M1012.73 157.68H90.29C83.3919 157.68 77.8 163.272 77.8 170.17V674.16C77.8 681.058 83.3919 686.65 90.29 686.65H1012.73C1019.63 686.65 1025.22 681.058 1025.22 674.16V170.17C1025.22 163.272 1019.63 157.68 1012.73 157.68Z" fill="white"/>
<path opacity="0.04" d="M1012.73 157.68H90.29C83.3919 157.68 77.8 163.272 77.8 170.17V674.16C77.8 681.058 83.3919 686.65 90.29 686.65H1012.73C1019.63 686.65 1025.22 681.058 1025.22 674.16V170.17C1025.22 163.272 1019.63 157.68 1012.73 157.68Z" fill="#5A5773"/>
<path d="M1020.41 151.61H82.57C81.2943 151.61 80.0709 152.117 79.1688 153.019C78.2668 153.921 77.76 155.144 77.76 156.42V176.76H1025.18V156.46C1025.19 155.828 1025.07 155.202 1024.83 154.616C1024.59 154.031 1024.24 153.497 1023.8 153.047C1023.36 152.597 1022.83 152.238 1022.25 151.991C1021.67 151.745 1021.04 151.615 1020.41 151.61Z" fill="#5A5773"/>
<path d="M96.72 170.68C100.31 170.68 103.22 167.77 103.22 164.18C103.22 160.59 100.31 157.68 96.72 157.68C93.1302 157.68 90.22 160.59 90.22 164.18C90.22 167.77 93.1302 170.68 96.72 170.68Z" fill="white"/>
<path d="M114.22 170.68C117.81 170.68 120.72 167.77 120.72 164.18C120.72 160.59 117.81 157.68 114.22 157.68C110.63 157.68 107.72 160.59 107.72 164.18C107.72 167.77 110.63 170.68 114.22 170.68Z" fill="white"/>
<path d="M131.72 170.68C135.31 170.68 138.22 167.77 138.22 164.18C138.22 160.59 135.31 157.68 131.72 157.68C128.13 157.68 125.22 160.59 125.22 164.18C125.22 167.77 128.13 170.68 131.72 170.68Z" fill="white"/>
<path d="M921.03 293.86H151.41C145.782 293.86 141.22 298.422 141.22 304.05V676.45C141.22 682.078 145.782 686.64 151.41 686.64H921.03C926.658 686.64 931.22 682.078 931.22 676.45V304.05C931.22 298.422 926.658 293.86 921.03 293.86Z" fill="white"/>
<path opacity="0.2" d="M331.1 203.45H111.58C109.448 203.45 107.72 205.178 107.72 207.31V223.44C107.72 225.572 109.448 227.3 111.58 227.3H331.1C333.232 227.3 334.96 225.572 334.96 223.44V207.31C334.96 205.178 333.232 203.45 331.1 203.45Z" fill="#5A5773"/>
<path opacity="0.2" d="M759.6 339.45H540.08C537.948 339.45 536.22 341.178 536.22 343.31V359.44C536.22 361.572 537.948 363.3 540.08 363.3H759.6C761.732 363.3 763.46 361.572 763.46 359.44V343.31C763.46 341.178 761.732 339.45 759.6 339.45Z" fill="#4098D7"/>
<path opacity="0.2" d="M887.19 406.23H540.08C537.948 406.23 536.22 407.958 536.22 410.09V426.22C536.22 428.352 537.948 430.08 540.08 430.08H887.19C889.322 430.08 891.05 428.352 891.05 426.22V410.09C891.05 407.958 889.322 406.23 887.19 406.23Z" fill="#4098D7"/>
<path opacity="0.2" d="M887.19 445.23H540.08C537.948 445.23 536.22 446.958 536.22 449.09V465.22C536.22 467.352 537.948 469.08 540.08 469.08H887.19C889.322 469.08 891.05 467.352 891.05 465.22V449.09C891.05 446.958 889.322 445.23 887.19 445.23Z" fill="#4098D7"/>
<path opacity="0.2" d="M887.19 484.23H540.08C537.948 484.23 536.22 485.958 536.22 488.09V504.22C536.22 506.352 537.948 508.08 540.08 508.08H887.19C889.322 508.08 891.05 506.352 891.05 504.22V488.09C891.05 485.958 889.322 484.23 887.19 484.23Z" fill="#4098D7"/>
<path opacity="0.2" d="M887.19 523.23H540.08C537.948 523.23 536.22 524.958 536.22 527.09V543.22C536.22 545.352 537.948 547.08 540.08 547.08H887.19C889.322 547.08 891.05 545.352 891.05 543.22V527.09C891.05 524.958 889.322 523.23 887.19 523.23Z" fill="#4098D7"/>
<path opacity="0.2" d="M887.19 566.23H187.91C185.778 566.23 184.05 567.958 184.05 570.09V586.22C184.05 588.352 185.778 590.08 187.91 590.08H887.19C889.322 590.08 891.05 588.352 891.05 586.22V570.09C891.05 567.958 889.322 566.23 887.19 566.23Z" fill="#4098D7"/>
<path opacity="0.2" d="M887.19 605.23H187.91C185.778 605.23 184.05 606.958 184.05 609.09V625.22C184.05 627.352 185.778 629.08 187.91 629.08H887.19C889.322 629.08 891.05 627.352 891.05 625.22V609.09C891.05 606.958 889.322 605.23 887.19 605.23Z" fill="#4098D7"/>
<path opacity="0.2" d="M887.19 644.23H187.91C185.778 644.23 184.05 645.958 184.05 648.09V664.22C184.05 666.352 185.778 668.08 187.91 668.08H887.19C889.322 668.08 891.05 666.352 891.05 664.22V648.09C891.05 645.958 889.322 644.23 887.19 644.23Z" fill="#4098D7"/>
<path opacity="0.2" d="M477.55 326.22H192.55C187.856 326.22 184.05 330.026 184.05 334.72V539.26C184.05 543.954 187.856 547.76 192.55 547.76H477.55C482.244 547.76 486.05 543.954 486.05 539.26V334.72C486.05 330.026 482.244 326.22 477.55 326.22Z" fill="#4098D7"/>
<path d="M657 700C825.447 700 962 563.447 962 395C962 226.553 825.447 90 657 90C488.553 90 352 226.553 352 395C352 563.447 488.553 700 657 700Z" fill="#663399"/>
<path d="M487.071 564.929C441.321 519.179 417.357 458.179 417.357 399.357L654.821 634.643C593.821 632.464 532.821 610.679 487.071 564.929ZM709.286 628.107L423.893 342.714C447.857 235.964 543.714 155.357 657 155.357C737.607 155.357 807.321 194.571 850.893 253.393L818.214 281.714C781.179 231.607 722.357 198.929 657 198.929C572.036 198.929 500.143 253.393 471.821 329.643L722.357 580.179C785.536 558.393 833.464 503.929 848.714 438.571H744.143V395H896.643C896.643 508.286 816.036 604.143 709.286 628.107Z" fill="white"/>
<path opacity="0.1" d="M1023.75 858.8C1079.04 858.8 1123.86 847.728 1123.86 834.07C1123.86 820.412 1079.04 809.34 1023.75 809.34C968.461 809.34 923.64 820.412 923.64 834.07C923.64 847.728 968.461 858.8 1023.75 858.8Z" fill="#4098D7"/>
<path opacity="0.1" d="M140.04 862.92C195.329 862.92 240.15 851.848 240.15 838.19C240.15 824.532 195.329 813.46 140.04 813.46C84.7508 813.46 39.93 824.532 39.93 838.19C39.93 851.848 84.7508 862.92 140.04 862.92Z" fill="#4098D7"/>
<path d="M729.3 660C729.3 660 735.23 667.75 726.56 679.46C717.89 691.17 710.75 701.05 713.64 708.35C713.64 708.35 726.71 686.61 737.36 686.35C748.01 686.09 741.01 673.07 729.3 660Z" fill="#4098D7"/>
<path opacity="0.1" d="M729.3 660C729.816 660.749 730.224 661.567 730.51 662.43C740.9 674.63 746.43 686.02 736.45 686.3C727.15 686.57 715.99 703.2 713.32 707.39C713.404 707.73 713.511 708.064 713.64 708.39C713.64 708.39 726.71 686.65 737.36 686.39C748.01 686.13 741.01 673.07 729.3 660Z" fill="black"/>
<path d="M740.32 669.88C740.32 672.61 740.02 674.82 739.64 674.82C739.26 674.82 738.96 672.61 738.96 669.88C738.96 667.15 739.34 668.44 739.72 668.44C740.1 668.44 740.32 667.15 740.32 669.88Z" fill="#FFD037"/>
<path d="M744.11 673.14C741.71 674.44 739.62 675.23 739.44 674.9C739.26 674.57 741.06 673.24 743.44 671.9C745.82 670.56 744.89 671.54 745.07 671.9C745.25 672.26 746.5 671.83 744.11 673.14Z" fill="#FFD037"/>
<path d="M697.98 660C697.98 660 692.05 667.75 700.71 679.46C709.37 691.17 716.53 701.05 713.64 708.35C713.64 708.35 700.56 686.61 689.92 686.35C679.28 686.09 686.27 673.07 697.98 660Z" fill="#4098D7"/>
<path opacity="0.1" d="M697.98 660C697.458 660.746 697.047 661.565 696.76 662.43C686.38 674.63 680.85 686.02 690.83 686.3C700.13 686.57 711.28 703.2 713.95 707.39C713.87 707.73 713.766 708.064 713.64 708.39C713.64 708.39 700.56 686.65 689.92 686.39C679.28 686.13 686.27 673.07 697.98 660Z" fill="black"/>
<path d="M686.95 669.88C686.95 672.61 687.26 674.82 687.64 674.82C688.02 674.82 688.32 672.61 688.32 669.88C688.32 667.15 687.94 668.46 687.57 668.46C687.2 668.46 686.95 667.15 686.95 669.88Z" fill="#FFD037"/>
<path d="M683.17 673.14C685.57 674.44 687.66 675.23 687.84 674.9C688.02 674.57 686.22 673.24 683.84 671.9C681.46 670.56 682.39 671.54 682.21 671.9C682.03 672.26 680.77 671.83 683.17 673.14Z" fill="#FFD037"/>
<path opacity="0.1" d="M713.64 767.66C747.882 767.66 775.64 763.402 775.64 758.15C775.64 752.898 747.882 748.64 713.64 748.64C679.398 748.64 651.64 752.898 651.64 758.15C651.64 763.402 679.398 767.66 713.64 767.66Z" fill="#4098D7"/>
<path d="M745.57 697.9L745.27 700.32L744.86 703.74L744.68 705.17L744.27 708.59L744.09 710.02L743.67 713.43L738.93 752.33C738.5 755.8 732.83 758.51 725.93 758.51H701.31C694.46 758.51 688.8 755.8 688.38 752.33L683.62 713.46L683.21 710.05L683.03 708.62L682.61 705.2L682.44 703.77L682.02 700.35L681.72 697.93C681.49 695.93 684.56 694.31 688.43 694.31H738.85C742.72 694.28 745.79 695.93 745.57 697.9Z" fill="#65617D"/>
<path d="M745.25 700.32L744.84 703.74H682.44L682.02 700.32H745.25Z" fill="#9D9CB5"/>
<path d="M744.66 705.16L744.25 708.58H683.03L682.61 705.16H744.66Z" fill="#9D9CB5"/>
<path d="M744.07 710.01L743.65 713.43H683.62L683.21 710.01H744.07Z" fill="#9D9CB5"/>
<path d="M1125.05 572.61C1125.43 571.61 1122.61 565.89 1122.61 565.61C1122.61 565.33 1119.7 562.16 1119.7 560.39C1119.7 558.62 1115.85 554.79 1115.85 554.79C1115.85 554.79 1110.68 552.65 1110.12 547.98C1109.56 543.31 1103.93 543.23 1103.92 543.23C1103.92 543.23 1103.92 542.81 1103.92 542.16C1104.03 540.316 1103.8 538.467 1103.23 536.71C1102.57 535.421 1101.42 534.447 1100.04 534C1100.04 534 1099.47 530.36 1098.35 529.24C1097.73 528.586 1097.28 527.784 1097.05 526.91C1096.81 526.036 1096.81 525.117 1097.03 524.24C1097.6 522.48 1096.28 518 1093.56 517.34C1090.84 516.68 1087.73 515.66 1087.73 515.66L1086.98 515.79L1086.61 515.66C1085.95 515.786 1085.28 515.87 1084.61 515.91C1084.04 515.927 1083.47 515.743 1083.02 515.39C1082.08 514.39 1074.47 512.39 1073.02 512.39C1071.57 512.39 1067.57 510.52 1067.57 510.52C1067.57 510.52 1064.75 508.38 1063.57 507.44C1062.39 506.5 1060.34 503.09 1060.03 502.57V502.5C1059.69 501.706 1059.4 500.887 1059.18 500.05C1060.55 498.611 1061.73 496.993 1062.67 495.24C1062.77 495.06 1062.86 494.88 1062.95 494.69C1063.16 494.69 1063.36 494.66 1063.56 494.6L1063.81 494.5C1064.28 494.254 1064.7 493.917 1065.05 493.509C1065.39 493.101 1065.65 492.629 1065.81 492.12V492.12C1065.88 491.916 1065.94 491.71 1065.99 491.5C1065.99 491.43 1065.99 491.36 1065.99 491.29L1066.08 490.87C1066.08 490.79 1066.08 490.71 1066.08 490.63L1066.14 490.21V489.97C1066.14 489.79 1066.14 489.62 1066.21 489.44C1066.27 488.769 1066.37 488.101 1066.5 487.44V487.44C1067.06 484.91 1068.59 482.77 1069.66 480.44C1069.81 480.11 1069.96 479.77 1070.09 479.44C1070.22 479.11 1070.35 478.69 1070.46 478.31L1070.55 477.96C1070.62 477.68 1070.68 477.4 1070.74 477.12C1070.8 476.84 1070.74 476.87 1070.81 476.74C1070.87 476.36 1070.92 475.97 1070.96 475.57C1071.14 473.339 1070.8 471.096 1069.96 469.02C1069.26 467.27 1068.21 465.69 1067.5 463.94C1066.42 461.29 1066.13 458.28 1064.82 455.75C1063.75 453.697 1061.99 452.091 1059.85 451.219C1057.7 450.347 1055.32 450.266 1053.12 450.99C1051.12 451.75 1049.3 453.22 1047.23 453.88C1044.45 454.77 1041.49 454.1 1038.61 453.71C1035.73 453.32 1032.61 453.27 1030.25 455.15C1027.59 457.31 1026.87 461.37 1024.37 463.74C1023.37 464.74 1022.02 465.37 1020.91 466.29C1020.13 466.915 1019.53 467.737 1019.17 468.67L1019.11 468.86C1019.08 468.942 1019.06 469.025 1019.05 469.11C1019.03 469.202 1019.01 469.296 1019 469.39C1018.99 469.453 1018.99 469.517 1019 469.58C1018.98 469.746 1018.98 469.914 1019 470.08V470.08C1019.01 470.238 1019.04 470.395 1019.07 470.55V470.68C1019.07 470.81 1019.14 470.94 1019.19 471.07C1019.24 471.2 1019.19 471.12 1019.19 471.14C1019.19 471.16 1019.3 471.43 1019.36 471.57L1019.45 471.78C1019.45 471.84 1019.45 471.9 1019.53 471.95C1019.89 472.644 1020.18 473.371 1020.4 474.12C1020.52 474.595 1020.48 475.093 1020.31 475.55C1020.07 476.07 1019.73 476.536 1019.31 476.92C1017.44 478.863 1015.99 481.176 1015.07 483.71C1014.96 484.003 1014.86 484.293 1014.77 484.58H1014.9C1015.17 484.657 1015.44 484.714 1015.72 484.75C1015.88 484.759 1016.03 484.759 1016.19 484.75C1016.83 484.788 1017.48 484.741 1018.11 484.61L1018.59 484.49C1019.24 484.319 1019.88 484.088 1020.49 483.8C1020.49 483.99 1020.49 484.18 1020.49 484.37C1020.49 484.56 1020.49 484.58 1020.49 484.69C1020.5 488.817 1021.65 492.86 1023.83 496.365C1026.01 499.87 1029.12 502.697 1032.82 504.53C1032.82 504.73 1032.87 504.93 1032.9 505.13L1032.96 505.64L1032.71 505.4C1032.71 505.4 1031.02 504.56 1029.42 506.98C1028.25 508.568 1026.65 509.797 1024.82 510.53C1024.82 510.53 1007.72 513.23 1007.06 515.47L999.06 515.94C999.06 515.94 996.24 516.31 995.96 522.19C995.68 528.07 994.18 528.62 994.18 528.62C994.18 528.62 990.89 534.41 991.18 537.39C991.215 538.299 990.996 539.2 990.548 539.991C990.099 540.783 989.438 541.433 988.64 541.87L988.27 547.19C988.27 547.19 985.17 546.72 984.27 550.36C983.912 552.287 983.111 554.105 981.93 555.67C981.93 555.67 976.76 559.97 976.48 563.6L973.28 565.6C973.28 565.6 965.86 563.92 964.17 560.94C964.17 560.94 963.97 560.74 963.65 560.45V560.38C962.54 559.38 960.19 557.14 960.55 557.65C960.771 558.118 960.824 558.648 960.7 559.15L960.15 558.54L958.67 556.9C958.67 556.9 946.67 545.66 939.67 544.77C939.58 544.59 939.12 542.77 937.92 543.92C936.927 544.833 936.132 545.94 935.587 547.174C935.041 548.408 934.756 549.741 934.749 551.09C934.743 552.439 935.015 553.774 935.548 555.013C936.082 556.252 936.865 557.368 937.85 558.29L949.09 568.78L949.38 568.99L951.79 572.09C951.38 573.09 951.04 574.01 950.79 574.87V574.96L950.61 575.5C950.589 575.559 950.572 575.619 950.56 575.68C950.5 575.86 950.45 576.03 950.4 576.2L950.31 576.5C950.31 576.56 950.31 576.62 950.31 576.68C950.04 577.62 949.87 578.34 949.79 578.74L949.16 578.54L949.77 578.81V578.9C949.77 579.03 949.77 579.1 949.77 579.1L950.35 579.35C953.64 580.78 970.06 587.99 970.9 589.08C971.74 590.17 978.04 593.84 983.68 590.85C989.32 587.86 990.53 583.3 990.53 583.3C990.53 583.3 995.98 575.74 996.17 574.62C996.36 573.5 1000.58 572.2 1000.58 572.2C1000.58 572.2 1000.96 584.69 998.8 589.27C996.64 593.85 992.6 614.08 992.6 614.08C992.865 614.042 993.135 614.042 993.4 614.08L993.16 615.25C993.49 615.188 993.83 615.188 994.16 615.25C993.86 617.55 992.16 628.25 992.16 628.25C992.16 628.25 991.6 633.1 990.66 634.78C989.72 636.46 989.66 645.23 989.66 645.23L988.15 651.57C988.15 651.57 988.35 652.01 988.72 652.66C989.732 654.818 991.207 656.726 993.04 658.25C992.919 659.247 992.664 660.222 992.28 661.15C991.696 662.568 991.44 664.099 991.53 665.63C991.53 665.63 989.94 672.81 990.12 674.86C990.3 676.91 989.12 681.95 989.12 681.95L987.43 698.18C987.43 698.18 986.31 712.26 986.87 716.09C987.139 719.094 987.011 722.12 986.49 725.09C986.49 725.09 987.62 736.19 987.34 737.4C987.06 738.61 985.65 743.84 986.49 746.73C987.33 749.62 986.87 757.55 986.87 757.55C986.87 757.55 987.43 768 988.09 771.36C988.443 773.903 988.378 776.487 987.9 779.01C987.9 779.01 987.24 786.19 986.96 786.19C986.68 786.19 984.24 791.13 989.21 795.98C994.18 800.83 991.1 800.08 991.1 800.08C991.1 800.08 987.1 798.08 987.62 802.14C988.06 805.95 988.68 804.96 988.74 804.85L987.8 807.92L988.46 808.01L987.92 808.66C987.354 809.387 986.717 810.057 986.02 810.66C985.289 811.375 984.853 812.339 984.8 813.36C984.8 813.36 977.85 820.92 971.37 824.74C967.96 826.74 965.02 828.45 963.74 829.87C962.58 831.13 962.74 832.15 965.17 832.95C970.24 834.63 979.17 835.47 985.55 833.32C989.373 832.055 992.813 829.843 995.55 826.89C995.55 826.89 999.55 824.83 1003.55 825.58C1007.55 826.33 1015.39 821.2 1015.39 821.2L1015.24 819.88L1014.83 816.06C1014.57 815.74 1014.37 815.369 1014.26 814.969C1014.14 814.57 1014.11 814.151 1014.17 813.74C1014.22 812.61 1014.11 811.479 1013.84 810.38C1013.77 810.01 1013.7 809.64 1013.63 809.3L1014.35 809.16C1014.35 809.16 1013.42 804.41 1015.11 803.47C1016.8 802.53 1016.32 790.32 1016.32 790.32C1016.32 790.32 1014.17 787.52 1013.04 787.06C1011.91 786.6 1012.94 780.8 1013.14 780.06C1013.34 779.32 1014.83 764.85 1014.83 764.85C1014.83 764.85 1014.26 760.29 1015.01 758.33C1015.76 756.37 1014.07 748.81 1014.07 748.81C1013.91 748.464 1013.88 748.076 1013.96 747.706C1014.05 747.336 1014.25 747.004 1014.54 746.76C1015.54 745.64 1015.2 735.66 1015.2 735.66C1015.2 735.66 1015.11 730.66 1015.11 729.31C1015.11 727.96 1016.23 723.25 1017.27 721.67C1018.31 720.09 1017.64 715.14 1017.64 715.14L1017.7 714.77C1017.7 714.63 1017.7 714.45 1017.78 714.24L1017.86 713.74C1018.32 711.007 1018.93 708.303 1019.7 705.64C1020.92 701.73 1022.33 694.83 1022.33 694.83L1031.06 672.05L1031.16 671.78C1031.16 671.78 1035.16 679.24 1035.16 686.15C1035.16 686.15 1036.16 694.45 1035.92 696.69C1035.68 698.93 1036.57 709.46 1036.57 709.46C1036.57 709.46 1037.79 724.57 1037.79 725.22C1037.79 725.87 1039.3 737.53 1040.24 739.31C1041.18 741.09 1039.3 746.49 1038.73 747.05C1038.16 747.61 1038.92 761.32 1038.92 761.32C1038.92 761.32 1037.51 772.14 1037.23 774.38C1036.95 776.62 1035.82 785.2 1036.76 788.56C1037.7 791.92 1037.32 792.38 1037.32 792.38C1037.32 792.38 1040.71 795.84 1038.73 796.12C1038.01 796.277 1037.33 796.586 1036.75 797.025C1036.16 797.465 1035.67 798.025 1035.31 798.669C1034.95 799.312 1034.74 800.025 1034.68 800.758C1034.62 801.491 1034.72 802.228 1034.97 802.92C1036.15 806.334 1037.53 809.673 1039.11 812.92L1040.67 812.59V813.7L1040.78 819.26C1040.78 819.26 1041.44 824.57 1041.06 825.79C1040.79 826.67 1040.41 830.85 1040.23 833.04C1040.16 833.84 1040.12 834.37 1040.12 834.37C1040.12 834.37 1040.12 839.31 1050.55 837.82C1060.98 836.33 1062.85 832.22 1062.85 832.22L1062.93 831.71C1063.08 830.77 1063.42 828.77 1063.7 827.65C1064.07 826.16 1060.7 819.44 1060.7 819.44C1060.7 819.44 1060.14 814.87 1059.2 813.85C1058.81 813.246 1058.55 812.564 1058.44 811.85C1058.36 811.47 1058.28 811.08 1058.22 810.7C1058.46 810.728 1058.69 810.768 1058.92 810.82C1058.92 810.82 1058.35 807.56 1060.52 806.53C1062.69 805.5 1062.11 803.36 1061.83 802.43C1061.55 801.5 1062.67 796.27 1062.67 796.27C1062.51 795.749 1062.5 795.194 1062.63 794.666C1062.76 794.137 1063.03 793.655 1063.42 793.27C1064.74 791.96 1065.77 782.82 1065.77 782.82L1065.96 747.56C1065.96 747.56 1066.62 741.31 1065.87 738.79C1065.12 736.27 1064.37 731.42 1065.4 730.11C1066.43 728.8 1065.49 722.75 1065.49 722.75C1065.49 722.75 1065.49 709.97 1066.9 706.75C1068.31 703.53 1067.84 683.52 1067.84 683.52L1068.21 670.37C1068.21 670.37 1071.28 667.47 1070.56 652.37C1073.83 652.16 1077.56 652.04 1078.08 652.5C1079.08 653.34 1085.78 657.63 1089.73 654.92C1091.36 653.8 1092.93 652.588 1094.42 651.29L1092.76 623.29C1093.76 624.85 1094.42 625.88 1094.42 625.88C1094.42 621.97 1105.51 609.28 1105.51 609.28C1105.51 609.28 1115.84 595.94 1118.09 594.36C1120.34 592.78 1124.76 584.36 1124.76 584.36C1125.41 582.76 1126.17 581.204 1127.02 579.7C1128.06 578.11 1124.68 573.63 1125.05 572.61ZM1100.82 582.4C1098 582.68 1092.08 589.12 1091.99 590.52C1091.78 591.443 1091.36 592.302 1090.74 593.02C1090.74 592.46 1090.65 591.89 1090.6 591.31C1089.94 583.06 1089.22 573.02 1089.6 572.05C1090.16 570.37 1089.97 562.81 1089.97 562.81L1090.08 562.66C1091.97 568.52 1097.85 575.42 1097.85 575.42C1097.85 575.42 1098.85 578.42 1100.11 578.49C1101.37 578.56 1100.82 582.4 1100.82 582.4V582.4Z" fill="url(#paint1_linear)"/>
<path d="M950.22 580.27C950.22 580.27 953.65 562.27 964.66 562.27L972.72 578.84L967.35 582.54C967.35 582.54 955.68 582.86 950.22 580.27Z" fill="#65617D"/>
<path opacity="0.1" d="M972.72 578.79L967.35 582.49C967.35 582.49 959.14 582.75 953.27 581.31C952.223 581.078 951.201 580.743 950.22 580.31L950.28 580.02V579.96C950.781 577.704 951.477 575.496 952.36 573.36C952.7 572.55 953.08 571.72 953.5 570.89C955.11 567.79 957.38 564.74 960.5 563.24C961.643 562.662 962.892 562.322 964.17 562.24H964.66L964.84 562.61L967.56 568.21L972.72 578.79Z" fill="black"/>
<path d="M1064.18 653.4C1064.18 653.4 1075.75 652.29 1076.77 653.13C1077.79 653.97 1084.36 658.22 1088.24 655.53C1092.12 652.84 1089.54 643.53 1089.54 643.13C1089.54 642.73 1089.17 629.52 1089.17 629.52L1082.23 620.17L1073.53 603.79L1055.75 602.03L1056.21 628.03L1056.12 641.36L1064.18 653.4Z" fill="#65617D"/>
<path opacity="0.1" d="M1064.18 653.4C1064.18 653.4 1075.75 652.29 1076.77 653.13C1077.79 653.97 1084.36 658.22 1088.24 655.53C1092.12 652.84 1089.54 643.53 1089.54 643.13C1089.54 642.73 1089.17 629.52 1089.17 629.52L1082.23 620.17L1073.53 603.79L1055.75 602.03L1056.21 628.03L1056.12 641.36L1064.18 653.4Z" fill="black"/>
<path d="M962.35 561.76C962.35 561.76 961.42 573.05 954.35 573.24C954.35 573.24 952.35 572.04 949.67 570.03C943.49 565.4 933.67 556.51 936.39 548.24C940.28 536.39 959.16 558.24 959.16 558.24L960.62 559.87L962.35 561.76Z" fill="#FBBEBE"/>
<path opacity="0.1" d="M962.35 561.76C962.35 561.76 961.42 573.05 954.35 573.24C954.35 573.24 952.35 572.04 949.67 570.03L949.07 569.26C950.268 569.871 951.586 570.213 952.93 570.26C953.987 570.301 955.031 570.02 955.924 569.454C956.817 568.888 957.517 568.063 957.93 567.09C958.688 565.636 959.356 564.136 959.93 562.6C960.261 561.703 960.499 560.775 960.64 559.83L962.35 561.76Z" fill="black"/>
<path d="M959.29 582.22L957.71 580.22L952.38 573.36L949.67 569.85C950.864 570.462 952.179 570.804 953.52 570.85C954.577 570.896 955.624 570.616 956.518 570.05C957.411 569.483 958.11 568.656 958.52 567.68C959.263 566.229 959.914 564.732 960.47 563.2C961.35 560.7 961.33 559.42 961.02 558.98C960.71 558.54 963.02 560.66 964.08 561.7L964.59 562.18L964.78 562.56L967.57 567.96C967.576 568.037 967.576 568.113 967.57 568.19C967.77 569.89 968.67 580.68 959.29 582.22Z" fill="#E7EFFD"/>
<path d="M1014.75 820.46C1014.75 820.46 1006.97 825.56 1003.08 824.81C1000.39 824.471 997.652 824.923 995.21 826.11C992.535 829.038 989.159 831.237 985.4 832.5C979.1 834.63 970.31 833.79 965.31 832.13C962.95 831.34 962.76 830.32 963.9 829.07C965.04 827.82 968.06 825.98 971.42 823.98C977.81 820.18 984.66 812.69 984.66 812.69C984.703 811.673 985.132 810.711 985.86 810C986.548 809.397 987.175 808.727 987.73 808C988.73 806.83 989.66 805.6 989.66 805.6L1012.57 806.46C1012.57 806.46 1012.96 808.11 1013.27 809.8C1013.53 810.89 1013.64 812.011 1013.59 813.13C1013.53 813.539 1013.56 813.955 1013.67 814.353C1013.79 814.75 1013.98 815.12 1014.24 815.44L1014.65 819.22L1014.75 820.46Z" fill="#65617D"/>
<path d="M1062.57 826.88C1062.3 827.99 1061.96 829.97 1061.81 830.88C1061.81 831.19 1061.74 831.39 1061.74 831.39C1061.74 831.39 1059.89 835.46 1049.61 836.94C1039.33 838.42 1039.34 833.52 1039.34 833.52L1039.44 832.19C1039.62 830.03 1039.99 825.88 1040.26 825C1040.63 823.8 1039.99 818.52 1039.99 818.52L1039.88 813L1039.8 809.17L1056.8 807.41C1056.91 808.683 1057.09 809.948 1057.35 811.2C1057.45 811.914 1057.71 812.597 1058.1 813.2C1059.02 814.2 1059.58 818.75 1059.58 818.75C1059.58 818.75 1062.97 825.4 1062.57 826.88Z" fill="#65617D"/>
<path opacity="0.1" d="M1012.57 806.46C1012.57 806.46 1012.96 808.11 1013.27 809.8C1010.8 810.25 1000 812.12 997.27 810.8C994.21 809.32 987.64 808.49 987.64 808.49L987.75 808.11C988.75 806.94 989.68 805.71 989.68 805.71L1012.57 806.46Z" fill="black"/>
<path opacity="0.1" d="M1057.41 811.23C1053.1 810.5 1043.63 812.23 1039.91 813.03L1039.83 809.2L1056.83 807.44C1056.95 808.714 1057.14 809.979 1057.41 811.23V811.23Z" fill="black"/>
<path d="M1067.04 670.9L1066.68 683.9C1066.68 683.9 1067.14 703.8 1065.75 706.9C1064.36 710 1064.36 722.73 1064.36 722.73C1064.36 722.73 1065.29 728.73 1064.27 730.04C1063.25 731.35 1063.99 736.15 1064.73 738.65C1065.47 741.15 1064.82 747.35 1064.82 747.35L1064.64 782.35C1064.64 782.35 1063.64 791.42 1062.32 792.72C1061.94 793.109 1061.67 793.592 1061.54 794.119C1061.41 794.647 1061.43 795.199 1061.58 795.72C1061.58 795.72 1060.47 800.9 1060.75 801.83C1061.03 802.76 1061.58 804.88 1059.46 805.9C1057.34 806.92 1057.88 810.16 1057.88 810.16C1052.79 808.95 1038.35 812.16 1038.35 812.16C1036.79 808.942 1035.43 805.633 1034.27 802.25C1034.02 801.564 1033.92 800.833 1033.98 800.105C1034.03 799.377 1034.24 798.67 1034.59 798.03C1034.95 797.39 1035.43 796.833 1036.01 796.395C1036.6 795.957 1037.27 795.648 1037.98 795.49C1039.92 795.22 1036.59 791.79 1036.59 791.79C1036.59 791.79 1036.96 791.33 1036.03 787.99C1035.1 784.65 1036.22 776.14 1036.5 773.92C1036.78 771.7 1038.16 760.92 1038.16 760.92C1038.16 760.92 1037.42 747.31 1037.98 746.76C1038.54 746.21 1040.38 740.83 1039.46 739.08C1038.54 737.33 1037.05 725.75 1037.05 725.08C1037.05 724.41 1035.85 709.43 1035.85 709.43C1035.85 709.43 1034.74 698.97 1035.02 696.75C1035.3 694.53 1034.27 686.29 1034.27 686.29C1034.27 679.44 1030.27 672.03 1030.27 672.03L1030.17 672.3L1021.57 695.06C1021.57 695.06 1020.18 701.91 1018.98 705.8C1018.22 708.429 1017.62 711.101 1017.17 713.8L1017.09 714.3L1017.01 714.82L1016.95 715.19C1016.95 715.19 1017.59 720.09 1016.57 721.67C1015.43 724.06 1014.72 726.627 1014.45 729.26C1014.45 730.56 1014.54 735.56 1014.54 735.56C1014.54 735.56 1014.91 745.46 1013.89 746.56C1013.61 746.801 1013.41 747.125 1013.33 747.484C1013.25 747.844 1013.28 748.221 1013.43 748.56C1013.43 748.56 1015.09 756.06 1014.35 758C1013.61 759.94 1014.17 764.48 1014.17 764.48C1014.17 764.48 1012.69 778.83 1012.5 779.57C1012.31 780.31 1011.3 786.05 1012.41 786.51C1013.52 786.97 1015.65 789.75 1015.65 789.75C1015.65 789.75 1016.11 801.88 1014.45 802.8C1012.79 803.72 1013.7 808.45 1013.7 808.45C1013.7 808.45 1000.28 811.04 997.23 809.56C994.18 808.08 987.6 807.25 987.6 807.25L988.52 804.25C988.46 804.36 987.85 805.35 987.42 801.56C986.95 797.56 990.84 799.56 990.84 799.56C990.84 799.56 993.9 800.3 988.99 795.49C984.08 790.68 986.49 785.77 986.77 785.77C987.05 785.77 987.69 778.64 987.69 778.64C988.163 776.137 988.227 773.574 987.88 771.05C987.23 767.72 986.68 757.35 986.68 757.35C986.68 757.35 987.14 749.48 986.3 746.61C985.46 743.74 986.86 738.61 987.14 737.35C987.42 736.09 986.3 725.13 986.3 725.13C986.822 722.16 986.95 719.134 986.68 716.13C986.12 712.33 987.23 698.35 987.23 698.35L988.9 682.25C988.9 682.25 990.1 677.25 989.9 675.25C989.7 673.25 991.29 666.09 991.29 666.09C991.2 664.57 991.453 663.049 992.03 661.64C992.96 659.79 993.33 653.64 993.33 653.64L1002.22 633.28L1006.57 615.28L1065.35 614.72C1065.35 614.72 1065.56 616.28 1065.92 619.11C1066.28 621.94 1066.78 626.11 1067.34 631.3C1067.85 636 1068.41 641.53 1068.96 647.68C1070.75 667.38 1067.04 670.9 1067.04 670.9Z" fill="#3F3D56"/>
<path d="M1061.57 508.81L1047.88 523.46C1047.88 523.46 1030.3 516.46 1032.15 514.01C1032.86 513.08 1032.75 510.14 1032.34 506.9C1031.69 501.77 1030.34 495.9 1030.34 495.9C1030.34 495.9 1061.07 490.9 1058.47 496.08C1057.64 498.035 1057.57 500.228 1058.28 502.23C1059.02 504.584 1060.13 506.805 1061.57 508.81V508.81Z" fill="#FBBEBE"/>
<path opacity="0.1" d="M1058.43 496.03C1057.49 497.93 1057.04 498.11 1057.63 500.15C1053.63 504.46 1048.5 509.15 1042.14 509.15C1038.74 509.154 1035.38 508.366 1032.34 506.85C1031.69 501.72 1030.34 495.85 1030.34 495.85C1030.34 495.85 1061.03 490.85 1058.43 496.03Z" fill="black"/>
<path d="M1064.18 486.59C1064.18 492.434 1061.86 498.039 1057.73 502.171C1053.59 506.303 1047.99 508.625 1042.14 508.625C1036.3 508.625 1030.7 506.303 1026.56 502.171C1022.43 498.039 1020.11 492.434 1020.11 486.59C1020.11 486.48 1020.11 486.38 1020.11 486.27C1020.13 483.377 1020.72 480.516 1021.85 477.852C1022.97 475.187 1024.62 472.77 1026.68 470.739C1028.74 468.708 1031.18 467.103 1033.86 466.016C1036.54 464.928 1039.41 464.379 1042.3 464.4C1045.19 464.421 1048.05 465.012 1050.72 466.138C1053.38 467.265 1055.8 468.905 1057.83 470.966C1059.86 473.026 1061.47 475.466 1062.55 478.147C1063.64 480.828 1064.19 483.697 1064.17 486.59H1064.18Z" fill="#FBBEBE"/>
<path opacity="0.1" d="M1067.37 631.94C1064.45 631.94 1054.73 632.04 1043.87 632.22H1043.74L1040.15 632.28H1040.04C1027.16 632.48 1014.47 629.97 1009.37 630.44C998.54 631.44 1013.26 620.44 1013.26 620.44C1021.33 622.394 1029.63 623.232 1037.93 622.93L1041.05 622.77C1050.89 622.21 1060.78 621.29 1065.95 619.77C1066.31 622.61 1066.81 626.77 1067.37 631.94Z" fill="black"/>
<path d="M1067.37 631.38C1064.45 631.38 1054.73 631.49 1043.87 631.66H1043.74L1040.15 631.72H1040.04C1027.16 631.93 1014.47 629.41 1009.37 629.89C998.54 630.89 1013.26 619.89 1013.26 619.89C1021.33 621.85 1029.63 622.687 1037.93 622.38L1041.05 622.22C1050.89 621.67 1060.78 620.74 1065.95 619.22C1066.31 622.05 1066.81 626.21 1067.37 631.38Z" fill="#5F5D7E"/>
<path opacity="0.1" d="M1036.22 514.92L1019.22 522.92L1006.07 624.56C1006.07 624.56 1013.85 621.04 1018.29 623.26C1022.73 625.48 1036.43 623.45 1036.43 623.45C1036.43 623.45 1046.43 622.89 1047.91 624.01C1049.39 625.13 1066.8 619.38 1066.8 619.38C1066.8 619.38 1069.95 612.38 1067.54 611.23C1065.13 610.08 1068.28 599.23 1068.28 599.23L1066.8 525.91L1063.8 516.47L1055.8 511.65L1047.66 518.13L1043.77 518.69L1036.22 514.92Z" fill="black"/>
<path d="M1036.22 513.81L1019.22 521.81L1006.04 623.46C1006.04 623.46 1013.82 619.94 1018.26 622.16C1022.7 624.38 1036.4 622.35 1036.4 622.35C1036.4 622.35 1046.4 621.79 1047.88 622.9C1049.36 624.01 1066.77 618.28 1066.77 618.28C1066.77 618.28 1069.92 611.28 1067.51 610.13C1065.1 608.98 1068.25 598.13 1068.25 598.13L1066.77 524.81L1063.77 515.37L1055.77 510.55L1047.63 517.03L1043.74 517.59L1036.22 513.81Z" fill="#E7EFFD"/>
<path opacity="0.1" d="M1035.94 518.53C1035.94 518.53 1040.85 524.36 1040.76 525.53C1040.67 526.7 1040.48 529.61 1040.48 529.61L1036.78 537.1C1036.78 537.1 1034.78 546.45 1034.78 548.4C1034.78 550.35 1031.54 567.19 1031.54 567.19L1027.57 593.14L1022.66 627.14L1027.66 635.75L1033.59 630.75L1041.46 570.21L1043.12 558.27C1043.12 558.27 1044.88 536.79 1044.88 534.57C1044.69 531.871 1044.36 529.183 1043.88 526.52C1043.88 526.52 1045.09 520.96 1050.09 519.67C1055.09 518.38 1049.71 519.39 1049.71 519.39L1046.85 517.08L1044.35 518.08C1044.35 518.08 1037.42 515.94 1035.94 518.53Z" fill="black"/>
<path d="M1035.39 517.97C1035.39 517.97 1040.29 523.8 1040.2 524.97C1040.11 526.14 1039.92 529.04 1039.92 529.04L1036.22 536.54C1036.22 536.54 1034.22 545.89 1034.22 547.83C1034.22 549.77 1030.98 566.62 1030.98 566.62L1027.1 592.54L1022.19 626.54L1027.19 635.15L1033.11 630.15L1040.98 569.61L1042.65 557.67C1042.65 557.67 1044.41 536.19 1044.41 533.97C1044.22 531.267 1043.89 528.577 1043.41 525.91C1043.41 525.91 1044.61 520.36 1049.61 519.06C1054.61 517.76 1049.24 518.79 1049.24 518.79L1046.37 516.47L1043.87 517.47C1043.87 517.47 1036.87 515.38 1035.39 517.97Z" fill="#4098D7"/>
<path opacity="0.1" d="M1032.15 508.25C1032.15 508.25 1031.41 508.81 1031.22 512.51C1031.03 516.21 1028.44 524.51 1028.44 524.51C1028.44 524.51 1038.07 517.85 1042.88 518.59L1032.15 508.25Z" fill="black"/>
<path d="M1032.15 507.14C1032.15 507.14 1031.41 507.7 1031.22 511.4C1031.03 515.1 1028.44 523.4 1028.44 523.4C1028.44 523.4 1038.07 516.74 1042.88 517.48L1032.15 507.14Z" fill="#E7EFFD"/>
<path opacity="0.1" d="M1058.44 505.29L1043.26 518.62C1043.26 518.62 1056.03 526.21 1057.7 528.06C1059.37 529.91 1061.03 509.92 1061.03 509.92L1058.44 505.29Z" fill="black"/>
<path d="M1058.99 504.18L1043.81 517.51C1043.81 517.51 1056.59 525.1 1058.25 526.95C1059.91 528.8 1061.58 508.81 1061.58 508.81L1058.99 504.18Z" fill="#E7EFFD"/>
<path opacity="0.1" d="M1032.7 508.25C1032.7 508.25 1031.04 507.42 1029.46 509.83C1028.31 511.399 1026.74 512.615 1024.93 513.34C1024.93 513.34 1008.08 516.03 1007.43 518.25L999.56 518.71C999.56 518.71 996.78 519.08 996.56 524.92C996.34 530.76 994.8 531.3 994.8 531.3C994.8 531.3 991.56 537.04 991.8 540C991.836 540.9 991.621 541.793 991.18 542.579C990.738 543.364 990.088 544.012 989.3 544.45L1000.87 574.53C1000.87 574.53 1001.24 586.94 999.11 591.47C996.98 596 993 616.1 993 616.1C993 616.1 994.67 615.73 994.57 616.84C994.47 617.95 992.57 630.08 992.57 630.08C992.57 630.08 992.01 634.89 991.09 636.56C990.17 638.23 990.09 646.92 990.09 646.92L988.61 653.22C988.61 653.22 992.12 661.09 997.49 659.98C1002.86 658.87 1012.57 637.85 1012.57 637.85L1018.77 615.17L1023.59 592.77L1024.98 577.59L1027.2 543.98L1030.44 521.77C1030.44 521.77 1034 509.83 1032.7 508.25Z" fill="black"/>
<path d="M1032.15 507.14C1032.15 507.14 1030.48 506.31 1028.91 508.72C1027.75 510.288 1026.18 511.504 1024.37 512.23C1024.37 512.23 1007.52 514.92 1006.87 517.14L999.01 517.6C999.01 517.6 996.23 517.97 995.95 523.8C995.67 529.63 994.19 530.19 994.19 530.19C994.19 530.19 990.95 535.93 991.19 538.89C991.228 539.791 991.014 540.684 990.573 541.47C990.131 542.257 989.479 542.904 988.69 543.34L1000.3 573.46C1000.3 573.46 1000.67 585.87 998.54 590.4C996.41 594.93 992.43 615.03 992.43 615.03C992.43 615.03 994.1 614.66 994.01 615.77C993.92 616.88 992.01 629 992.01 629C992.01 629 991.46 633.82 990.53 635.48C989.6 637.14 989.53 645.85 989.53 645.85L988.05 652.15C988.05 652.15 991.57 660.02 996.94 658.9C1002.31 657.78 1012.03 636.78 1012.03 636.78L1018.23 614.1L1023.04 591.7L1024.37 576.46L1026.59 542.85L1029.83 520.64C1029.83 520.64 1033.44 508.72 1032.15 507.14Z" fill="#65617D"/>
<path opacity="0.1" d="M972.72 578.79L967.35 582.49C967.35 582.49 959.14 582.75 953.27 581.31L950.27 579.98L949.67 579.72L950.29 579.92C952.674 580.769 955.262 580.86 957.7 580.18C965.3 577.62 964.46 565.08 964.16 562.24C964.16 561.95 964.11 561.77 964.1 561.7V561.77C964.207 561.94 964.324 562.104 964.45 562.26L964.79 562.62L967.57 567.96C967.576 568.037 967.576 568.113 967.57 568.19L972.72 578.79Z" fill="black"/>
<path d="M991.32 542.6L988.73 543.34L988.36 548.61C988.36 548.61 985.36 548.15 984.47 551.76C984.114 553.674 983.324 555.48 982.16 557.04C982.16 557.04 977.07 561.3 976.79 564.91L973.64 566.85C973.64 566.85 966.33 565.18 964.64 562.22C964.64 562.22 967.98 586.1 950.2 580.22C950.2 580.22 970.1 588.92 971.03 590.13C971.96 591.34 978.03 594.85 983.62 591.89C989.21 588.93 990.38 584.39 990.38 584.39C990.38 584.39 995.75 576.89 995.93 575.78C996.11 574.67 1000.28 573.37 1000.28 573.37L1008.28 554.12L991.32 542.6Z" fill="#65617D"/>
<path opacity="0.1" d="M1056.31 516.4L1058.99 504.18C1058.99 504.18 1060.2 508.18 1061.4 509.09L1065.4 512.09C1065.4 512.09 1069.4 513.94 1070.77 513.94C1072.14 513.94 1079.66 515.94 1080.58 516.94C1081.5 517.94 1085.21 517.22 1085.21 517.22C1085.21 517.22 1088.26 518.22 1090.95 518.89C1093.64 519.56 1094.95 523.98 1094.37 525.74C1094.15 526.615 1094.15 527.533 1094.38 528.407C1094.6 529.282 1095.05 530.084 1095.67 530.74C1096.78 531.85 1097.34 535.46 1097.34 535.46C1098.7 535.904 1099.83 536.867 1100.48 538.14C1101.41 540.14 1101.13 544.62 1101.13 544.62L1087.34 564.06C1087.34 564.06 1087.52 571.56 1086.97 573.23C1086.42 574.9 1088.91 603.23 1088.91 603.23L1091.78 651.92C1090.31 653.212 1088.76 654.417 1087.15 655.53C1086.32 655.9 1085.49 638.31 1085.49 637.67C1085.49 637.03 1064.1 605.67 1064.1 605.67C1064.1 605.67 1061.23 601.04 1061.23 600.02C1061.23 599 1058.55 589.65 1058.55 589.65L1054.48 571.65L1056.31 516.4Z" fill="black"/>
<path d="M1102.26 543.57C1102.26 544.21 1102.26 544.63 1102.26 544.63L1088.48 564.05C1088.48 564.05 1088.67 571.55 1088.11 573.22C1087.79 574.22 1088.49 584.15 1089.11 592.33C1089.58 598.23 1090.01 603.21 1090.01 603.21L1091.23 623.86L1092.88 651.86C1091.41 653.152 1089.86 654.357 1088.25 655.47C1087.42 655.84 1086.59 638.25 1086.59 637.6C1086.59 636.95 1065.2 605.6 1065.2 605.6C1065.2 605.6 1062.33 600.97 1062.33 599.95C1062.33 598.93 1059.65 589.58 1059.65 589.58L1055.58 571.58L1057.43 516.41L1059 504.19C1059 504.19 1061.32 508.19 1062.52 509.09L1066.52 512.15C1066.52 512.15 1070.52 514 1071.89 514C1073.26 514 1080.78 516 1081.7 517C1082.62 518 1086.33 517.28 1086.33 517.28C1086.33 517.28 1089.39 518.28 1092.07 518.95C1094.75 519.62 1096.07 524.04 1095.49 525.8C1095.27 526.675 1095.27 527.593 1095.5 528.467C1095.73 529.341 1096.17 530.144 1096.79 530.8C1097.9 531.91 1098.46 535.52 1098.46 535.52C1099.82 535.964 1100.95 536.927 1101.6 538.2C1102.14 539.935 1102.37 541.755 1102.26 543.57V543.57Z" fill="#65617D"/>
<path opacity="0.1" d="M989.1 790.22C989.56 790.22 1009 790.96 1008.63 794.11C1008.26 797.26 989.1 790.22 989.1 790.22Z" fill="black"/>
<path opacity="0.1" d="M993.45 795.46C993.45 795.46 1006.5 797.59 1003.08 799.53C999.66 801.47 993.45 795.46 993.45 795.46Z" fill="black"/>
<path opacity="0.1" d="M1041.96 788.19C1041.96 788.19 1063.62 790.04 1060.38 792.44C1057.14 794.84 1049.46 795.22 1049.09 795.31C1048.72 795.4 1041.96 788.19 1041.96 788.19Z" fill="black"/>
<path opacity="0.1" d="M1039.37 797.72C1039.37 797.72 1051.37 799.72 1051.77 802.07C1052.17 804.42 1039.37 797.72 1039.37 797.72Z" fill="black"/>
<path opacity="0.1" d="M1046.03 741.99C1046.03 741.99 1057.03 744.58 1057.7 746.34L1046.03 741.99Z" fill="black"/>
<path opacity="0.1" d="M1003.57 749.95C1003.57 749.95 997.83 751.62 1003.39 754.95C1008.95 758.28 1003.57 749.95 1003.57 749.95Z" fill="black"/>
<path opacity="0.1" d="M1029 660.99C1029.65 660.99 1039.74 657.66 1043.26 659.14C1045.78 660.08 1048.43 660.58 1051.12 660.62L1029 660.99Z" fill="black"/>
<path opacity="0.1" d="M1030.3 671.54L1030.2 672.46L1021.57 695.06C1021.57 695.06 1020.18 701.91 1018.98 705.8C1018.22 708.429 1017.62 711.101 1017.17 713.8L1024.81 666.43L1030.3 671.54Z" fill="black"/>
<path d="M1043.74 631.66L1040.15 631.72H1040.04L1037.93 622.39L1041.05 622.22L1043.74 631.66Z" fill="#3F3D56"/>
<path d="M1087.41 620.36L1085.11 622.26L1077.41 628.59C1077.41 628.59 1056.59 639.7 1050.85 629.15C1045.79 619.85 1069.4 613.21 1075.09 611.76L1076.3 611.47L1087.41 620.36Z" fill="#FBBEBE"/>
<path opacity="0.1" d="M998.45 529.36C998.45 529.36 1002.52 531.21 1003.45 533.8C1004.38 536.39 998.45 529.36 998.45 529.36Z" fill="black"/>
<path opacity="0.1" d="M985.86 557.13C985.86 557.13 979.94 564.35 982.34 567.13C984.74 569.91 985.86 557.13 985.86 557.13Z" fill="black"/>
<path opacity="0.1" d="M1091.76 533.46C1091.76 533.46 1086.21 534.02 1086.02 538.83L1091.76 533.46Z" fill="black"/>
<path opacity="0.1" d="M1040.29 609.34C1040.85 608.78 1053.62 589.9 1056.59 591.57L1040.29 609.34Z" fill="black"/>
<path opacity="0.1" d="M1064.18 486.59C1064.18 490.219 1063.28 493.792 1061.57 496.99H1061.41C1060.01 496.69 1059.28 495.07 1058.22 494.05C1057.56 493.425 1056.73 493.021 1055.83 492.896C1054.94 492.77 1054.02 492.929 1053.22 493.35C1052.41 493.835 1051.75 494.536 1051.31 495.375C1050.88 496.214 1050.69 497.158 1050.76 498.1C1050.06 495.1 1050.28 491.98 1049.59 489.01C1048.9 486.04 1046.83 483.01 1043.99 483.01C1042.77 483.01 1041.34 483.46 1040.46 482.54C1039.93 481.99 1039.82 481.12 1039.46 480.45C1037.46 477.16 1031.26 478.82 1028.74 480.51C1026.22 482.2 1023.29 484.88 1020.16 486.32C1020.2 480.477 1022.56 474.891 1026.73 470.789C1030.89 466.688 1036.51 464.408 1042.35 464.45C1048.19 464.492 1053.78 466.854 1057.88 471.016C1061.98 475.177 1064.26 480.797 1064.22 486.64L1064.18 486.59Z" fill="black"/>
<path d="M1039.42 479.84C1039.82 480.51 1039.93 481.38 1040.42 481.94C1041.3 482.85 1042.73 482.38 1043.95 482.4C1046.79 482.45 1048.87 485.46 1049.55 488.4C1050.23 491.34 1050.02 494.52 1050.73 497.48C1050.65 496.539 1050.84 495.595 1051.27 494.756C1051.7 493.917 1052.37 493.218 1053.18 492.74C1053.98 492.321 1054.89 492.162 1055.79 492.286C1056.69 492.409 1057.52 492.809 1058.18 493.43C1059.24 494.43 1059.97 496.08 1061.37 496.37C1062.77 496.66 1064.11 495.32 1064.61 493.85C1064.97 492.331 1065.24 490.791 1065.41 489.24C1066.04 486.36 1067.93 483.99 1068.97 481.24C1070.21 477.899 1070.18 474.219 1068.88 470.9C1068.18 469.16 1067.15 467.6 1066.45 465.9C1065.38 463.27 1065.1 460.29 1063.8 457.78C1062.76 455.747 1061.02 454.153 1058.91 453.284C1056.8 452.415 1054.44 452.328 1052.27 453.04C1050.27 453.8 1048.51 455.26 1046.47 455.92C1043.73 456.8 1040.81 456.14 1037.98 455.74C1035.15 455.34 1031.98 455.31 1029.74 457.17C1027.12 459.32 1026.4 463.35 1023.94 465.7C1022.94 466.7 1021.62 467.32 1020.53 468.23C1019.94 468.665 1019.46 469.231 1019.13 469.884C1018.8 470.536 1018.62 471.258 1018.62 471.99C1018.79 473.91 1020.62 475.65 1019.97 477.43C1019.73 477.942 1019.39 478.402 1018.97 478.78C1016.91 480.944 1015.38 483.555 1014.49 486.41C1019.49 487.95 1024.81 482.49 1028.68 479.91C1031.22 478.22 1037.39 476.56 1039.42 479.84Z" fill="#7C5C5C"/>
<path opacity="0.1" d="M1087.41 620.36L1085.11 622.26C1083.11 618.87 1074.73 612.11 1074.73 612.11L1075.09 611.76L1076.3 611.47L1087.41 620.36Z" fill="black"/>
<path d="M1089.63 616.93C1089.63 616.93 1088.81 618.99 1087.95 620.77C1087.09 622.55 1086.16 624.17 1086.12 622.86C1086.02 620.26 1075.29 611.56 1075.29 611.56L1076.74 610.14L1078.43 608.5L1089.63 616.93Z" fill="#E7EFFD"/>
<path opacity="0.1" d="M1090 603.23L1091.22 623.88C1088.34 619.41 1080.45 607.95 1075.38 608.32L1087.69 594.16C1088.2 593.59 1088.67 592.985 1089.1 592.35C1089.57 598.25 1090 603.23 1090 603.23Z" fill="black"/>
<path opacity="0.1" d="M1089.63 616.93C1089.63 616.93 1088.81 618.99 1087.95 620.77C1084.72 616.35 1080.29 611.12 1076.74 610.14L1078.43 608.5L1089.63 616.93Z" fill="black"/>
<path d="M1098.89 542.04L1102.22 544.63C1102.22 544.63 1107.78 544.73 1108.33 549.35C1108.88 553.97 1113.98 556.11 1113.98 556.11C1113.98 556.11 1117.77 559.91 1117.77 561.67C1117.77 563.43 1120.64 566.57 1120.64 566.85C1120.64 567.13 1123.42 572.77 1123.05 573.79C1122.68 574.81 1126.05 579.25 1124.99 580.92C1124.16 582.418 1123.42 583.964 1122.77 585.55C1122.77 585.55 1118.42 593.88 1116.2 595.45C1113.98 597.02 1103.8 610.27 1103.8 610.27C1103.8 610.27 1092.87 622.85 1092.87 626.74C1092.87 626.74 1082.23 608.97 1075.93 609.43L1088.24 595.27C1088.24 595.27 1090.37 592.95 1090.47 591.57C1090.57 590.19 1096.39 583.79 1099.17 583.51C1099.17 583.51 1099.63 579.72 1098.43 579.62C1097.23 579.52 1096.21 576.62 1096.21 576.62C1096.21 576.62 1088.06 566.99 1087.97 560.88C1087.88 554.77 1098.89 542.04 1098.89 542.04Z" fill="#65617D"/>
<path opacity="0.1" d="M1103.8 550.83C1103.8 550.83 1096.02 556.57 1097.69 558.43C1099.36 560.29 1103.8 550.83 1103.8 550.83Z" fill="black"/>
<path opacity="0.1" d="M1104.17 574.53C1104.17 574.53 1118.61 569.9 1120.09 574.53H1104.17Z" fill="black"/>
<path opacity="0.1" d="M1014.75 820.46C1014.75 820.46 1006.97 825.56 1003.08 824.81C1000.39 824.471 997.652 824.923 995.21 826.11C992.535 829.038 989.159 831.237 985.4 832.5C979.1 834.63 970.31 833.79 965.31 832.13C962.95 831.34 962.76 830.32 963.9 829.07C969.33 830.15 981.48 832.3 984.75 830.74C988.355 828.827 991.82 826.661 995.12 824.26C995.12 824.26 1003.12 823.15 1004.19 823.15C1004.98 823.15 1011.13 820.61 1014.6 819.15L1014.75 820.46Z" fill="black"/>
<path opacity="0.1" d="M1061.84 830.91C1061.84 831.22 1061.77 831.42 1061.77 831.42C1061.77 831.42 1059.92 835.49 1049.64 836.97C1039.36 838.45 1039.37 833.55 1039.37 833.55L1039.47 832.22C1042.72 833.46 1049.82 834.83 1061.84 830.91Z" fill="black"/>
<path opacity="0.1" d="M1002.29 549.72C1002.29 549.72 1002.29 570.83 1000.49 572.91C998.69 574.99 1002.29 549.72 1002.29 549.72Z" fill="black"/>
<path opacity="0.1" d="M1085.74 556.53L1088.43 564.07C1088.43 564.07 1089.49 556.67 1085.74 556.53Z" fill="black"/>
<g opacity="0.1">
<path opacity="0.1" d="M1020.29 475.61C1020.97 473.88 1019.19 472.17 1018.96 470.31C1018.72 470.832 1018.62 471.407 1018.66 471.98C1018.78 473.39 1019.82 474.7 1020.09 475.98C1020.17 475.863 1020.23 475.739 1020.29 475.61V475.61Z" fill="black"/>
<path opacity="0.1" d="M1051.01 495.55C1050.35 492.63 1050.55 489.55 1049.87 486.62C1049.19 483.69 1047.11 480.62 1044.27 480.62C1043.05 480.62 1041.62 481.06 1040.74 480.15C1040.2 479.6 1040.1 478.73 1039.74 478.05C1037.74 474.77 1031.54 476.44 1029.01 478.12C1025.23 480.63 1020.01 485.9 1015.17 484.7C1014.94 485.26 1014.72 485.83 1014.54 486.42C1019.54 487.96 1024.86 482.5 1028.73 479.92C1031.26 478.24 1037.43 476.58 1039.46 479.86C1039.86 480.53 1039.97 481.4 1040.46 481.96C1041.34 482.87 1042.77 482.4 1043.99 482.42C1046.83 482.47 1048.91 485.48 1049.59 488.42C1050.27 491.36 1050.06 494.54 1050.77 497.5C1050.72 496.84 1050.8 496.178 1051.01 495.55V495.55Z" fill="black"/>
<path opacity="0.1" d="M1064.93 492.08C1064.43 493.55 1063.11 494.9 1061.68 494.6C1060.25 494.3 1059.56 492.68 1058.5 491.66C1057.84 491.039 1057.01 490.638 1056.11 490.513C1055.22 490.387 1054.3 490.544 1053.5 490.96C1052.73 491.422 1052.09 492.082 1051.66 492.871C1051.23 493.66 1051.01 494.55 1051.04 495.45C1051.41 494.318 1052.19 493.364 1053.22 492.77C1054.02 492.351 1054.93 492.192 1055.83 492.316C1056.73 492.439 1057.56 492.839 1058.22 493.46C1059.28 494.46 1060.01 496.11 1061.41 496.4C1062.81 496.69 1064.15 495.35 1064.65 493.88C1064.92 493.016 1065.09 492.123 1065.16 491.22C1065.1 491.512 1065.03 491.799 1064.93 492.08Z" fill="black"/>
<path opacity="0.1" d="M1069.29 479.46C1068.29 482.2 1066.36 484.57 1065.73 487.46C1065.61 488.04 1065.53 488.64 1065.46 489.24C1066.1 486.36 1067.97 484 1069.01 481.24C1069.47 480.007 1069.76 478.714 1069.86 477.4C1069.72 478.1 1069.53 478.789 1069.29 479.46V479.46Z" fill="black"/>
</g>
<path d="M935.51 546.49C935.637 546.49 935.74 546.387 935.74 546.26C935.74 546.133 935.637 546.03 935.51 546.03C935.383 546.03 935.28 546.133 935.28 546.26C935.28 546.387 935.383 546.49 935.51 546.49Z" fill="#E6E8EC"/>
<path d="M1023.69 551.42H855.73C852.079 551.42 849.12 554.379 849.12 558.03V753.03C849.12 756.681 852.079 759.64 855.73 759.64H1023.69C1027.34 759.64 1030.3 756.681 1030.3 753.03V558.03C1030.3 554.379 1027.34 551.42 1023.69 551.42Z" fill="white"/>
<path opacity="0.1" d="M1023.69 551.42H855.73C852.079 551.42 849.12 554.379 849.12 558.03V753.03C849.12 756.681 852.079 759.64 855.73 759.64H1023.69C1027.34 759.64 1030.3 756.681 1030.3 753.03V558.03C1030.3 554.379 1027.34 551.42 1023.69 551.42Z" fill="#5A5773"/>
<path d="M1014.45 562.04H864.97C861.319 562.04 858.36 564.999 858.36 568.65V742.41C858.36 746.061 861.319 749.02 864.97 749.02H1014.45C1018.1 749.02 1021.06 746.061 1021.06 742.41V568.65C1021.06 564.999 1018.1 562.04 1014.45 562.04Z" fill="white"/>
<path d="M987.62 599.54H888.06C884.73 599.54 882.03 602.24 882.03 605.57V632.03C882.03 635.36 884.73 638.06 888.06 638.06H987.62C990.95 638.06 993.65 635.36 993.65 632.03V605.57C993.65 602.24 990.95 599.54 987.62 599.54Z" fill="#4098D7"/>
<path d="M989.56 652.15H886.13V660.01H989.56V652.15Z" fill="#4098D7"/>
<path d="M1010.87 668.74H868.55V676.6H1010.87V668.74Z" fill="#4098D7"/>
<path d="M1010.87 686.2H868.55V694.06H1010.87V686.2Z" fill="#4098D7"/>
<path d="M1010.87 703.66H868.55V711.52H1010.87V703.66Z" fill="#4098D7"/>
<path d="M420 482.59H6.61C2.9594 482.59 0 485.549 0 489.2V684.2C0 687.851 2.9594 690.81 6.61 690.81H420C423.651 690.81 426.61 687.851 426.61 684.2V489.2C426.61 485.549 423.651 482.59 420 482.59Z" fill="white"/>
<path opacity="0.1" d="M420 482.59H6.61C2.9594 482.59 0 485.549 0 489.2V684.2C0 687.851 2.9594 690.81 6.61 690.81H420C423.651 690.81 426.61 687.851 426.61 684.2V489.2C426.61 485.549 423.651 482.59 420 482.59Z" fill="#5A5773"/>
<path d="M398.23 493.21H28.37C24.7194 493.21 21.76 496.169 21.76 499.82V673.58C21.76 677.231 24.7194 680.19 28.37 680.19H398.23C401.881 680.19 404.84 677.231 404.84 673.58V499.82C404.84 496.169 401.881 493.21 398.23 493.21Z" fill="white"/>
<path d="M334.29 530.72H83.54C80.2097 530.72 77.51 533.42 77.51 536.75V563.21C77.51 566.54 80.2097 569.24 83.54 569.24H334.29C337.62 569.24 340.32 566.54 340.32 563.21V536.75C340.32 533.42 337.62 530.72 334.29 530.72Z" fill="#4098D7"/>
<path d="M330.68 583.32H87.15V591.18H330.68V583.32Z" fill="#4098D7"/>
<path d="M380.85 599.91H45.75V607.77H380.85V599.91Z" fill="#4098D7"/>
<path d="M380.85 617.37H45.75V625.23H380.85V617.37Z" fill="#4098D7"/>
<path d="M380.85 634.83H45.75V642.69H380.85V634.83Z" fill="#4098D7"/>
<path d="M104.27 840.64C105.46 836.3 106.27 832.48 106.27 832.48C106.292 829.579 107.056 826.732 108.49 824.21V823.01L108.83 814.2C108.301 812.578 107.632 811.005 106.83 809.5C105.35 806.67 107.33 796.58 107.33 796.58C107.33 796.58 113.76 782.51 112.68 773.38C111.6 764.25 126.3 733.55 126.3 733.55C126.339 730.525 126.031 727.505 125.38 724.55C125.262 723.934 125.228 723.305 125.28 722.68C125.275 722.603 125.275 722.527 125.28 722.45V722.52C125.71 716.52 130.87 705.52 130.87 705.52L131.06 684.12C131.06 684.12 128.52 671.4 134.06 654.67C136.01 648.83 137.29 644.15 138.13 640.53C138.23 640.12 138.32 639.73 138.4 639.35C128.32 637.41 120.62 635.83 120.62 635.83C120.62 635.83 127.45 611.45 131.62 607.3C135.79 603.15 139.45 589.73 139.45 589.73C139.45 589.73 142.19 572.43 139.05 567.23C135.91 562.03 135.77 553.23 135.77 553.23C135.77 553.23 128.35 547.4 127.49 544.91C126.63 542.42 125.26 536.81 125.37 533.91C125.48 531.01 126.54 528.41 126.28 526.86C126.02 525.31 128.79 519.57 127.62 516.75C127.329 515.884 127.194 514.973 127.22 514.06C127.22 514.06 127.22 514.06 127.22 513.98C127.303 511.558 127.621 509.15 128.17 506.79C130.443 505.013 133.068 503.738 135.87 503.05L136.06 502.39L136.56 500.68C136.806 500.527 137.06 500.387 137.32 500.26L137.37 499.63L137.53 497.14L136.57 491.46C134.57 481.6 147.69 480.65 147.69 480.65C148.535 479.182 149.891 478.078 151.5 477.55C154.16 476.73 151.38 492.26 150.11 493.21C149.11 493.92 146.11 498.71 144.66 501.06L144.42 501.45C144.631 501.651 144.824 501.868 145 502.1L144.37 505.47L144.27 505.98C145.095 507.087 145.753 508.31 146.22 509.61C146.22 509.61 143.73 512.13 144.1 515.07C144.208 517.357 143.868 519.643 143.1 521.8C143.24 521.65 144.99 519.9 146.65 520.4C148.31 520.9 152.93 522.49 152.93 522.49C152.93 522.49 156.4 523.24 156.05 524C155.7 524.76 158.28 528.24 158.28 528.24L168.01 519.71C168.12 519.44 168.22 519.18 168.32 518.91C168.768 517.652 169.103 516.357 169.32 515.04C168.294 514.76 167.291 514.402 166.32 513.97C165.345 513.595 164.474 512.991 163.78 512.21C162.88 511.05 162.78 509.51 162.43 508.1C161.79 505.34 160.29 502.84 159.24 500.19C157.479 495.744 157.014 490.889 157.9 486.19C158.114 484.75 158.662 483.38 159.5 482.19C161.12 480.14 163.93 479.39 166.02 477.79C168.11 476.19 169.51 473.66 171.91 472.49C174.09 471.43 176.68 471.67 179.07 472.15C183.711 473.097 188.136 474.897 192.12 477.46C193.46 478.33 194.93 479.33 196.52 479.1C197.84 478.749 199.002 477.963 199.82 476.87C199.816 476.823 199.816 476.776 199.82 476.73L199.93 476.62C200.838 478.865 201.241 481.282 201.11 483.7C201.11 484.07 201.11 484.45 201.03 484.82C201.03 484.95 201.03 485.08 201.03 485.21C201.02 485.32 201.02 485.43 201.03 485.54V485.54C201.025 485.705 201.046 485.871 201.09 486.03C201.266 486.523 201.549 486.971 201.92 487.34C202.192 487.674 202.433 488.032 202.64 488.41C202.64 488.28 202.57 488.15 202.53 488.02C203.096 488.918 203.395 489.959 203.39 491.02C203.413 491.794 203.129 492.545 202.6 493.11C202.117 493.558 201.587 493.954 201.02 494.29C201.526 497.921 200.909 501.621 199.249 504.891C197.59 508.161 194.97 510.844 191.74 512.58C191.62 512.84 191.5 513.11 191.39 513.38C189.902 516.558 189.182 520.042 189.29 523.55C189.29 523.8 189.29 524.05 189.37 524.3C189.45 524.55 189.6 524.57 189.7 524.71C189.7 524.71 205.2 525.46 208.98 522.29C212.76 519.12 217.88 530.72 217.88 530.72C217.88 530.72 223.4 532.01 224.55 530.98C225.7 529.95 232.19 531.12 232.19 531.12C234.94 528.851 238.452 527.718 242.01 527.95C244.246 526.384 246.694 525.144 249.28 524.27V524.27L249.46 524.21C250.591 523.842 251.792 523.736 252.97 523.9C252.97 523.9 260.84 517.9 263.19 514.59C265.54 511.28 276.57 499.15 276.57 499.09L276.64 498.49L276.83 496.67C277.14 496.734 277.454 496.774 277.77 496.79L278.01 496.16C278.686 494.402 279.505 492.703 280.46 491.08C280.46 491.08 280.55 488.77 279.9 488.17C279.25 487.57 280.53 479.17 280.53 479.17C280.53 479.17 288.02 463.37 293.71 475.6C293.71 475.6 305.05 483.81 294.93 492.47C294.93 492.47 290.93 494.21 290.36 495.68C289.96 496.68 288.53 499.3 287.57 501.07L287.14 501.86L287.25 501.96L287.05 503.46L286.97 504.05C288.76 505.16 289.97 506.24 289.64 507.05C289.044 508.361 288.618 509.742 288.37 511.16C288.37 511.16 274.23 527.46 272.21 534.65C272.21 534.65 235.15 554.79 223.21 555.87L224.86 566.71C225.056 569.636 225.102 572.569 225 575.5C224.75 577.8 225.94 588.31 225.94 588.31C225.94 588.31 227.41 603.77 229.08 605.99C230.75 608.21 230.08 617.43 230.08 617.43C230.331 621.862 230.96 626.265 231.96 630.59C233.48 636.5 231.96 643.68 231.96 643.68C231.96 643.68 237.47 657.75 223.37 647.81C223.37 647.81 216.29 647.1 208.13 646.51C208.13 646.77 208.13 647.05 208.13 647.32C208.13 648.38 208.08 649.52 208.05 650.72C207.85 658.65 207.48 669.57 206.8 677.82C205.6 692.41 200.04 721.15 200.04 721.15L199.48 735.67C199.718 737.046 199.805 738.445 199.74 739.84C199.646 744.964 198.095 749.955 195.27 754.23L193.78 763.88C193.78 763.88 190.93 770.16 190.73 773.97C190.725 774.282 190.751 774.594 190.81 774.9C190.883 775.393 190.907 775.892 190.88 776.39C190.88 780.79 187.8 791.21 187.8 791.21C187.8 791.21 187.23 801.82 185.62 802.37C184.24 802.85 187.2 808.56 188.08 810.2C188.113 810.102 188.136 810.002 188.15 809.9L188.34 810.22C188.634 811.092 188.766 812.01 188.73 812.93C188.79 813.658 188.642 814.388 188.304 815.036C187.966 815.684 187.451 816.222 186.82 816.59C183.73 818.32 182.05 819.79 184.59 820.51C185.528 820.693 186.456 820.923 187.37 821.2L187.52 820.85C187.879 821.005 188.173 821.278 188.355 821.623C188.537 821.969 188.595 822.367 188.52 822.75C188.451 824.007 188.076 825.229 187.43 826.31C186.198 829.039 184.655 831.616 182.83 833.99L181.61 833.81C181.775 834.278 181.997 834.725 182.27 835.14C182.708 835.828 183.304 836.401 184.01 836.81C184.659 837.229 185.387 837.508 186.15 837.63C187.012 837.694 187.85 837.937 188.612 838.346C189.373 838.754 190.04 839.317 190.57 840C192.07 842.11 192.96 844.94 189.73 847.27L178.22 850.75C178.22 850.75 158.58 852.54 159.78 848.2C160.98 843.86 161.78 840.04 161.78 840.04C161.801 837.356 162.445 834.713 163.66 832.32C163.882 831.931 164.129 831.557 164.4 831.2L163.71 831.1C163.71 831.1 162.57 821.35 160.69 819.46C160.27 819.01 160.18 818.68 160.29 818.46C160.12 817.93 160.62 817.64 161.29 817.46C161.29 817.58 161.38 817.71 161.42 817.84C162.048 817.734 162.684 817.691 163.32 817.71C163.32 817.71 164.15 812.66 162.16 810.71C161.999 810.495 161.886 810.248 161.827 809.986C161.768 809.724 161.766 809.453 161.82 809.19C161.824 808.493 161.922 807.801 162.11 807.13C162.13 807.172 162.153 807.212 162.18 807.25C163.4 802.69 167.18 795.51 167.18 795.51C167.18 795.51 167.51 790.9 166.31 789C165.11 787.1 167.44 763.94 167.44 763.94C167.44 763.94 167.39 752.7 169.02 747.53C170.65 742.36 167.71 736.08 167.71 736.08C167.71 736.08 167.71 735.96 167.76 735.75C167.763 735.72 167.763 735.69 167.76 735.66C167.76 735.66 167.86 734.97 168.02 733.9V734.01C168.46 731.01 169.27 725.7 169.81 723.22C170.58 719.71 170.44 702.76 170.44 702.76L167.85 695.46L162.28 707.72L156.28 724.12C156.28 724.12 153.47 727.52 153.28 731.12C153.28 731.3 153.28 731.47 153.28 731.65C153.305 732.02 153.305 732.39 153.28 732.76C153.288 734.86 152.63 736.908 151.4 738.61C151.4 738.61 149.67 746.4 147.4 748.31C145.13 750.22 144.95 754.07 144.95 754.07C144.95 754.07 141.81 765.35 140.46 767.3C139.33 768.94 139.09 773.57 139.05 774.99C139.05 775.25 139.05 775.4 139.05 775.4C139.05 775.4 138.52 779.46 138.4 782.88C138.4 783.3 138.4 783.71 138.4 784.09C138.395 784.064 138.395 784.036 138.4 784.01C138.362 784.939 138.436 785.869 138.62 786.78C138.62 786.78 138.62 786.89 138.62 786.95V786.37C139.095 788.712 139.28 791.103 139.17 793.49C139.08 797.58 138.27 802.4 135.68 805.15C131.2 809.91 128.53 809.15 128.53 809.15C128.53 809.15 130.36 815.38 132.85 816.71C132.946 816.761 133.036 816.821 133.12 816.89C133.12 816.77 133.12 816.65 133.19 816.54C133.455 816.86 133.65 817.231 133.763 817.631C133.877 818.03 133.907 818.449 133.85 818.86C133.93 821.57 132.05 825.86 130.35 827.86C129.731 828.432 128.978 828.837 128.16 829.04C128.284 829.135 128.415 829.221 128.55 829.3C128.827 829.464 129.115 829.611 129.41 829.74C129.813 829.937 130.245 830.068 130.69 830.13C131.553 830.188 132.394 830.429 133.156 830.838C133.918 831.247 134.584 831.813 135.11 832.5C136.61 834.6 137.5 837.43 134.27 839.76L122.76 843.24C122.76 843.24 103.06 844.98 104.27 840.64Z" fill="url(#paint2_linear)"/>
<path d="M178.62 850.77L189.77 847.28C192.9 844.94 192.04 842.11 190.59 840C190.09 839.324 189.449 838.764 188.712 838.358C187.975 837.953 187.159 837.711 186.32 837.65C185.575 837.527 184.865 837.244 184.24 836.82C183.559 836.407 182.987 835.838 182.57 835.16C181.819 833.854 181.441 832.366 181.48 830.86C181.48 830.86 169.54 826.86 166.1 830.27C165.492 830.889 164.977 831.593 164.57 832.36C163.39 834.764 162.761 837.402 162.73 840.08C162.73 840.08 161.97 843.89 160.8 848.24C159.63 852.59 178.62 850.77 178.62 850.77Z" fill="#2D293D"/>
<path d="M125.01 843.28L136.16 839.79C139.29 837.45 138.43 834.62 136.98 832.52C136.479 831.841 135.838 831.278 135.099 830.871C134.36 830.463 133.542 830.221 132.7 830.16C132.268 830.103 131.849 829.974 131.46 829.78C131.175 829.647 130.897 829.496 130.63 829.33C127.63 827.52 127.86 823.33 127.86 823.33C127.86 823.33 115.92 819.33 112.48 822.74C112.019 823.2 111.609 823.71 111.26 824.26C109.862 826.801 109.12 829.65 109.1 832.55C109.1 832.55 108.33 836.37 107.17 840.71C106.01 845.05 125.01 843.28 125.01 843.28Z" fill="#2D293D"/>
<path opacity="0.1" d="M166.09 830.27C165.485 830.89 164.973 831.594 164.57 832.36V832.36L182.57 835.15C181.819 833.844 181.441 832.356 181.48 830.85C181.48 830.85 169.57 826.86 166.09 830.27Z" fill="black"/>
<path opacity="0.1" d="M111.26 824.3L111.13 827.69C113.77 832.44 127.42 831.95 131.46 829.78C131.175 829.647 130.897 829.496 130.63 829.33C127.63 827.52 127.86 823.33 127.86 823.33C127.86 823.33 115.92 819.33 112.48 822.74C112.016 823.213 111.607 823.736 111.26 824.3Z" fill="black"/>
<path d="M109.67 809.62C110.465 811.129 111.133 812.701 111.67 814.32L111.18 826.46C114.06 831.66 130.12 830.58 132.38 827.9C134.64 825.22 137.22 818.07 134.81 816.75C132.4 815.43 130.63 809.19 130.63 809.19C130.63 809.19 133.22 809.91 137.57 805.19C141.92 800.47 141.1 789.46 140.42 786.82C139.74 784.18 140.87 775.44 140.87 775.44C140.87 775.44 140.95 769.28 142.26 767.33C143.57 765.38 146.62 754.1 146.62 754.1C146.62 754.1 146.76 750.25 148.99 748.34C151.22 746.43 152.91 738.63 152.91 738.63C154.248 736.72 154.88 734.405 154.7 732.08C154.39 728.22 157.62 724.18 157.62 724.18L163.49 707.78L168.89 695.51L171.38 702.84C171.38 702.84 171.5 719.79 170.75 723.3C170 726.81 168.75 736.16 168.75 736.16C168.75 736.16 171.59 742.43 170.01 747.61C168.43 752.79 168.45 764.02 168.45 764.02C168.45 764.02 166.17 787.19 167.33 789.08C168.49 790.97 168.16 795.58 168.16 795.58C168.16 795.58 161.34 808.87 163.26 810.8C165.18 812.73 164.38 817.8 164.38 817.8C164.38 817.8 160.08 817.63 161.85 819.55C163.62 821.47 164.57 831.14 164.57 831.14L183.08 834.01C184.854 831.624 186.35 829.044 187.54 826.32C190.22 820.73 187.28 821.23 184.83 820.52C182.38 819.81 184 818.33 186.99 816.6C189.98 814.87 188.45 810.65 188.45 810.65C188.45 810.65 184.28 802.94 185.85 802.39C187.42 801.84 187.97 791.23 187.97 791.23C187.97 791.23 191.53 778.73 190.89 775.32C190.25 771.91 193.8 763.88 193.8 763.88L195.24 754.24C198.746 748.873 200.198 742.422 199.33 736.07L199.91 721.15C199.91 721.15 205.35 692.46 206.57 677.82C207.33 668.48 207.71 655.71 207.88 647.74C207.98 643.26 208.02 640.3 208.02 640.3L141.85 630.82C141.62 634.135 141.088 637.422 140.26 640.64C139.45 644.27 138.2 648.95 136.26 654.79C130.84 671.52 133.26 684.24 133.26 684.24L133.05 705.64C133.05 705.64 126.65 719.72 127.7 724.69C128.327 727.648 128.622 730.667 128.58 733.69C128.58 733.69 114.34 764.37 115.38 773.46C116.42 782.55 110.17 796.67 110.17 796.67C110.17 796.67 108.24 806.79 109.67 809.62Z" fill="#575988"/>
<path opacity="0.05" d="M150.74 730.96L130.62 727.46C130.62 727.46 141.63 739.62 150.74 730.96Z" fill="black"/>
<path opacity="0.1" d="M134.3 707.85C134.3 707.85 133.3 714.97 137.61 717.85C137.57 717.83 129.82 716.3 134.3 707.85Z" fill="black"/>
<path opacity="0.1" d="M136.42 685.13C136.42 685.13 152.79 699.7 158.98 698.79C165.17 697.88 136.42 685.13 136.42 685.13Z" fill="black"/>
<path opacity="0.1" d="M175.57 738.46C175.57 738.46 188.3 741.88 188.49 747.04C188.68 752.2 175.57 738.46 175.57 738.46Z" fill="black"/>
<path opacity="0.05" d="M170.26 802.46C170.26 802.46 188.26 806.54 183.04 808.65C177.82 810.76 169.27 812.28 169.27 812.28C169.27 812.28 163.41 812.38 170.26 802.46Z" fill="black"/>
<g opacity="0.05">
<path opacity="0.05" d="M186.57 812.46C187.036 812.192 187.436 811.823 187.74 811.38C188.045 810.937 188.246 810.431 188.33 809.9L188.5 810.23C188.5 810.23 190.04 814.44 187.04 816.23C186.7 816.42 186.38 816.62 186.04 816.81C185.51 816.69 184.93 816.59 184.38 816.43C181.94 815.68 183.57 814.2 186.57 812.46Z" fill="black"/>
<path opacity="0.05" d="M163.23 810.34C162.75 809.86 162.82 808.68 163.23 807.17C163.919 808.564 164.216 810.12 164.09 811.67C163.909 811.167 163.615 810.712 163.23 810.34V810.34Z" fill="black"/>
<path opacity="0.05" d="M168.97 733.94C169.567 735.788 169.903 737.709 169.97 739.65C169.676 738.3 169.254 736.98 168.71 735.71C168.71 735.71 168.82 735.02 168.97 733.94Z" fill="black"/>
<path opacity="0.05" d="M127.74 724.27C127.638 723.713 127.601 723.146 127.63 722.58C127.82 723.74 127.94 724.81 128.01 725.75C127.93 725.27 127.84 724.78 127.74 724.27Z" fill="black"/>
<path opacity="0.05" d="M167.3 788.63C166.999 787.513 166.891 786.353 166.98 785.2C167.495 786.587 167.74 788.061 167.7 789.54C167.603 789.222 167.469 788.917 167.3 788.63V788.63Z" fill="black"/>
<path opacity="0.05" d="M162.38 817.46C163.218 820.585 163.803 823.772 164.13 826.99L182.64 829.86C184.42 827.477 185.92 824.896 187.11 822.17C187.35 821.68 187.53 821.24 187.69 820.84C188.78 821.39 189.18 822.57 187.58 825.89C186.389 828.611 184.893 831.187 183.12 833.57L164.57 830.72C164.57 830.72 163.57 820.98 161.78 819.07C160.95 818.12 161.57 817.69 162.38 817.46Z" fill="black"/>
<path opacity="0.05" d="M188.01 790.81C188.01 790.81 187.45 801.42 185.89 801.97C185.18 800.18 184.72 798.5 185.42 798.25C186.98 797.69 187.55 787.09 187.55 787.09C187.55 787.09 191.11 774.6 190.47 771.18C189.83 767.76 193.37 759.75 193.37 759.75L194.82 750.1C198.326 744.733 199.778 738.281 198.91 731.93L199.48 717.01C199.48 717.01 204.9 688.27 206.08 673.68C206.83 664.34 207.21 651.57 207.39 643.6C207.39 642.16 207.45 640.88 207.47 639.8L208 639.88C208 639.88 208 642.88 207.86 647.31C207.69 655.31 207.31 668.06 206.55 677.4C205.37 691.98 199.96 720.73 199.96 720.73L199.38 735.64C200.248 741.99 198.8 748.441 195.3 753.81L193.84 763.46C193.84 763.46 190.29 771.46 190.93 774.9C191.57 778.34 188.01 790.81 188.01 790.81Z" fill="black"/>
<path opacity="0.05" d="M131.92 823.77C133.511 821.64 134.611 819.185 135.14 816.58C136.97 818.36 134.54 824.93 132.39 827.48C130.24 830.03 114.07 831.24 111.19 826.05L111.3 823.12C115.3 827.4 129.78 826.31 131.92 823.77Z" fill="black"/>
<path opacity="0.05" d="M109.21 805.46C110.005 806.969 110.673 808.541 111.21 810.16L111.12 812.31C110.701 811.24 110.227 810.192 109.7 809.17C109.259 807.944 109.082 806.639 109.18 805.34L109.21 805.46Z" fill="black"/>
<path opacity="0.05" d="M131.57 808.78C131.029 807.575 130.568 806.336 130.19 805.07C130.19 805.07 132.78 805.78 137.12 801.02C140.28 797.55 140.71 790.8 140.45 786.36C141.13 789.01 141.94 799.97 137.6 804.73C134.74 807.85 132.65 808.62 131.57 808.78Z" fill="black"/>
<path opacity="0.05" d="M140.88 774.98C140.491 778.002 140.271 781.043 140.22 784.09C140.16 783.605 140.074 783.125 139.96 782.65C139.29 780 140.4 771.27 140.4 771.27C140.4 771.27 140.49 765.11 141.79 763.16C143.09 761.21 146.15 749.93 146.15 749.93C146.15 749.93 146.3 746.09 148.53 744.17C150.76 742.25 152.45 734.46 152.45 734.46C153.783 732.548 154.415 730.234 154.24 727.91C153.93 724.05 157.16 720.01 157.16 720.01L163.03 703.61L168.43 691.34L170.92 698.68C170.92 698.68 170.92 699.58 170.92 701.02L168.92 695.02L163.52 707.28L157.65 723.69C157.65 723.69 154.42 727.69 154.73 731.59C154.91 733.915 154.278 736.23 152.94 738.14C152.94 738.14 151.25 745.93 149.02 747.84C146.79 749.75 146.65 753.6 146.65 753.6C146.65 753.6 143.59 764.88 142.29 766.84C140.99 768.8 140.88 774.98 140.88 774.98Z" fill="black"/>
</g>
<path d="M138.85 491.56L139.79 497.22L139.63 499.72L139.51 501.56L145.9 502.47L146.67 501.17C148.09 498.82 151.03 494.03 151.96 493.31C153.18 492.36 155.9 476.83 153.32 477.65C151.747 478.192 150.429 479.296 149.62 480.75C149.62 480.75 136.96 481.71 138.85 491.56Z" fill="#FFCDD3"/>
<path opacity="0.1" d="M139.51 501.56L145.9 502.47L146.67 501.17C145.846 500.163 144.7 499.47 143.425 499.208C142.151 498.946 140.825 499.13 139.67 499.73L139.51 501.56Z" fill="black"/>
<path d="M137.77 504.54L146.16 506.83L146.38 505.57L146.99 502.2C146.551 501.569 145.991 501.031 145.342 500.617C144.694 500.203 143.97 499.921 143.213 499.788C142.455 499.656 141.679 499.674 140.928 499.842C140.178 500.011 139.468 500.326 138.84 500.77L138.36 502.48L137.77 504.54Z" fill="#DCE6F2"/>
<path d="M275.31 497.46L284.15 502.66C284.15 502.66 284.52 501.95 285.04 500.98C285.97 499.21 287.35 496.55 287.74 495.59C288.33 494.12 292.17 492.37 292.17 492.37C301.98 483.7 291.01 475.51 291.01 475.51C285.51 463.28 278.25 479.09 278.25 479.09C278.25 479.09 277 487.52 277.63 488.09C278.26 488.66 278.17 491 278.17 491C277.238 492.625 276.442 494.324 275.79 496.08C275.48 496.91 275.31 497.46 275.31 497.46Z" fill="#FFCDD3"/>
<path opacity="0.1" d="M275.31 497.46L284.15 502.66C284.15 502.66 284.52 501.95 285.04 500.98C283.8 499.87 279.42 495.98 277.93 496.14C277.218 496.211 276.502 496.211 275.79 496.14C275.48 496.91 275.31 497.46 275.31 497.46Z" fill="black"/>
<path d="M274.28 500.13L284.28 505.52L284.56 503.34L284.76 501.84C284.76 501.84 279.08 496.58 277.34 496.7C276.453 496.789 275.557 496.752 274.68 496.59L274.5 498.41L274.28 500.13Z" fill="#DCE6F2"/>
<path d="M162.02 529.8C162.02 529.8 206.09 536.5 197.92 533.5C192.23 531.4 190.08 527.65 189.76 523.57C189.65 520.069 190.334 516.589 191.76 513.39C192.918 510.64 194.348 508.014 196.03 505.55C196.03 505.55 162.91 485.64 169.03 502.82C169.976 505.419 170.519 508.147 170.64 510.91C170.736 513.652 170.336 516.39 169.46 518.99C168.023 523.21 165.448 526.951 162.02 529.8V529.8Z" fill="#FFCDD3"/>
<path opacity="0.1" d="M169.07 502.82C170.016 505.419 170.559 508.147 170.68 510.91C173.76 513.7 177.26 513.66 181.75 513.83C185.2 513.97 188.98 514.95 191.75 513.39C192.908 510.64 194.338 508.014 196.02 505.55C196.02 505.55 162.95 485.64 169.07 502.82Z" fill="black"/>
<path d="M183.01 515.04C193.122 515.04 201.32 506.842 201.32 496.73C201.32 486.618 193.122 478.42 183.01 478.42C172.898 478.42 164.7 486.618 164.7 496.73C164.7 506.842 172.898 515.04 183.01 515.04Z" fill="#FFCDD3"/>
<path opacity="0.1" d="M162.02 529.8C162.02 529.8 206.09 536.5 197.92 533.5C192.23 531.4 190.08 527.65 189.76 523.57C187.65 521.1 183.29 519.21 180.48 518.18C177.922 517.216 175.129 517.063 172.48 517.74C171.424 518.006 170.413 518.427 169.48 518.99C168.037 523.212 165.456 526.953 162.02 529.8Z" fill="black"/>
<path opacity="0.1" d="M137.77 504.54L146.16 506.83L146.38 505.57C145.525 504.296 144.299 503.315 142.868 502.763C141.436 502.21 139.869 502.111 138.38 502.48L137.77 504.54Z" fill="black"/>
<path opacity="0.1" d="M274.28 500.13L284.28 505.52L284.56 503.34C281.319 501.466 277.943 499.835 274.46 498.46L274.28 500.13Z" fill="black"/>
<path opacity="0.1" d="M140.22 640.64C157.22 644.01 181.52 648.47 185.43 647.44C188.68 646.59 198.93 647.09 207.84 647.74C207.94 643.26 207.98 640.3 207.98 640.3L141.81 630.82C141.58 634.135 141.048 637.422 140.22 640.64V640.64Z" fill="black"/>
<path d="M123.29 635.96C123.29 635.96 179.35 647.82 185.48 646.21C191.61 644.6 222.63 647.79 222.63 647.79C236.26 657.71 230.95 643.65 230.95 643.65C230.95 643.65 232.46 636.47 230.95 630.56C229.983 626.231 229.377 621.829 229.14 617.4C229.14 617.4 229.81 608.18 228.2 605.97C226.59 603.76 225.2 588.29 225.2 588.29C225.2 588.29 224.07 577.78 224.31 575.48C224.55 573.18 224.19 566.69 224.19 566.69L222.6 555.85C234.19 554.76 270.08 534.58 270.08 534.58C272.08 527.42 285.77 511 285.77 511C286.016 509.585 286.432 508.205 287.01 506.89C288.01 504.47 274.38 499.02 274.38 499.02C274.38 499.02 263.57 511.23 261.33 514.53C259.09 517.83 251.42 523.85 251.42 523.85C250.278 523.691 249.115 523.797 248.02 524.16H247.84C245.341 525.046 242.983 526.289 240.84 527.85C237.376 527.634 233.963 528.77 231.32 531.02C231.32 531.02 225.05 529.86 223.94 530.89C222.83 531.92 217.48 530.64 217.48 530.64C217.48 530.64 212.48 519.06 208.87 522.23C205.26 525.4 190.2 524.67 190.2 524.67C188.31 521.93 183.51 519.84 180.51 518.74C177.953 517.771 175.158 517.618 172.51 518.3C171.361 518.583 170.269 519.059 169.28 519.71L159.84 528.27C159.84 528.27 157.35 524.79 157.69 524.03C158.03 523.27 154.69 522.53 154.69 522.53C154.69 522.53 150.28 520.97 148.61 520.45C146.94 519.93 145.31 521.69 145.17 521.85C145.933 519.692 146.273 517.407 146.17 515.12C145.82 512.18 148.22 509.65 148.22 509.65C143.35 496.22 130.78 506.83 130.78 506.83C130.78 506.83 129.11 514 130.24 516.83C131.37 519.66 128.68 525.39 128.92 526.94C129.16 528.49 128.15 531.07 128.04 533.99C127.93 536.91 129.25 542.51 130.04 544.99C130.83 547.47 138.04 553.31 138.04 553.31C138.04 553.31 138.17 562.09 141.2 567.31C144.23 572.53 141.57 589.81 141.57 589.81C141.57 589.81 137.97 603.22 133.96 607.38C129.95 611.54 123.29 635.96 123.29 635.96Z" fill="#656691"/>
<path opacity="0.1" d="M209.45 537.94C209.45 537.94 211.34 532.94 212.89 532.53C214.444 532.025 215.961 531.414 217.43 530.7L216.51 528.77C216.51 528.77 210.67 530.14 209.69 531.77C208.71 533.4 209.45 537.94 209.45 537.94Z" fill="black"/>
<path opacity="0.1" d="M240.79 527.91C241.04 529.46 254.67 531.37 254.67 531.37L248.02 524.16H247.85C245.326 525.059 242.948 526.322 240.79 527.91V527.91Z" fill="black"/>
<path d="M281.2 509.55C281.879 509.55 282.43 508.999 282.43 508.32C282.43 507.641 281.879 507.09 281.2 507.09C280.521 507.09 279.97 507.641 279.97 508.32C279.97 508.999 280.521 509.55 281.2 509.55Z" fill="#575988"/>
<path d="M279.53 511.95C280.209 511.95 280.76 511.399 280.76 510.72C280.76 510.041 280.209 509.49 279.53 509.49C278.851 509.49 278.3 510.041 278.3 510.72C278.3 511.399 278.851 511.95 279.53 511.95Z" fill="#575988"/>
<path d="M277.9 514.16C278.579 514.16 279.13 513.609 279.13 512.93C279.13 512.251 278.579 511.7 277.9 511.7C277.221 511.7 276.67 512.251 276.67 512.93C276.67 513.609 277.221 514.16 277.9 514.16Z" fill="#575988"/>
<path d="M276.2 516.56C276.879 516.56 277.43 516.009 277.43 515.33C277.43 514.651 276.879 514.1 276.2 514.1C275.521 514.1 274.97 514.651 274.97 515.33C274.97 516.009 275.521 516.56 276.2 516.56Z" fill="#575988"/>
<path d="M131.25 510.62C131.802 510.62 132.25 510.172 132.25 509.62C132.25 509.068 131.802 508.62 131.25 508.62C130.698 508.62 130.25 509.068 130.25 509.62C130.25 510.172 130.698 510.62 131.25 510.62Z" fill="#575988"/>
<path d="M131.01 512.88C131.562 512.88 132.01 512.432 132.01 511.88C132.01 511.328 131.562 510.88 131.01 510.88C130.458 510.88 130.01 511.328 130.01 511.88C130.01 512.432 130.458 512.88 131.01 512.88Z" fill="#575988"/>
<path d="M130.78 515.14C131.332 515.14 131.78 514.692 131.78 514.14C131.78 513.588 131.332 513.14 130.78 513.14C130.228 513.14 129.78 513.588 129.78 514.14C129.78 514.692 130.228 515.14 130.78 515.14Z" fill="#575988"/>
<path opacity="0.1" d="M207.77 579.61C207.92 579.44 171.57 621.88 145.63 595.55C145.63 595.55 187.93 602.95 207.77 579.61Z" fill="black"/>
<path opacity="0.1" d="M226.81 603.14C226.81 603.14 206.04 602.91 203.64 608.79L203.4 615C203.978 615.349 204.636 615.546 205.311 615.572C205.986 615.598 206.656 615.453 207.26 615.15C209.4 614.1 222.18 608.21 226.49 611.45L226.81 603.14Z" fill="black"/>
<path d="M226.42 603.12C226.42 603.12 206.57 602.9 204.27 608.51L204.04 614.43C204.592 614.765 205.221 614.954 205.867 614.978C206.513 615.003 207.154 614.862 207.73 614.57C209.73 613.57 222 607.96 226.12 611.04L226.42 603.12Z" fill="#656691"/>
<path opacity="0.1" d="M217.22 557.66C214.908 562.481 212.032 567.009 208.65 571.15C204.955 575.729 200.537 579.674 195.57 582.83C195.57 582.83 216.76 560.46 217.22 557.66Z" fill="black"/>
<path opacity="0.1" d="M224.93 533.82C224.93 533.82 220.93 548.63 211.78 553.36L224.93 533.82Z" fill="black"/>
<path opacity="0.1" d="M230.18 535.53C230.28 535.26 232.8 547.47 217.97 553.6C217.97 553.6 224.24 551.73 230.18 535.53Z" fill="black"/>
<path opacity="0.1" d="M139.99 522.03C140.22 522.03 132.62 526.48 130.52 528.59C130.57 528.59 135.62 521.55 139.99 522.03Z" fill="black"/>
<path d="M187.32 513.51C187.132 514.48 186.586 515.344 185.79 515.93C185.243 516.17 184.646 516.276 184.05 516.24C178.46 516.38 172.64 516.4 167.57 514.05C166.621 513.673 165.78 513.069 165.12 512.29C164.24 511.13 164.12 509.6 163.81 508.18C163.19 505.42 161.74 502.93 160.73 500.28C159.029 495.818 158.59 490.975 159.46 486.28C159.66 484.845 160.191 483.476 161.01 482.28C162.57 480.23 165.3 479.48 167.32 477.87C169.34 476.26 170.7 473.74 173.04 472.56C175.14 471.5 177.65 471.73 179.96 472.22C184.495 473.17 188.805 474.98 192.66 477.55C193.95 478.42 195.37 479.41 196.91 479.18C198.23 478.814 199.382 478.001 200.17 476.88C201.16 479.423 201.524 482.167 201.23 484.88C201.16 485.277 201.16 485.683 201.23 486.08C201.401 486.568 201.673 487.015 202.03 487.39C203.34 489.04 204.11 491.6 202.69 493.16C202.07 493.84 201.14 494.16 200.54 494.89C199.46 496.13 199.73 497.99 199.69 499.64C199.726 500.214 199.564 500.782 199.23 501.25C198.92 501.513 198.547 501.692 198.148 501.771C197.749 501.849 197.337 501.825 196.95 501.7C196.179 501.437 195.363 501.328 194.55 501.38C193.682 501.629 192.925 502.165 192.4 502.9C189.69 506.04 188.57 509.61 187.32 513.51Z" fill="#2D293D"/>
<g opacity="0.1">
<path opacity="0.1" d="M164.57 510.85C165.226 511.635 166.069 512.243 167.02 512.62C172.09 514.97 177.91 514.94 183.5 514.81C184.097 514.848 184.695 514.738 185.24 514.49C186.038 513.91 186.585 513.049 186.77 512.08C188 508.17 189.14 504.61 191.85 501.43C192.373 500.691 193.131 500.152 194 499.9C194.813 499.853 195.628 499.962 196.4 500.22C196.787 500.348 197.2 500.374 197.599 500.295C197.999 500.216 198.371 500.035 198.68 499.77C199.015 499.306 199.177 498.741 199.14 498.17C199.14 496.52 198.91 494.66 199.99 493.41C200.59 492.72 201.52 492.41 202.14 491.69C202.543 491.18 202.801 490.571 202.887 489.927C202.973 489.283 202.884 488.628 202.63 488.03C203.55 489.62 203.9 491.63 202.7 492.94C202.08 493.62 201.16 493.94 200.55 494.67C199.47 495.91 199.75 497.77 199.71 499.42C199.748 499.995 199.581 500.565 199.24 501.03C198.93 501.294 198.558 501.473 198.159 501.552C197.76 501.631 197.347 501.606 196.96 501.48C196.192 501.217 195.38 501.108 194.57 501.16C193.697 501.41 192.936 501.95 192.41 502.69C189.71 505.86 188.57 509.43 187.33 513.33C187.313 513.73 187.212 514.122 187.035 514.481C186.858 514.84 186.609 515.159 186.302 515.416C185.996 515.674 185.639 515.865 185.255 515.978C184.871 516.09 184.467 516.122 184.07 516.07C178.48 516.2 172.66 516.22 167.58 513.87C166.632 513.492 165.791 512.888 165.13 512.11C164.8 511.653 164.553 511.142 164.4 510.6C164.45 510.688 164.507 510.771 164.57 510.85V510.85Z" fill="black"/>
<path opacity="0.1" d="M201.19 485.56C200.942 485.271 200.764 484.929 200.67 484.56C200.6 484.163 200.6 483.757 200.67 483.36C200.912 481.122 200.708 478.859 200.07 476.7L200.17 476.59C201.169 479.131 201.536 481.876 201.24 484.59C201.194 484.911 201.178 485.236 201.19 485.56Z" fill="black"/>
</g>
<path opacity="0.1" d="M190.15 524.73C190.15 524.73 167.15 526.88 165.25 523.36Z" fill="black"/>
<path opacity="0.1" d="M146.08 513.56C146.08 513.56 133.37 513.09 130.4 517.74Z" fill="black"/>
</g>
<defs>
<linearGradient id="paint0_linear" x1="551.46" y1="688.44" x2="551.46" y2="150.11" gradientUnits="userSpaceOnUse">
<stop stop-color="#808080" stop-opacity="0.25"/>
<stop offset="0.54" stop-color="#808080" stop-opacity="0.12"/>
<stop offset="1" stop-color="#808080" stop-opacity="0.1"/>
</linearGradient>
<linearGradient id="paint1_linear" x1="204849" y1="332476" x2="204849" y2="182212" gradientUnits="userSpaceOnUse">
<stop stop-color="#808080" stop-opacity="0.25"/>
<stop offset="0.54" stop-color="#808080" stop-opacity="0.12"/>
<stop offset="1" stop-color="#808080" stop-opacity="0.1"/>
</linearGradient>
<linearGradient id="paint2_linear" x1="-171317" y1="329184" x2="-165470" y2="182997" gradientUnits="userSpaceOnUse">
<stop stop-color="#808080" stop-opacity="0.25"/>
<stop offset="0.54" stop-color="#808080" stop-opacity="0.12"/>
<stop offset="1" stop-color="#808080" stop-opacity="0.1"/>
</linearGradient>
</defs>
</svg>
