<svg width="8618" height="3791" viewBox="0 0 8618 3791" fill="none" xmlns="http://www.w3.org/2000/svg">
<path d="M6654 1275C6493 1217 6276 1197 6095 1223C6033 1232 5982 1235 5969 1230C5945 1221 5854 1122 5854 1105C5854 1090 5951 998 6004 963C6111 891 6235 856 6379 856C6506 856 6593 875 6699 925C6781 964 6904 1062 6904 1088C6904 1105 6775 1276 6750 1292C6734 1303 6727 1301 6654 1275Z" fill="#FFFFFF"/>
<path d="M7259 3778C7256 3771 7255 3362 7256 2870L7259 1975H7429H7599L7602 2048C7604 2087 7608 2120 7613 2120C7617 2120 7635 2102 7654 2079C7692 2031 7769 1980 7839 1956C7913 1930 8073 1924 8158 1944C8368 1994 8530 2161 8594 2393C8611 2456 8615 2502 8617 2652C8619 2818 8617 2842 8595 2915C8529 3142 8381 3295 8183 3344C8059 3375 7904 3360 7796 3308C7772 3297 7726 3263 7695 3234C7663 3205 7634 3183 7630 3187C7627 3190 7624 3322 7624 3480C7624 3689 7621 3769 7612 3778C7595 3795 7265 3795 7259 3778ZM8028 3068C8148 3038 8230 2913 8253 2725C8269 2593 8232 2423 8166 2330C8112 2252 8039 2216 7935 2215C7840 2215 7793 2231 7736 2283C7686 2330 7665 2368 7636 2460C7595 2593 7598 2725 7645 2867C7684 2986 7752 3050 7865 3074C7929 3088 7954 3087 8028 3068Z" fill="#FFFFFF"/>
<path d="M789 3363C542 3343 294 3199 153 2994C106 2925 57 2811 27 2703C2 2609 1 2593 0 2350C0 2134 2 2085 17 2031C49 1917 107 1818 213 1694C316 1574 479 1476 649 1430C816 1385 1070 1394 1218 1450C1246 1461 1272 1466 1277 1461C1282 1456 1266 1380 1240 1289C1215 1199 1172 1037 1144 930C1116 823 1055 587 1007 405C960 224 920 59 920 40L919 5L1122 2C1324 0 1324 0 1334 22C1339 35 1375 182 1414 350C1452 518 1501 729 1523 820C1544 911 1574 1038 1589 1104C1604 1169 1620 1218 1624 1214C1629 1209 1673 1043 1723 845C1827 431 1928 43 1939 18C1945 2 1965 0 2139 0C2281 0 2334 3 2342 13C2347 19 2395 201 2448 415C2571 919 2650 1230 2657 1236C2660 1239 2672 1197 2684 1143C2696 1089 2730 946 2759 825C2788 704 2823 556 2837 495C2915 161 2946 33 2953 20C2960 8 2995 5 3159 2L3356 0L3352 42C3349 66 3304 247 3250 445C3197 643 3155 814 3156 824C3158 839 3169 827 3196 783C3240 712 3350 605 3420 566C3447 551 3503 527 3544 512C3612 489 3633 486 3769 486C3934 486 3988 498 4104 563C4286 664 4420 915 4427 1166C4428 1217 4425 1262 4421 1267C4416 1271 4198 1277 3936 1280L3459 1285L3455 1310C3450 1348 3473 1440 3500 1487C3513 1510 3541 1542 3561 1560C3605 1596 3707 1630 3770 1630C3877 1630 3997 1577 4042 1510C4055 1491 4075 1470 4087 1463C4119 1445 4547 1445 4562 1463C4569 1471 4576 1590 4582 1788C4586 1959 4592 2102 4595 2104C4598 2107 4626 2085 4658 2054C4692 2021 4743 1985 4782 1967C4845 1937 4857 1935 4981 1932C5083 1929 5127 1932 5171 1945C5323 1989 5399 2063 5456 2220L5479 2285L5476 2800C5474 3140 5469 3319 5462 3327C5454 3337 5408 3340 5288 3340C5154 3340 5123 3337 5110 3324C5096 3311 5094 3260 5094 2917C5094 2410 5082 2333 4991 2266C4968 2249 4945 2244 4873 2241C4793 2238 4778 2241 4730 2264C4671 2293 4636 2336 4608 2415C4592 2459 4590 2513 4586 2885C4583 3249 4580 3307 4567 3323C4553 3338 4531 3340 4389 3340C4276 3340 4223 3336 4211 3328C4197 3317 4194 3293 4192 3195L4189 3075L4169 3115C4142 3172 4048 3260 3981 3293C3872 3346 3790 3360 3590 3360C3444 3360 3395 3356 3335 3340C3180 3300 3071 3225 3009 3117L2974 3055V3107C2974 3135 2981 3194 2989 3237C3003 3309 3003 3316 2987 3328C2966 3343 2662 3345 2634 3330C2623 3324 2612 3304 2608 3284C2604 3264 2596 3246 2588 3243C2581 3241 2552 3255 2522 3274C2421 3342 2364 3355 2153 3355H1968L1893 3318C1774 3259 1729 3203 1699 3078C1671 2959 1687 2822 1738 2741C1772 2688 1848 2621 1907 2595C1964 2569 2104 2540 2315 2511C2519 2484 2574 2449 2574 2350C2574 2267 2528 2220 2420 2195C2361 2181 2347 2181 2287 2195C2184 2219 2156 2242 2119 2335L2099 2385L2019 2393C1930 2402 1753 2397 1734 2385C1711 2371 1728 2276 1768 2196C1861 2007 2090 1913 2428 1926C2648 1934 2781 1978 2874 2071C2960 2159 2964 2179 2964 2535C2964 2827 2965 2841 2984 2860C3002 2878 3017 2880 3147 2880C3225 2880 3294 2884 3301 2888C3307 2892 3322 2921 3334 2952C3360 3022 3407 3064 3484 3087C3627 3129 3774 3088 3815 2995C3838 2943 3833 2912 3796 2874C3752 2830 3702 2811 3506 2764C3230 2698 3136 2660 3064 2587C2999 2522 2989 2489 2989 2350C2989 2229 2990 2223 3021 2165C3077 2058 3168 1995 3331 1948C3436 1918 3690 1916 3799 1944C4011 1999 4123 2099 4168 2274C4193 2370 4193 2370 3999 2370C3818 2370 3827 2373 3791 2300C3779 2275 3754 2245 3736 2233C3691 2203 3602 2186 3527 2193C3426 2203 3374 2241 3374 2306C3374 2382 3448 2423 3691 2480C3911 2532 3959 2547 4026 2582C4078 2610 4143 2667 4177 2714C4189 2730 4192 2711 4197 2574C4211 2238 4200 1810 4177 1810C4170 1810 4136 1822 4101 1836C3934 1906 3756 1928 3620 1896C3284 1817 3102 1602 3087 1267C3084 1202 3078 1147 3073 1144C3069 1142 3060 1156 3055 1177C3035 1248 2956 1565 2934 1660C2907 1777 2878 1861 2862 1872C2840 1886 2480 1882 2461 1868C2444 1855 2437 1827 2239 1030C2141 637 2144 646 2134 656C2130 661 2112 726 2094 800C2077 874 2029 1072 1988 1240C1947 1408 1897 1613 1878 1695C1838 1869 1831 1880 1749 1880C1686 1880 1682 1886 1700 1955C1717 2016 1718 2066 1703 2075C1695 2080 1404 2084 1322 2080C1318 2080 1297 2042 1274 1996C1216 1873 1140 1815 989 1775C749 1713 519 1862 443 2129C358 2427 431 2771 608 2913C711 2994 851 3033 966 3011C1094 2986 1175 2933 1245 2827C1291 2758 1308 2721 1318 2665C1322 2643 1330 2619 1336 2613C1344 2603 1394 2600 1524 2600C1670 2600 1704 2603 1714 2615C1741 2648 1697 2833 1627 2980C1598 3040 1572 3073 1500 3145C1396 3248 1329 3291 1211 3330C1140 3354 1110 3359 979 3362C897 3364 811 3365 789 3363ZM2419 3094C2529 3056 2584 2955 2584 2790C2584 2736 2580 2689 2575 2686C2570 2683 2542 2689 2513 2699C2483 2709 2432 2720 2399 2724C2309 2735 2193 2760 2164 2775C2089 2814 2045 2907 2065 2985C2077 3033 2122 3082 2169 3098C2217 3115 2364 3112 2419 3094ZM4044 1009C4044 965 3988 855 3946 819C3886 766 3806 747 3705 761C3592 777 3500 852 3467 956C3439 1045 3423 1040 3754 1040H4044V1009Z" fill="#FFFFFF"/>
<path d="M6219 3359C6061 3352 6009 3339 5889 3277C5738 3199 5632 3062 5582 2883C5560 2807 5560 2787 5556 2139C5553 1534 5554 1471 5569 1456C5583 1442 5613 1440 5773 1440C5891 1440 5964 1444 5971 1451C5978 1458 5980 1649 5976 2068C5973 2490 5975 2693 5983 2734C6015 2903 6107 2993 6279 3020C6457 3049 6639 2987 6694 2879C6741 2787 6744 2752 6745 2115C6746 1785 6749 1502 6753 1485L6759 1455L6948 1452C7083 1450 7140 1453 7151 1461C7163 1472 7165 1568 7162 2129C7158 2762 7157 2788 7137 2860C7092 3018 7022 3129 6919 3207C6746 3337 6573 3375 6219 3359Z" fill="#FFFFFF"/>
<path d="M5699 1010C5682 991 5681 987 5698 927C5733 802 5802 692 5907 593C6083 429 6283 355 6549 355C6707 356 6770 371 6913 441C7050 508 7161 614 7219 732C7240 774 7254 816 7251 824C7248 832 7232 847 7217 857C7202 866 7154 900 7112 932C7070 964 7031 990 7027 990C7022 990 7002 974 6983 954C6855 820 6662 748 6427 749C6194 749 5996 824 5813 982C5752 1034 5727 1041 5699 1010Z" fill="#FFFFFF"/>
<path d="M5549 943C5485 910 5481 902 5489 826C5514 565 5667 319 5899 165C5999 98 6070 66 6194 32C6280 8 6306 6 6459 6C6604 6 6641 9 6714 29C7019 111 7223 275 7355 545C7408 654 7424 721 7404 745C7381 772 7366 761 7311 677C7145 422 6914 284 6599 250C6308 218 6020 328 5811 549C5719 647 5662 751 5613 909C5597 961 5590 965 5549 943Z" fill="#FFFFFF"/>
</svg>
