<svg width="5726" height="3689" viewBox="0 0 5726 3689" fill="none" xmlns="http://www.w3.org/2000/svg">
<path d="M3466 3454C3291 3408 3136 3278 3051 3105C2977 2955 2982 3038 2978 1825L2976 735L2998 690C3030 627 3074 600 3146 600C3209 600 3252 622 3290 673C3311 701 3311 705 3316 1793L3321 2885L3348 2941C3430 3107 3602 3178 3749 3107C3846 3059 3917 2959 3936 2844C3942 2809 3946 2364 3946 1752C3946 608 3942 675 4010 627C4055 595 4167 595 4212 627C4280 676 4276 602 4276 1807C4276 2859 4275 2899 4256 2974C4197 3206 4012 3395 3786 3455C3716 3474 3539 3473 3466 3454Z" fill="#F0F4F8"/>
<path d="M77 3148C58 3135 33 3109 22 3090C0.999987 3055 0.999987 3047 0.999987 1965C0.999987 749 -3.00002 829 71 672C155 494 318 357 498 315C573 298 714 296 788 311C862 327 970 378 1042 433C1140 507 1226 632 1270 761C1304 866 1307 958 1304 2015C1301 3043 1301 3055 1280 3090C1269 3109 1244 3135 1225 3148C1196 3168 1181 3171 1124 3168C1066 3165 1052 3160 1025 3135C964 3077 966 3091 966 2610V2170H651H336V2611C336 3039 335 3053 315 3089C283 3146 250 3164 176 3168C121 3171 106 3168 77 3148ZM966 1393C966 1041 963 934 952 892C885 641 607 553 441 731C415 758 383 806 368 838L341 895L338 1368L335 1840H650H966V1393Z" fill="#F0F4F8"/>
<path d="M4626 3148C4608 3135 4583 3112 4572 3097L4551 3069V1957V845L4577 768C4648 559 4784 412 4974 337C5040 311 5068 306 5166 302C5359 295 5499 346 5631 471C5717 553 5730 579 5724 660C5720 709 5715 725 5690 751C5649 794 5614 810 5561 810C5501 810 5456 788 5419 742C5383 697 5305 653 5242 641C5096 614 4951 716 4902 880C4889 924 4886 991 4886 1251V1569L5074 1572C5253 1575 5262 1576 5295 1599C5334 1627 5365 1690 5366 1739C5366 1790 5330 1856 5288 1882C5254 1903 5238 1905 5069 1908L4886 1912L4884 2490C4881 3059 4881 3069 4860 3097C4822 3148 4779 3170 4716 3170C4673 3170 4651 3164 4626 3148Z" fill="#F0F4F8"/>
<path d="M2027 2854C1849 2806 1694 2675 1611 2505C1538 2352 1541 2405 1541 1435C1541 622 1542 561 1559 500C1599 358 1684 224 1785 143C1852 89 1980 26 2054 11C2128 -3.99996 2269 -1.99996 2344 15C2461 43 2608 135 2678 225C2729 290 2793 422 2818 515C2839 594 2840 605 2840 1445C2841 2392 2844 2343 2771 2498C2688 2674 2530 2807 2349 2854C2272 2874 2101 2874 2027 2854ZM2313 2504C2379 2472 2448 2396 2478 2322L2501 2265V1435V605L2478 548C2465 516 2433 466 2405 436C2253 269 2011 318 1908 538L1881 595V1430C1881 2377 1877 2324 1963 2420C2022 2486 2053 2507 2117 2525C2184 2543 2245 2537 2313 2504Z" fill="#F0F4F8"/>
<g opacity="0.6">
<path opacity="0.6" d="M976 3674C710 3604 515 3359 489 3064C482 2978 495 2935 539 2893C600 2835 685 2827 753 2873C799 2904 817 2943 827 3032C849 3221 975 3352 1137 3353C1294 3355 1423 3228 1448 3047C1463 2934 1465 2929 1500 2894C1579 2815 1716 2833 1767 2930C1793 2977 1792 3093 1766 3194C1707 3426 1522 3615 1296 3675C1226 3694 1049 3693 976 3674Z" fill="#F0F4F8"/>
<path opacity="0.6" d="M3549 929C3501 898 3486 867 3471 765C3454 656 3432 606 3369 539C3307 473 3249 447 3161 446C3008 445 2890 554 2851 732L2838 795L2837 694C2836 569 2811 463 2757 357L2718 279L2768 239C2828 192 2941 137 3016 119C3108 97.0001 3258 103 3352 134C3616 219 3806 482 3806 763C3806 854 3788 895 3732 929C3686 958 3593 958 3549 929Z" fill="#F0F4F8"/>
</g>
</svg>
