<svg width="225" height="72" viewBox="0 0 225 72" fill="none" xmlns="http://www.w3.org/2000/svg">
<path fill-rule="evenodd" clip-rule="evenodd" d="M179.628 41.7974C177.172 41.7974 174.716 41.7974 172.261 41.7974C172.06 41.2154 172.224 40.3003 172.171 39.5828C167.9 39.3159 164.198 39.7293 161.748 38.1068C160.894 37.5419 160.129 36.5926 159.322 35.811C157.707 34.2496 156.225 32.8107 154.56 31.137C153.536 30.1106 152.446 28.8894 150.966 28.6777C148.871 28.3776 145.995 28.6777 143.329 28.6777C140.666 28.6777 138.091 28.7409 135.961 28.5954C134.9 31.3728 132.725 33.8242 128.685 33.4339C125.508 33.1268 123.719 31.0217 123.023 28.2683C123.023 27.8589 123.023 27.4475 123.023 27.0381C123.565 23.8191 126.438 21.446 129.941 21.7069C132.066 21.8655 133.877 22.916 134.884 24.4131C135.306 25.0413 135.435 25.8009 135.961 26.4631C138.281 26.4752 140.819 26.8936 142.431 26.0527C143.247 25.6263 143.928 24.6449 144.676 23.9205C145.46 23.1649 146.248 22.4274 146.923 21.7892C148.466 20.3282 149.893 18.6706 151.414 17.4434C153.884 15.4506 157.462 15.6343 162.467 15.7215C163.096 14.0569 165.448 12.8427 167.588 13.5893C170.436 14.5817 170.791 18.7629 167.679 19.9861C166.082 20.6132 164.448 20.1627 163.546 19.4121C163.061 19.0087 162.948 18.2853 162.288 17.9361C159.83 18.2532 156.55 17.4093 154.472 18.1006C153.606 18.3876 152.818 19.2666 152.045 19.9861C149.756 22.1163 147.426 24.382 145.575 26.4641C158.783 26.6006 172.62 26.6006 185.827 26.4641C186.091 25.7477 185.742 24.4734 186.007 23.7579C188.444 25.0052 190.937 26.2022 193.196 27.612C190.814 28.9105 188.484 30.256 185.918 31.3849C185.87 30.4989 186.022 29.4322 185.827 28.6787C175.735 28.6787 165.642 28.6787 155.548 28.6787C155.471 29.1262 155.973 29.5316 156.267 29.8276C158.006 31.5685 159.787 33.1288 161.568 34.8286C162.288 35.516 162.969 36.42 163.724 36.7973C165.732 37.7957 169.226 37.1254 172.171 37.2057C172.171 36.4411 172.171 35.6755 172.171 34.9109C174.686 34.9651 177.441 34.8025 179.808 34.9932C179.54 37.0713 179.896 39.7183 179.628 41.7974Z" fill="white"/>
<path fill-rule="evenodd" clip-rule="evenodd" d="M43.4777 41.7973C45.934 41.7973 48.3904 41.7973 50.8448 41.7973C51.0464 41.2154 50.8819 40.3002 50.9351 39.5828C55.2056 39.3159 58.9082 39.7293 61.3576 38.1068C62.2125 37.5419 62.9771 36.5916 63.7838 35.81C65.3993 34.2496 66.8814 32.8097 68.546 31.136C69.5695 30.1095 70.6602 28.8884 72.1403 28.6767C74.2354 28.3766 77.1112 28.6767 79.7773 28.6767C82.4404 28.6767 85.0151 28.7409 87.1454 28.5944C88.206 31.3718 90.3814 33.8232 94.4212 33.4329C97.598 33.1268 99.3871 31.0206 100.083 28.2673C100.083 27.8579 100.083 27.4465 100.083 27.0381C99.5406 23.8181 96.6678 21.445 93.1649 21.7069C91.0396 21.8655 89.2285 22.916 88.222 24.4131C87.7996 25.0403 87.6712 25.8009 87.1454 26.4631C84.8245 26.4752 82.2868 26.8926 80.6753 26.0517C79.8586 25.6263 79.1782 24.6449 78.4297 23.9195C77.646 23.1649 76.8583 22.4264 76.183 21.7892C74.6398 20.3272 73.2129 18.6696 71.6917 17.4424C69.2223 15.4496 65.6441 15.6342 60.6391 15.7205C60.01 14.0559 57.658 12.8417 55.5177 13.5883C52.67 14.5807 52.3148 18.7609 55.4274 19.9841C57.0238 20.6112 58.6584 20.1607 59.5604 19.4101C60.0451 19.0067 60.1575 18.2833 60.8177 17.9341C63.2761 18.2512 66.5563 17.4073 68.6343 18.0986C69.5003 18.3866 70.288 19.2646 71.0606 19.9841C73.3504 22.1143 75.6803 24.38 77.5306 26.4631C64.3226 26.5986 50.4855 26.5986 37.2786 26.4631C37.0147 25.7457 37.3638 24.4723 37.0989 23.7569C34.6616 25.0032 32.1692 26.2012 29.9105 27.61C32.2916 28.9095 34.6215 30.254 37.1882 31.3829C37.2364 30.4969 37.0839 29.4312 37.2786 28.6767C47.3709 28.6767 57.4643 28.6767 67.5577 28.6767C67.6349 29.1252 67.1332 29.5296 66.8392 29.8256C65.1003 31.5675 63.3192 33.1278 61.5382 34.8266C60.8177 35.515 60.1374 36.418 59.3818 36.7963C57.374 37.7937 53.8801 37.1234 50.9351 37.2037C50.9351 36.4391 50.9351 35.6735 50.9351 34.9089C48.4195 34.9641 45.6651 34.8015 43.2981 34.9912C43.565 37.0702 43.2087 39.7183 43.4777 41.7973Z" fill="white"/>
<path d="M100.362 41.3488C105.099 41.3488 109.146 38.1359 111.369 35.9213C113.594 38.1359 117.63 41.3488 122.366 41.3488C130.521 41.3488 136.223 35.9344 136.223 28.187C136.223 19.6459 129.144 14.1241 122.303 8.78692C119.072 6.26534 115.724 3.66047 113.16 0.764604C112.728 0.280957 112.097 0 111.434 0H111.302C110.637 0 110.006 0.279953 109.573 0.764604C107.006 3.65545 103.661 6.26233 100.43 8.78492C93.5843 14.1231 86.5062 19.6429 86.5062 28.187C86.5072 35.9354 92.2036 41.3488 100.362 41.3488Z" fill="white"/>
<path d="M102.902 51.3138C108.544 50.3505 114.228 50.3906 119.827 51.3138C114.228 43.3005 111.365 27.7987 111.365 27.7987C111.365 27.7987 108.544 43.2995 102.902 51.3138Z" fill="white"/>
<path d="M11.907 71L10.416 67.157H3.90601L2.41501 71H0.588013L6.04801 56.552H8.31601L13.776 71H11.907ZM7.20301 58.505H7.09801L4.45201 65.456H9.84901L7.20301 58.505Z" fill="white"/>
<path d="M18.0869 71V58.295H13.5089V56.552H24.4499V58.295H19.8929V71H18.0869Z" fill="white"/>
<path d="M27.2016 71V56.552H36.6096V58.232H29.0076V62.873H35.6016V64.553H29.0076V69.32H36.6096V71H27.2016Z" fill="white"/>
<path d="M39.8754 71V56.552H41.6814V69.257H48.4224V71H39.8754Z" fill="white"/>
<path d="M51.1752 71V56.552H52.9812V71H51.1752Z" fill="white"/>
<path d="M57.184 71V56.552H66.592V58.232H58.99V62.873H65.584V64.553H58.99V69.32H66.592V71H57.184Z" fill="white"/>
<path d="M78.8038 71L76.5568 65.33H71.6638V71H69.8578V56.552H76.4938C77.6418 56.552 78.5098 56.734 79.0978 57.098C79.6858 57.462 80.0708 57.952 80.2528 58.568C80.4348 59.184 80.5258 59.975 80.5258 60.941C80.5258 61.935 80.3788 62.803 80.0848 63.545C79.7908 64.273 79.1888 64.77 78.2788 65.036L80.7358 71H78.8038ZM75.7378 63.65C76.6338 63.65 77.2918 63.559 77.7118 63.377C78.1458 63.181 78.4188 62.901 78.5308 62.537C78.6568 62.173 78.7198 61.641 78.7198 60.941C78.7198 60.227 78.6638 59.688 78.5518 59.324C78.4398 58.96 78.1808 58.687 77.7748 58.505C77.3828 58.323 76.7528 58.232 75.8848 58.232H71.6638V63.65H75.7378Z" fill="white"/>
<path d="M88.9813 71.168C88.2113 71.168 87.3503 71.14 86.3983 71.084C85.4603 71.028 84.6273 70.958 83.8993 70.874V69.215C85.7193 69.397 87.2383 69.488 88.4563 69.488C89.2123 69.488 89.8073 69.46 90.2413 69.404C90.6893 69.334 91.0673 69.215 91.3753 69.047C91.6553 68.879 91.8373 68.634 91.9213 68.312C92.0053 67.976 92.0473 67.535 92.0473 66.989C92.0473 66.331 92.0123 65.869 91.9423 65.603C91.8723 65.323 91.7043 65.12 91.4383 64.994C91.1863 64.868 90.7453 64.777 90.1153 64.721L86.5453 64.322C85.6773 64.224 85.0193 64.021 84.5713 63.713C84.1373 63.391 83.8433 62.978 83.6893 62.474C83.5493 61.956 83.4793 61.284 83.4793 60.458C83.4793 59.31 83.6753 58.442 84.0673 57.854C84.4733 57.266 85.0333 56.874 85.7473 56.678C86.4753 56.482 87.4483 56.384 88.6663 56.384C89.4783 56.384 90.3043 56.419 91.1443 56.489C91.9843 56.559 92.6493 56.643 93.1393 56.741V58.337C92.6073 58.253 91.9493 58.19 91.1653 58.148C90.3813 58.092 89.6533 58.064 88.9813 58.064C88.1973 58.064 87.5673 58.099 87.0913 58.169C86.6153 58.239 86.2443 58.358 85.9783 58.526C85.6843 58.694 85.4953 58.918 85.4113 59.198C85.3273 59.478 85.2853 59.877 85.2853 60.395C85.2853 60.969 85.3273 61.389 85.4113 61.655C85.4953 61.907 85.6563 62.096 85.8943 62.222C86.1323 62.334 86.5243 62.418 87.0703 62.474L90.5983 62.873C91.4383 62.957 92.0893 63.104 92.5513 63.314C93.0133 63.524 93.3493 63.902 93.5593 64.448C93.7553 64.952 93.8533 65.757 93.8533 66.863C93.8533 68.137 93.6573 69.089 93.2653 69.719C92.8733 70.335 92.3483 70.734 91.6903 70.916C91.0323 71.084 90.1293 71.168 88.9813 71.168Z" fill="white"/>
<path d="M111.1 70.895C110.666 70.979 110.12 71.042 109.462 71.084C108.818 71.14 108.216 71.168 107.656 71.168C105.92 71.168 104.653 70.979 103.855 70.601C103.057 70.223 102.518 69.537 102.238 68.543C101.972 67.535 101.839 65.946 101.839 63.776C101.839 61.62 101.972 60.038 102.238 59.03C102.518 58.022 103.057 57.329 103.855 56.951C104.653 56.573 105.92 56.384 107.656 56.384C108.23 56.384 108.832 56.412 109.462 56.468C110.092 56.524 110.61 56.601 111.016 56.699V58.274C109.966 58.134 109 58.064 108.118 58.064C106.648 58.064 105.619 58.176 105.031 58.4C104.457 58.624 104.079 59.107 103.897 59.849C103.715 60.591 103.624 61.9 103.624 63.776C103.624 65.652 103.715 66.961 103.897 67.703C104.079 68.445 104.457 68.928 105.031 69.152C105.619 69.376 106.648 69.488 108.118 69.488C109.196 69.488 110.19 69.418 111.1 69.278V70.895Z" fill="white"/>
<path d="M123.788 71V64.595H116.207V71H114.401V56.552H116.207V62.852H123.788V56.552H125.573V71H123.788Z" fill="white"/>
<path d="M139.589 71L138.098 67.157H131.588L130.097 71H128.27L133.73 56.552H135.998L141.458 71H139.589ZM134.885 58.505H134.78L132.134 65.456H137.531L134.885 58.505Z" fill="white"/>
<path d="M153.083 71L150.836 65.33H145.943V71H144.137V56.552H150.773C151.921 56.552 152.789 56.734 153.377 57.098C153.965 57.462 154.35 57.952 154.532 58.568C154.714 59.184 154.805 59.975 154.805 60.941C154.805 61.935 154.658 62.803 154.364 63.545C154.07 64.273 153.468 64.77 152.558 65.036L155.015 71H153.083ZM150.017 63.65C150.913 63.65 151.571 63.559 151.991 63.377C152.425 63.181 152.698 62.901 152.81 62.537C152.936 62.173 152.999 61.641 152.999 60.941C152.999 60.227 152.943 59.688 152.831 59.324C152.719 58.96 152.46 58.687 152.054 58.505C151.662 58.323 151.032 58.232 150.164 58.232H145.943V63.65H150.017Z" fill="white"/>
<path d="M161.56 71V58.295H156.982V56.552H167.923V58.295H163.366V71H161.56Z" fill="white"/>
<path d="M179.62 71L177.373 65.33H172.48V71H170.674V56.552H177.31C178.458 56.552 179.326 56.734 179.914 57.098C180.502 57.462 180.887 57.952 181.069 58.568C181.251 59.184 181.342 59.975 181.342 60.941C181.342 61.935 181.195 62.803 180.901 63.545C180.607 64.273 180.005 64.77 179.095 65.036L181.552 71H179.62ZM176.554 63.65C177.45 63.65 178.108 63.559 178.528 63.377C178.962 63.181 179.235 62.901 179.347 62.537C179.473 62.173 179.536 61.641 179.536 60.941C179.536 60.227 179.48 59.688 179.368 59.324C179.256 58.96 178.997 58.687 178.591 58.505C178.199 58.323 177.569 58.232 176.701 58.232H172.48V63.65H176.554Z" fill="white"/>
<path d="M184.989 71V56.552H194.397V58.232H186.795V62.873H193.389V64.553H186.795V69.32H194.397V71H184.989Z" fill="white"/>
<path d="M208.52 56.552V64.679C208.52 66.555 208.401 67.934 208.163 68.816C207.925 69.684 207.428 70.293 206.672 70.643C205.916 70.993 204.698 71.168 203.018 71.168C201.338 71.168 200.12 70.993 199.364 70.643C198.608 70.279 198.104 69.663 197.852 68.795C197.614 67.927 197.495 66.555 197.495 64.679V56.552H199.28V65.372C199.28 66.632 199.35 67.528 199.49 68.06C199.63 68.592 199.952 68.963 200.456 69.173C200.96 69.383 201.814 69.488 203.018 69.488C204.222 69.488 205.069 69.383 205.559 69.173C206.063 68.963 206.378 68.599 206.504 68.081C206.644 67.549 206.714 66.646 206.714 65.372V56.552H208.52Z" fill="white"/>
<path d="M221.896 71L217.591 65.309H217.423L213.118 71H211.06L216.457 63.755L211.144 56.552H213.286L217.486 62.117H217.654L221.875 56.552H223.954L218.641 63.692L224.017 71H221.896Z" fill="white"/>
</svg>
