<svg width="1098" height="747" viewBox="0 0 1098 747" fill="none" xmlns="http://www.w3.org/2000/svg">
<path d="M1065.19 506.454C1065.19 570.225 1027.28 592.491 980.517 592.491C933.752 592.491 895.841 570.225 895.841 506.454C895.841 442.682 980.517 361.556 980.517 361.556C980.517 361.556 1065.19 442.682 1065.19 506.454Z" fill="#E7EFFD"/>
<path d="M977.433 582.736L978.3 529.365L1014.39 463.338L978.436 520.993L978.826 496.995L1003.7 449.226L978.929 490.645L979.63 447.484L1006.27 409.453L979.74 440.697L980.178 361.556L977.425 466.325L977.651 462.003L950.571 420.552L977.217 470.3L974.694 518.503L974.619 517.223L943.4 473.602L974.524 521.743L974.209 527.771L974.152 527.862L974.178 528.357L967.776 650.653H976.329L977.355 587.485L1008.4 539.461L977.433 582.736Z" fill="#3F3D56"/>
<path opacity="0.1" d="M443.466 516.33C277.835 503.73 80.3127 375.443 90.3689 243.351C100.425 111.259 291.728 -11.7082 457.359 0.891373C622.99 13.491 718.333 260.349 708.277 392.441C698.22 524.534 609.097 528.929 443.466 516.33Z" fill="#4098D7"/>
<path d="M544.194 686C823.65 686 1050.19 672.121 1050.19 655C1050.19 637.879 823.65 624 544.194 624C264.737 624 38.1935 637.879 38.1935 655C38.1935 672.121 264.737 686 544.194 686Z" fill="#3F3D56"/>
<path opacity="0.1" d="M544.194 675C782.228 675 975.194 665.822 975.194 654.5C975.194 643.178 782.228 634 544.194 634C306.159 634 113.194 643.178 113.194 654.5C113.194 665.822 306.159 675 544.194 675Z" fill="black"/>
<path d="M927.194 61H175.194V651H927.194V61Z" fill="#3F3D56"/>
<path d="M542.638 141.629H357.12C356.824 141.63 356.531 141.572 356.257 141.459C355.984 141.346 355.735 141.181 355.525 140.971C355.316 140.762 355.15 140.514 355.036 140.24C354.923 139.967 354.864 139.674 354.864 139.378C354.864 139.082 354.923 138.789 355.036 138.515C355.15 138.242 355.316 137.993 355.525 137.784C355.735 137.575 355.984 137.409 356.257 137.296C356.531 137.183 356.824 137.126 357.12 137.126H542.638C543.234 137.128 543.806 137.365 544.227 137.787C544.648 138.209 544.885 138.781 544.885 139.378C544.885 139.974 544.648 140.546 544.227 140.968C543.806 141.39 543.234 141.628 542.638 141.629Z" fill="#F2F2F2"/>
<path d="M745.717 166.395H453.932C453.335 166.395 452.762 166.158 452.34 165.735C451.918 165.313 451.68 164.741 451.68 164.143C451.68 163.546 451.918 162.974 452.34 162.551C452.762 162.129 453.335 161.892 453.932 161.892H745.717C746.013 161.892 746.305 161.95 746.579 162.063C746.852 162.177 747.1 162.342 747.309 162.551C747.518 162.76 747.684 163.009 747.797 163.282C747.91 163.555 747.968 163.848 747.968 164.143C747.968 164.439 747.91 164.732 747.797 165.005C747.684 165.278 747.518 165.526 747.309 165.735C747.1 165.945 746.852 166.11 746.579 166.223C746.305 166.337 746.013 166.395 745.717 166.395Z" fill="#F2F2F2"/>
<path d="M543.539 191.161H358.021C357.424 191.161 356.851 190.923 356.429 190.501C356.007 190.079 355.77 189.506 355.77 188.909C355.77 188.312 356.007 187.739 356.429 187.317C356.851 186.895 357.424 186.658 358.021 186.658H543.539C544.136 186.658 544.708 186.895 545.131 187.317C545.553 187.739 545.79 188.312 545.79 188.909C545.79 189.506 545.553 190.079 545.131 190.501C544.708 190.923 544.136 191.161 543.539 191.161Z" fill="#F2F2F2"/>
<path d="M745.717 191.611H560.199C559.602 191.611 559.029 191.374 558.607 190.951C558.185 190.529 557.948 189.957 557.948 189.359C557.948 188.762 558.185 188.19 558.607 187.767C559.029 187.345 559.602 187.108 560.199 187.108H745.717C746.314 187.108 746.887 187.345 747.309 187.767C747.731 188.19 747.968 188.762 747.968 189.359C747.968 189.957 747.731 190.529 747.309 190.951C746.887 191.374 746.314 191.611 745.717 191.611Z" fill="#F2F2F2"/>
<path d="M543.989 215.926H358.471C357.874 215.926 357.301 215.689 356.879 215.267C356.457 214.845 356.22 214.272 356.22 213.675C356.22 213.078 356.457 212.505 356.879 212.083C357.301 211.661 357.874 211.423 358.471 211.423H543.989C544.586 211.423 545.159 211.661 545.581 212.083C546.003 212.505 546.24 213.078 546.24 213.675C546.24 214.272 546.003 214.845 545.581 215.267C545.159 215.689 544.586 215.926 543.989 215.926Z" fill="#F2F2F2"/>
<path d="M544.439 240.692H358.922C358.324 240.692 357.752 240.455 357.33 240.033C356.907 239.61 356.67 239.038 356.67 238.441C356.67 237.843 356.907 237.271 357.33 236.849C357.752 236.426 358.324 236.189 358.922 236.189H544.439C545.036 236.189 545.609 236.426 546.031 236.849C546.454 237.271 546.691 237.843 546.691 238.441C546.691 239.038 546.454 239.61 546.031 240.033C545.609 240.455 545.036 240.692 544.439 240.692Z" fill="#F2F2F2"/>
<path d="M628.643 142.079H575.509C574.912 142.079 574.339 141.842 573.917 141.42C573.495 140.998 573.258 140.425 573.258 139.828C573.258 139.231 573.495 138.658 573.917 138.236C574.339 137.814 574.912 137.577 575.509 137.577H628.643C629.24 137.577 629.812 137.814 630.235 138.236C630.657 138.658 630.894 139.231 630.894 139.828C630.894 140.425 630.657 140.998 630.235 141.42C629.812 141.842 629.24 142.079 628.643 142.079Z" fill="#F2F2F2"/>
<path d="M628.643 215.926H575.509C574.912 215.926 574.339 215.689 573.917 215.267C573.495 214.845 573.258 214.272 573.258 213.675C573.258 213.078 573.495 212.505 573.917 212.083C574.339 211.661 574.912 211.423 575.509 211.423H628.643C629.24 211.423 629.812 211.661 630.235 212.083C630.657 212.505 630.894 213.078 630.894 213.675C630.894 214.272 630.657 214.845 630.235 215.267C629.812 215.689 629.24 215.926 628.643 215.926Z" fill="#F2F2F2"/>
<path d="M628.643 240.242H575.509C575.213 240.242 574.92 240.185 574.646 240.072C574.372 239.959 574.123 239.793 573.914 239.584C573.704 239.375 573.538 239.126 573.425 238.853C573.311 238.58 573.253 238.286 573.253 237.99C573.253 237.694 573.311 237.401 573.425 237.128C573.538 236.854 573.704 236.606 573.914 236.397C574.123 236.187 574.372 236.022 574.646 235.909C574.92 235.796 575.213 235.738 575.509 235.739H628.643C628.939 235.738 629.232 235.796 629.506 235.909C629.779 236.022 630.028 236.187 630.238 236.397C630.447 236.606 630.614 236.854 630.727 237.128C630.84 237.401 630.899 237.694 630.899 237.99C630.899 238.286 630.84 238.58 630.727 238.853C630.614 239.126 630.447 239.375 630.238 239.584C630.028 239.793 629.779 239.959 629.506 240.072C629.232 240.185 628.939 240.242 628.643 240.242Z" fill="#F2F2F2"/>
<path d="M717.799 240.242H664.666C664.069 240.24 663.498 240.003 663.077 239.581C662.655 239.159 662.419 238.587 662.419 237.99C662.419 237.394 662.655 236.822 663.077 236.4C663.498 235.978 664.069 235.74 664.666 235.739H717.799C718.095 235.738 718.389 235.796 718.662 235.909C718.936 236.022 719.185 236.187 719.394 236.397C719.604 236.606 719.77 236.854 719.884 237.128C719.997 237.401 720.055 237.694 720.055 237.99C720.055 238.286 719.997 238.58 719.884 238.853C719.77 239.126 719.604 239.375 719.394 239.584C719.185 239.793 718.936 239.959 718.662 240.072C718.389 240.185 718.095 240.242 717.799 240.242Z" fill="#F2F2F2"/>
<path d="M409.804 166.395H356.67C356.073 166.395 355.5 166.158 355.078 165.735C354.656 165.313 354.419 164.741 354.419 164.143C354.419 163.546 354.656 162.974 355.078 162.551C355.5 162.129 356.073 161.892 356.67 161.892H409.804C410.401 161.892 410.974 162.129 411.396 162.551C411.818 162.974 412.055 163.546 412.055 164.143C412.055 164.741 411.818 165.313 411.396 165.735C410.974 166.158 410.401 166.395 409.804 166.395Z" fill="#F2F2F2"/>
<path d="M442.261 422.063H627.778C628.075 422.062 628.368 422.12 628.642 422.233C628.915 422.346 629.164 422.511 629.374 422.721C629.583 422.93 629.749 423.178 629.863 423.452C629.976 423.725 630.035 424.018 630.035 424.314C630.035 424.61 629.976 424.904 629.863 425.177C629.749 425.45 629.583 425.699 629.374 425.908C629.164 426.117 628.915 426.283 628.642 426.396C628.368 426.509 628.075 426.566 627.778 426.566H442.261C441.664 426.564 441.093 426.327 440.672 425.905C440.251 425.483 440.014 424.911 440.014 424.314C440.014 423.718 440.251 423.146 440.672 422.724C441.093 422.302 441.664 422.064 442.261 422.063Z" fill="#F2F2F2"/>
<path d="M356.67 397.297H648.455C649.052 397.297 649.625 397.534 650.047 397.957C650.469 398.379 650.707 398.951 650.707 399.549C650.707 400.146 650.469 400.718 650.047 401.141C649.625 401.563 649.052 401.8 648.455 401.8H356.67C356.374 401.8 356.082 401.742 355.809 401.629C355.535 401.515 355.287 401.35 355.078 401.141C354.869 400.931 354.703 400.683 354.59 400.41C354.477 400.137 354.419 399.844 354.419 399.549C354.419 399.253 354.477 398.96 354.59 398.687C354.703 398.414 354.869 398.166 355.078 397.957C355.287 397.747 355.535 397.582 355.809 397.469C356.082 397.355 356.374 397.297 356.67 397.297Z" fill="#F2F2F2"/>
<path d="M558.848 372.531H744.366C744.963 372.531 745.536 372.769 745.958 373.191C746.38 373.613 746.618 374.186 746.618 374.783C746.618 375.38 746.38 375.953 745.958 376.375C745.536 376.797 744.963 377.034 744.366 377.034H558.848C558.251 377.034 557.679 376.797 557.256 376.375C556.834 375.953 556.597 375.38 556.597 374.783C556.597 374.186 556.834 373.613 557.256 373.191C557.679 372.769 558.251 372.531 558.848 372.531Z" fill="#F2F2F2"/>
<path d="M356.67 372.081H542.188C542.785 372.081 543.358 372.318 543.78 372.741C544.202 373.163 544.439 373.735 544.439 374.333C544.439 374.93 544.202 375.502 543.78 375.925C543.358 376.347 542.785 376.584 542.188 376.584H356.67C356.073 376.584 355.5 376.347 355.078 375.925C354.656 375.502 354.419 374.93 354.419 374.333C354.419 373.735 354.656 373.163 355.078 372.741C355.5 372.318 356.073 372.081 356.67 372.081Z" fill="#F2F2F2"/>
<path d="M440.91 347.766H626.428C627.025 347.766 627.597 348.003 628.02 348.425C628.442 348.847 628.679 349.42 628.679 350.017C628.679 350.614 628.442 351.187 628.02 351.609C627.597 352.031 627.025 352.269 626.428 352.269H440.91C440.313 352.269 439.74 352.031 439.318 351.609C438.896 351.187 438.658 350.614 438.658 350.017C438.658 349.42 438.896 348.847 439.318 348.425C439.74 348.003 440.313 347.766 440.91 347.766Z" fill="#F2F2F2"/>
<path d="M440.46 323H625.977C626.574 323 627.147 323.237 627.569 323.659C627.992 324.082 628.229 324.654 628.229 325.251C628.229 325.849 627.992 326.421 627.569 326.843C627.147 327.266 626.574 327.503 625.977 327.503H440.46C439.863 327.503 439.29 327.266 438.868 326.843C438.445 326.421 438.208 325.849 438.208 325.251C438.208 324.654 438.445 324.082 438.868 323.659C439.29 323.237 439.863 323 440.46 323Z" fill="#F2F2F2"/>
<path d="M356.256 421.613H409.39C409.987 421.613 410.56 421.85 410.982 422.272C411.404 422.694 411.641 423.267 411.641 423.864C411.641 424.461 411.404 425.034 410.982 425.456C410.56 425.878 409.987 426.115 409.39 426.115H356.256C355.659 426.115 355.086 425.878 354.664 425.456C354.242 425.034 354.005 424.461 354.005 423.864C354.005 423.267 354.242 422.694 354.664 422.272C355.086 421.85 355.659 421.613 356.256 421.613Z" fill="#F2F2F2"/>
<path d="M356.256 347.766H409.39C409.987 347.766 410.56 348.003 410.982 348.425C411.404 348.847 411.641 349.42 411.641 350.017C411.641 350.614 411.404 351.187 410.982 351.609C410.56 352.031 409.987 352.269 409.39 352.269H356.256C355.659 352.269 355.086 352.031 354.664 351.609C354.242 351.187 354.005 350.614 354.005 350.017C354.005 349.42 354.242 348.847 354.664 348.425C355.086 348.003 355.659 347.766 356.256 347.766Z" fill="#F2F2F2"/>
<path d="M356.256 323.45H409.39C409.686 323.45 409.979 323.507 410.253 323.62C410.527 323.733 410.775 323.899 410.985 324.108C411.195 324.317 411.361 324.566 411.474 324.839C411.588 325.113 411.646 325.406 411.646 325.702C411.646 325.998 411.588 326.291 411.474 326.564C411.361 326.838 411.195 327.086 410.985 327.295C410.775 327.505 410.527 327.67 410.253 327.783C409.979 327.896 409.686 327.954 409.39 327.953H356.256C355.96 327.954 355.667 327.896 355.393 327.783C355.119 327.67 354.871 327.505 354.661 327.295C354.452 327.086 354.285 326.838 354.172 326.564C354.058 326.291 354 325.998 354 325.702C354 325.406 354.058 325.113 354.172 324.839C354.285 324.566 354.452 324.317 354.661 324.108C354.871 323.899 355.119 323.733 355.393 323.62C355.667 323.507 355.96 323.45 356.256 323.45Z" fill="#F2F2F2"/>
<path d="M692.583 397.297H745.717C746.314 397.297 746.887 397.534 747.309 397.957C747.731 398.379 747.968 398.951 747.968 399.549C747.968 400.146 747.731 400.718 747.309 401.141C746.887 401.563 746.314 401.8 745.717 401.8H692.583C691.986 401.8 691.413 401.563 690.991 401.141C690.569 400.718 690.332 400.146 690.332 399.549C690.332 398.951 690.569 398.379 690.991 397.957C691.413 397.534 691.986 397.297 692.583 397.297Z" fill="#F2F2F2"/>
<path d="M542.863 506.361H357.346C356.748 506.361 356.176 506.123 355.754 505.701C355.331 505.279 355.094 504.706 355.094 504.109C355.094 503.512 355.331 502.939 355.754 502.517C356.176 502.095 356.748 501.858 357.346 501.858H542.863C543.46 501.858 544.033 502.095 544.455 502.517C544.878 502.939 545.115 503.512 545.115 504.109C545.115 504.706 544.878 505.279 544.455 505.701C544.033 506.123 543.46 506.361 542.863 506.361Z" fill="#F2F2F2"/>
<path d="M541.963 555.892H356.445C355.848 555.892 355.275 555.655 354.853 555.233C354.431 554.81 354.194 554.238 354.194 553.641C354.194 553.043 354.431 552.471 354.853 552.049C355.275 551.626 355.848 551.389 356.445 551.389H541.963C542.56 551.389 543.132 551.626 543.555 552.049C543.977 552.471 544.214 553.043 544.214 553.641C544.214 554.238 543.977 554.81 543.555 555.233C543.132 555.655 542.56 555.892 541.963 555.892Z" fill="#F2F2F2"/>
<path d="M542.413 580.658H356.895C356.599 580.658 356.306 580.601 356.032 580.488C355.759 580.375 355.51 580.209 355.3 580C355.091 579.791 354.924 579.542 354.811 579.269C354.697 578.996 354.639 578.702 354.639 578.406C354.639 578.11 354.697 577.817 354.811 577.544C354.924 577.27 355.091 577.022 355.3 576.813C355.51 576.604 355.759 576.438 356.032 576.325C356.306 576.212 356.599 576.154 356.895 576.155H542.413C542.709 576.154 543.002 576.212 543.276 576.325C543.55 576.438 543.798 576.604 544.008 576.813C544.218 577.022 544.384 577.27 544.497 577.544C544.611 577.817 544.669 578.11 544.669 578.406C544.669 578.702 544.611 578.996 544.497 579.269C544.384 579.542 544.218 579.791 544.008 580C543.798 580.209 543.55 580.375 543.276 580.488C543.002 580.601 542.709 580.658 542.413 580.658Z" fill="#F2F2F2"/>
<path d="M621.663 556.342H568.53C567.932 556.342 567.36 556.105 566.938 555.683C566.515 555.261 566.278 554.688 566.278 554.091C566.278 553.494 566.515 552.921 566.938 552.499C567.36 552.077 567.932 551.839 568.53 551.839H621.663C622.26 551.839 622.833 552.077 623.255 552.499C623.677 552.921 623.915 553.494 623.915 554.091C623.915 554.688 623.677 555.261 623.255 555.683C622.833 556.105 622.26 556.342 621.663 556.342Z" fill="#F2F2F2"/>
<path d="M621.663 580.658H568.53C567.932 580.658 567.36 580.421 566.938 579.998C566.515 579.576 566.278 579.003 566.278 578.406C566.278 577.809 566.515 577.236 566.938 576.814C567.36 576.392 567.932 576.155 568.53 576.155H621.663C622.26 576.155 622.833 576.392 623.255 576.814C623.677 577.236 623.915 577.809 623.915 578.406C623.915 579.003 623.677 579.576 623.255 579.998C622.833 580.421 622.26 580.658 621.663 580.658Z" fill="#F2F2F2"/>
<path d="M710.82 556.342H657.686C657.089 556.342 656.516 556.105 656.094 555.683C655.672 555.261 655.435 554.688 655.435 554.091C655.435 553.494 655.672 552.921 656.094 552.499C656.516 552.077 657.089 551.839 657.686 551.839H710.82C711.417 551.839 711.99 552.077 712.412 552.499C712.834 552.921 713.071 553.494 713.071 554.091C713.071 554.688 712.834 555.261 712.412 555.683C711.99 556.105 711.417 556.342 710.82 556.342Z" fill="#F2F2F2"/>
<path d="M745.942 531.126H454.157C453.56 531.126 452.987 530.889 452.565 530.467C452.143 530.045 451.906 529.472 451.906 528.875C451.906 528.278 452.143 527.705 452.565 527.283C452.987 526.861 453.56 526.623 454.157 526.623H745.942C746.539 526.623 747.112 526.861 747.534 527.283C747.956 527.705 748.194 528.278 748.194 528.875C748.194 529.472 747.956 530.045 747.534 530.467C747.112 530.889 746.539 531.126 745.942 531.126Z" fill="#F2F2F2"/>
<path d="M410.029 531.126H356.895C356.298 531.126 355.725 530.889 355.303 530.467C354.881 530.045 354.644 529.472 354.644 528.875C354.644 528.278 354.881 527.705 355.303 527.283C355.725 526.861 356.298 526.623 356.895 526.623H410.029C410.626 526.623 411.199 526.861 411.621 527.283C412.043 527.705 412.28 528.278 412.28 528.875C412.28 529.472 412.043 530.045 411.621 530.467C411.199 530.889 410.626 531.126 410.029 531.126Z" fill="#F2F2F2"/>
<path d="M745.942 605.874H454.157C453.861 605.874 453.568 605.817 453.294 605.704C453.02 605.591 452.771 605.425 452.562 605.216C452.352 605.007 452.186 604.758 452.073 604.485C451.959 604.212 451.901 603.918 451.901 603.622C451.901 603.326 451.959 603.033 452.073 602.76C452.186 602.486 452.352 602.238 452.562 602.029C452.771 601.82 453.02 601.654 453.294 601.541C453.568 601.428 453.861 601.37 454.157 601.371H745.942C746.539 601.371 747.112 601.608 747.534 602.03C747.956 602.453 748.194 603.025 748.194 603.622C748.194 604.219 747.956 604.792 747.534 605.214C747.112 605.637 746.539 605.874 745.942 605.874Z" fill="#F2F2F2"/>
<path d="M410.029 605.874H356.895C356.599 605.874 356.306 605.817 356.032 605.704C355.759 605.591 355.51 605.425 355.3 605.216C355.091 605.007 354.924 604.758 354.811 604.485C354.697 604.212 354.639 603.918 354.639 603.622C354.639 603.326 354.697 603.033 354.811 602.76C354.924 602.486 355.091 602.238 355.3 602.029C355.51 601.82 355.759 601.654 356.032 601.541C356.306 601.428 356.599 601.37 356.895 601.371H410.029C410.325 601.37 410.618 601.428 410.892 601.541C411.166 601.654 411.414 601.82 411.624 602.029C411.834 602.238 412 602.486 412.113 602.76C412.227 603.033 412.285 603.326 412.285 603.622C412.285 603.918 412.227 604.212 412.113 604.485C412 604.758 411.834 605.007 411.624 605.216C411.414 605.425 411.166 605.591 410.892 605.704C410.618 605.817 410.325 605.874 410.029 605.874Z" fill="#F2F2F2"/>
<path d="M195.194 85C200.164 85 204.194 80.9706 204.194 76C204.194 71.0294 200.164 67 195.194 67C190.223 67 186.194 71.0294 186.194 76C186.194 80.9706 190.223 85 195.194 85Z" fill="#4098D7"/>
<path d="M219.194 85C224.164 85 228.194 80.9706 228.194 76C228.194 71.0294 224.164 67 219.194 67C214.223 67 210.194 71.0294 210.194 76C210.194 80.9706 214.223 85 219.194 85Z" fill="#4098D7"/>
<path d="M243.194 85C248.164 85 252.194 80.9706 252.194 76C252.194 71.0294 248.164 67 243.194 67C238.223 67 234.194 71.0294 234.194 76C234.194 80.9706 238.223 85 243.194 85Z" fill="#4098D7"/>
<path opacity="0.1" d="M927.194 91H175.194V94H927.194V91Z" fill="black"/>
<path d="M212.194 747C329.385 747 424.387 738.717 424.387 728.5C424.387 718.283 329.385 710 212.194 710C95.0023 710 0 718.283 0 728.5C0 738.717 95.0023 747 212.194 747Z" fill="#3F3D56"/>
<path opacity="0.1" d="M212.194 740.435C312.015 740.435 392.935 734.958 392.935 728.202C392.935 721.445 312.015 715.968 212.194 715.968C112.373 715.968 31.4516 721.445 31.4516 728.202C31.4516 734.958 112.373 740.435 212.194 740.435Z" fill="black"/>
<path d="M122.622 643.091C120.024 644.538 117.283 645.712 114.444 646.594C109.365 647.981 103.936 647.472 98.8064 648.657C96.706 649.142 94.4201 650.156 93.7521 652.205C93.2622 653.709 93.7952 655.332 94.3056 656.829C99.9741 673.448 103.391 691.095 112.431 706.149C116.23 712.472 120.945 718.197 126.423 723.137C128.479 724.989 130.808 726.801 133.559 727.092C134.827 727.226 136.108 727.023 137.272 726.503C138.437 725.984 139.444 725.167 140.191 724.134C140.939 723.101 141.401 721.889 141.53 720.621C141.66 719.352 141.453 718.072 140.929 716.91C140.119 715.108 138.612 713.713 137.64 711.994C136.587 709.804 135.969 707.429 135.821 705.003C134.928 697.895 134.067 690.466 136.53 683.738C138.182 679.226 141.212 675.379 143.737 671.291C146.261 667.202 148.358 662.519 147.797 657.747C147.413 654.49 145.825 651.51 144.147 648.693C142.465 645.87 139.142 638.284 135.764 637.342C132.257 636.364 125.68 641.524 122.622 643.091Z" fill="#2F2E41"/>
<path d="M215.057 700.5C215.109 702.108 214.885 703.713 214.393 705.245C213.336 708.038 210.712 709.951 209.357 712.612C207.472 716.313 208.326 720.786 209.575 724.747C210.358 727.23 211.385 729.814 213.488 731.35C215.286 732.464 217.331 733.119 219.442 733.257C237.478 735.753 255.8 734.321 274 734.844C277.317 734.939 280.83 735.055 283.725 733.434C286.621 731.813 288.411 727.737 286.442 725.066C284.673 722.668 281.177 722.69 278.2 722.549C270.448 722.155 263.067 719.114 257.287 713.934C256.147 712.96 255.158 711.822 254.353 710.557C253.734 709.435 253.221 708.257 252.819 707.04C250.268 700.128 247.232 693.406 243.736 686.921C242.757 685.106 241.649 683.216 239.83 682.245C238.498 681.639 237.053 681.324 235.59 681.319C231.054 681.025 219.307 679.481 215.799 683.009C212.558 686.268 215.128 696.36 215.057 700.5Z" fill="#2F2E41"/>
<path d="M242.971 297.695C258.973 297.695 271.946 284.723 271.946 268.72C271.946 252.718 258.973 239.745 242.971 239.745C226.968 239.745 213.996 252.718 213.996 268.72C213.996 284.723 226.968 297.695 242.971 297.695Z" fill="#FBBEBE"/>
<path d="M216.806 292.646C215.082 297.26 212.159 301.593 207.905 304.076L247.98 312.25C246.526 306.402 246.335 300.31 247.418 294.381C247.816 292.946 247.898 291.442 247.658 289.972C246.904 287.065 243.631 285.666 240.703 284.998C233.389 283.331 226.921 282.437 220.124 279.206C218.047 282.763 218.337 288.545 216.806 292.646Z" fill="#FBBEBE"/>
<path d="M207.571 293.227C211.882 291.276 216.579 290.327 221.309 290.45C226.039 290.574 230.68 291.767 234.884 293.941C240.022 296.648 244.276 300.735 248.455 304.767C252.308 308.484 256.418 312.739 256.691 318.086C256.824 320.676 256.015 323.208 255.607 325.769C254.874 331.066 255.806 336.459 258.275 341.202C260.744 345.945 264.628 349.802 269.387 352.239C272.571 357.542 273.228 363.968 273.277 370.153C273.462 393.589 266.067 417.314 271.346 440.148C272.586 445.51 274.508 450.702 275.578 456.1C276.965 463.091 276.897 470.279 277.622 477.369C278.409 485.047 280.126 492.601 282.736 499.865C280.992 502.639 277.362 503.702 274.093 503.478C270.825 503.253 267.768 501.834 264.851 500.342C250.728 493.115 237.792 483.585 223.164 477.442C213.487 473.379 203.177 470.847 193.789 466.154C184.4 461.461 175.669 454.012 172.798 443.916C171.557 439.551 171.48 434.951 171.413 430.413C171.127 411.299 170.862 391.977 175.023 373.319C178.692 356.866 185.764 341.125 187.307 324.338C187.809 318.874 187.82 313.025 190.873 308.465C195.188 302.02 204.505 300.351 207.571 293.227Z" fill="#2F2E41"/>
<path d="M226.492 269.129C228.199 266.903 231.492 266.599 234.219 267.258C236.947 267.916 239.462 269.322 242.217 269.856C242.843 270.034 243.499 270.079 244.144 269.988C244.789 269.898 245.407 269.674 245.96 269.33C246.923 268.382 247.499 267.109 247.576 265.76C248.54 260.019 248.766 254.178 248.246 248.38C248.103 247.566 248.157 246.73 248.405 245.942C249.087 244.299 251.168 243.908 252.867 243.38C255.671 242.433 258.079 240.578 259.711 238.109C261.343 235.64 262.106 232.698 261.88 229.747C261.838 228.332 261.243 226.989 260.223 226.007C259.048 225.049 257.403 224.99 255.887 224.978C248.099 224.916 240.31 224.917 232.521 224.984C229.638 225.008 226.61 225.079 224.111 226.516C222.264 227.579 220.89 229.289 219.231 230.628C214.905 234.119 209.053 234.829 203.79 236.619C201.22 237.35 198.887 238.742 197.022 240.654C195.272 242.654 194.43 245.628 195.53 248.047C196.094 249.055 196.724 250.025 197.416 250.951C200.521 255.915 198.454 262.354 198.918 268.191C199.497 275.479 210.283 287.302 217.597 289.027C229.404 291.811 222.583 273.914 226.492 269.129Z" fill="#2F2E41"/>
<path d="M210.134 588.683C210.879 594.004 211.835 599.344 211.58 604.712C211.223 612.206 208.52 619.426 208.021 626.911C207.648 632.502 208.511 638.153 207.734 643.703C207.237 647.256 206.078 650.681 205.361 654.196C204.225 659.925 204.257 665.824 205.455 671.54C206.654 677.256 208.993 682.672 212.334 687.462C212.825 688.282 213.523 688.958 214.358 689.423C215.158 689.719 216.015 689.833 216.865 689.755C225.299 689.583 233.71 688.819 242.036 687.467C242.645 687.442 243.223 687.187 243.652 686.754C243.84 686.467 243.96 686.141 244.003 685.8C245.547 677.864 242.026 669.907 241.131 661.872C240.175 653.292 242.234 644.694 244.277 636.307C245.204 632.169 246.361 628.087 247.744 624.079C248.732 621.382 249.925 618.758 250.781 616.016C251.994 611.709 252.732 607.282 252.983 602.814C253.577 595.764 253.892 588.697 253.928 581.615C254.13 574.903 253.571 568.191 252.263 561.605C250.385 553.267 246.539 545.524 242.727 537.875C240.688 538.363 238.775 539.273 237.109 540.545C232.196 543.726 227.067 546.56 221.759 549.025C218.192 550.682 211.237 551.859 208.973 555.311C206.741 558.716 208.181 565.662 208.352 569.417C208.645 575.862 209.239 582.284 210.134 588.683Z" fill="#2F2E41"/>
<path opacity="0.1" d="M210.134 588.683C210.879 594.004 211.835 599.344 211.58 604.712C211.223 612.206 208.52 619.426 208.021 626.911C207.648 632.502 208.511 638.153 207.734 643.703C207.237 647.256 206.078 650.681 205.361 654.196C204.225 659.925 204.257 665.824 205.455 671.54C206.654 677.256 208.993 682.672 212.334 687.462C212.825 688.282 213.523 688.958 214.358 689.423C215.158 689.719 216.015 689.833 216.865 689.755C225.299 689.583 233.71 688.819 242.036 687.467C242.645 687.442 243.223 687.187 243.652 686.754C243.84 686.467 243.96 686.141 244.003 685.8C245.547 677.864 242.026 669.907 241.131 661.872C240.175 653.292 242.234 644.694 244.277 636.307C245.204 632.169 246.361 628.087 247.744 624.079C248.732 621.382 249.925 618.758 250.781 616.016C251.994 611.709 252.732 607.282 252.983 602.814C253.577 595.764 253.892 588.697 253.928 581.615C254.13 574.903 253.571 568.191 252.263 561.605C250.385 553.267 246.539 545.524 242.727 537.875C240.688 538.363 238.775 539.273 237.109 540.545C232.196 543.726 227.067 546.56 221.759 549.025C218.192 550.682 211.237 551.859 208.973 555.311C206.741 558.716 208.181 565.662 208.352 569.417C208.645 575.862 209.239 582.284 210.134 588.683Z" fill="black"/>
<path d="M170.961 475.018C167.113 485.377 172.769 496.572 177.683 506.47C189.789 530.856 198.196 556.878 206.558 582.787C207.184 584.728 207.81 586.846 207.112 588.762C206.509 590.123 205.53 591.284 204.29 592.109C198.524 596.488 191.183 598.047 184.315 600.338C177.678 602.554 171.321 605.534 165.372 609.218C160.396 612.302 155.733 615.862 151.081 619.416L136.269 630.728C135.31 631.376 134.472 632.188 133.793 633.125C132.364 635.366 132.949 638.292 133.661 640.853C135.544 647.634 137.969 654.253 140.913 660.645C141.397 662.046 142.319 663.255 143.543 664.092C145.855 665.334 148.682 663.687 150.448 661.745C152.213 659.803 153.74 657.386 156.229 656.552C158.715 655.719 161.451 656.728 164.047 656.363C168.245 655.774 171.033 651.906 174.059 648.937C186.425 636.805 207.069 637.686 220.672 626.96C222.638 625.2 224.72 623.574 226.903 622.092C229.202 620.733 231.81 619.987 234.196 618.785C241.453 615.131 246.015 607.577 248.458 599.828C250.902 592.08 251.599 583.901 253.355 575.968C254.263 571.867 255.458 567.81 255.862 563.629C256.122 559.741 256.037 555.837 255.609 551.963L250.701 491.248C250.301 486.304 249.901 481.355 249.125 476.457C234.548 476.978 219.982 477.565 205.397 477.737C193.792 477.874 181.973 478.686 170.961 475.018Z" fill="#2F2E41"/>
<path d="M165.603 489.221C167.58 492.401 172.393 492.335 175.707 490.592C179.021 488.848 181.596 485.919 184.917 484.191C189.381 481.868 194.664 481.955 199.694 482.097C207.657 482.322 215.719 482.562 223.381 484.744C231.305 487.001 239.02 491.347 247.215 490.48C248.64 490.329 250.2 489.921 250.976 488.715C251.43 487.841 251.644 486.863 251.595 485.879L251.863 478.72C252.027 477.482 251.829 476.223 251.293 475.095C250.606 474.156 249.663 473.434 248.577 473.015C236.914 467.369 223.613 466.318 210.662 465.874C204.079 465.649 197.493 465.556 190.905 465.596C185.314 465.63 178.602 464.821 173.166 466.315C165.871 468.32 161.901 483.269 165.603 489.221Z" fill="#2F2E41"/>
<path d="M238.839 301.726C223.557 301.59 209.708 291.503 194.427 291.257C192.581 291.13 190.731 291.449 189.035 292.188C186.906 293.26 185.506 295.334 183.888 297.086C179.37 301.979 172.827 304.591 168.185 309.367C163.833 313.845 161.412 320.517 163.13 326.52C164.849 332.524 171.334 337.129 177.409 335.685C179.857 327.762 184.909 320.898 191.746 316.206C195.304 313.924 199.053 311.956 202.952 310.324C209.82 307.212 217.499 304.041 224.67 306.374C227.314 307.372 229.807 308.732 232.079 310.414L244.033 318.444C242.64 312.95 241.387 306.788 238.839 301.726Z" fill="#4098D7"/>
<path d="M175.649 330.374C173.62 332.906 176.543 336.574 176.096 339.787C175.798 341.922 174.041 343.552 173.31 345.58C172.552 347.681 172.954 350.007 172.666 352.222C172.378 353.832 171.951 355.414 171.391 356.951C170.104 361.543 169.205 366.235 168.705 370.977L166.03 390.953C165.566 393.959 165.283 396.99 165.184 400.03C165.319 402.303 165.167 404.583 164.732 406.817C164.139 409 162.828 410.91 161.946 412.993C161.063 415.075 160.654 417.595 161.846 419.517C157.855 422.842 156.668 429.371 159.459 433.752C159.99 434.435 160.406 435.2 160.689 436.017C160.843 437.16 160.655 438.322 160.147 439.357L157.443 446.564C156.75 448.409 156.531 451.217 158.456 451.638C156.862 453.294 155.62 455.256 154.805 457.405C154.41 458.484 154.291 459.645 154.461 460.782C154.631 461.919 155.084 462.994 155.777 463.911C156.449 464.5 157.021 465.195 157.472 465.967C157.736 467.043 157.668 468.174 157.276 469.21C156.871 470.784 156.793 472.424 157.047 474.029C157.3 475.634 157.879 477.171 158.749 478.544C159.65 479.898 160.926 480.96 162.421 481.601C163.916 482.242 165.565 482.434 167.167 482.152C172.578 480.932 177.44 479.005 182.895 480.006C194.641 482.162 206.425 484.326 217.801 487.958C230.785 492.104 243.357 498.183 256.927 499.459C257.82 499.642 258.748 499.497 259.544 499.052C260.235 498.397 260.665 497.513 260.754 496.564C262.152 490.009 263.55 483.454 264.948 476.899C266.638 469.634 267.925 462.28 268.803 454.872C269.28 450.091 269.416 445.283 269.552 440.479L270.633 402.248C271.139 396.614 270.388 390.937 268.433 385.629L262.215 365.781C258.667 354.454 250.528 344.409 247.63 332.899C245.796 325.614 244.441 317.796 239.522 312.118C232.509 304.023 220.377 302.764 209.758 304.156C204.961 304.784 200.122 305.87 195.973 308.357C191.175 311.234 187.64 315.766 184.22 320.194C181.402 323.843 178.533 326.776 175.649 330.374Z" fill="#4098D7"/>
<path d="M200.444 442.823C201.319 446.596 203.156 450.075 204.281 453.78C206.165 459.989 206.006 466.676 207.886 472.886C208.676 475.492 209.819 477.995 210.386 480.659C211.707 486.869 209.778 493.294 207.382 499.174C204.987 505.055 202.069 510.852 201.291 517.154C200.743 521.592 201.53 526.604 204.951 529.485C208.503 532.475 213.664 532.272 218.29 531.874C219.951 531.828 221.59 531.487 223.131 530.866C226.669 529.193 228.159 525.007 228.986 521.181C231.757 508.362 230.966 495.075 230.16 481.985L228.054 447.75C227.649 441.16 227.214 434.432 225.183 428.104C224.445 425.802 223.157 421.15 221.054 419.68C218.972 418.225 213.024 418.16 210.446 418.039C198.348 417.47 198.483 434.356 200.444 442.823Z" fill="#FBBEBE"/>
<path d="M213.848 316.423C211.377 315.13 208.265 315.687 205.876 317.128C203.57 318.707 201.551 320.668 199.904 322.926C194.566 329.443 188.914 336.921 189.706 345.308C190.002 348.453 191.207 351.429 192.023 354.48C195.602 367.86 191.644 382.01 192.098 395.853C192.361 403.852 194.101 411.72 195.835 419.533C196.188 421.127 196.755 422.973 198.297 423.51C199.456 423.913 200.708 423.395 201.855 422.959C206.127 421.38 210.717 420.853 215.236 421.423C219.755 421.992 224.071 423.641 227.818 426.231C230.683 424.702 229.609 419.868 228.967 416.685C227.058 407.228 229.649 397.471 232.795 388.35C235.941 379.229 239.706 370.12 240.227 360.485C240.818 349.569 237.198 338.915 233.627 328.582C232.848 326.327 231.996 323.962 230.189 322.404C228.641 321.254 226.868 320.443 224.986 320.027C221.193 318.906 217.352 318.258 213.848 316.423Z" fill="#2F2E41"/>
<path d="M697.84 737.955C850.182 737.955 973.68 727.096 973.68 713.7C973.68 700.304 850.182 689.445 697.84 689.445C545.498 689.445 422 700.304 422 713.7C422 727.096 545.498 737.955 697.84 737.955Z" fill="#3F3D56"/>
<path opacity="0.1" d="M697.84 729.394C827.594 729.394 932.78 722.155 932.78 713.224C932.78 704.294 827.594 697.054 697.84 697.054C568.086 697.054 462.9 704.294 462.9 713.224C462.9 722.155 568.086 729.394 697.84 729.394Z" fill="black"/>
<path d="M1097.6 370.72C1097.6 319.148 1033.02 270.274 933.999 239.966C956.849 139.044 946.694 58.7513 901.945 33.0449C891.631 27.015 879.571 24.1587 866.4 24.1587V59.5447C873.7 59.5447 879.571 60.9729 884.49 63.6705C906.071 76.0477 915.433 123.176 908.134 183.793C906.388 198.709 903.532 214.418 900.041 230.445C868.939 222.828 834.981 216.957 799.278 213.149C777.856 183.793 755.641 157.134 733.266 133.808C784.997 85.7272 833.553 59.3861 866.559 59.3861V24C822.922 24 765.796 55.1017 708.036 109.053C650.276 55.419 593.15 24.6347 549.513 24.6347V60.0208C582.36 60.0208 631.075 86.2033 682.806 133.967C660.59 157.293 638.375 183.793 617.27 213.149C581.408 216.957 547.45 222.828 516.348 230.604C512.699 214.736 510.001 199.343 508.097 184.586C500.639 123.97 509.842 76.8411 531.264 64.3052C536.025 61.4489 542.213 60.1795 549.513 60.1795V24.7934C536.183 24.7934 524.124 27.6497 513.651 33.6796C469.061 59.3861 459.064 139.52 482.073 240.125C383.373 270.592 319.107 319.307 319.107 370.72C319.107 422.292 383.69 471.166 482.708 501.474C459.857 602.395 470.013 682.688 514.761 708.395C525.076 714.425 537.136 717.281 550.465 717.281C594.102 717.281 651.228 686.179 708.988 632.228C766.748 685.862 823.874 716.646 867.511 716.646C880.841 716.646 892.9 713.79 903.373 707.76C947.963 682.054 957.96 601.919 934.951 501.315C1033.33 471.007 1097.6 422.133 1097.6 370.72ZM890.996 264.879C885.125 285.349 877.826 306.454 869.574 327.558C863.068 314.864 856.245 302.169 848.787 289.475C841.487 276.78 833.712 264.403 825.937 252.343C848.47 255.676 870.209 259.801 890.996 264.879ZM818.32 433.875C805.943 455.297 793.248 475.609 780.078 494.492C756.434 496.555 732.473 497.665 708.353 497.665C684.392 497.665 660.431 496.555 636.947 494.65C623.776 475.767 610.923 455.615 598.545 434.351C586.486 413.564 575.537 392.459 565.54 371.196C575.378 349.933 586.486 328.669 598.387 307.882C610.764 286.46 623.459 266.149 636.629 247.265C660.273 245.203 684.234 244.092 708.353 244.092C732.314 244.092 756.275 245.203 779.76 247.107C792.931 265.99 805.784 286.142 818.161 307.406C830.221 328.193 841.17 349.298 851.167 370.561C841.17 391.825 830.221 413.088 818.32 433.875ZM869.574 413.247C878.143 434.51 885.442 455.773 891.472 476.402C870.685 481.48 848.787 485.764 826.095 489.097C833.871 476.878 841.646 464.342 848.946 451.489C856.245 438.794 863.068 425.941 869.574 413.247ZM708.671 582.56C693.913 567.327 679.156 550.348 664.557 531.782C678.839 532.417 693.437 532.893 708.195 532.893C723.111 532.893 737.868 532.575 752.308 531.782C738.027 550.348 723.269 567.327 708.671 582.56ZM590.611 489.097C568.079 485.764 546.339 481.639 525.552 476.561C531.423 456.091 538.722 434.986 546.974 413.881C553.48 426.576 560.303 439.271 567.761 451.965C575.219 464.66 582.836 477.037 590.611 489.097ZM707.877 158.88C722.635 174.113 737.392 191.092 751.991 209.658C737.709 209.023 723.111 208.547 708.353 208.547C693.437 208.547 678.68 208.864 664.24 209.658C678.521 191.092 693.279 174.113 707.877 158.88ZM590.453 252.343C582.677 264.562 574.902 277.098 567.602 289.951C560.303 302.645 553.48 315.34 546.974 328.034C538.405 306.771 531.106 285.508 525.076 264.879C545.863 259.96 567.761 255.676 590.453 252.343ZM446.846 451.013C390.672 427.052 354.334 395.633 354.334 370.72C354.334 345.807 390.672 314.229 446.846 290.427C460.492 284.556 475.408 279.319 490.8 274.4C499.845 305.502 511.746 337.873 526.504 371.037C511.905 404.043 500.163 436.256 491.277 467.198C475.567 462.279 460.651 456.884 446.846 451.013ZM532.216 677.769C510.636 665.392 501.273 618.264 508.573 557.647C510.318 542.731 513.175 527.022 516.666 510.995C547.767 518.611 581.725 524.483 617.429 528.291C638.851 557.647 661.066 584.306 683.44 607.632C631.71 655.713 583.153 682.054 550.147 682.054C543.007 681.895 536.977 680.467 532.216 677.769ZM908.61 556.854C916.068 617.47 906.864 664.599 885.442 677.135C880.682 679.991 874.493 681.26 867.194 681.26C834.347 681.26 785.631 655.078 733.901 607.315C756.117 583.988 778.332 557.489 799.437 528.132C835.299 524.324 869.257 518.453 900.358 510.677C904.008 526.704 906.864 542.096 908.61 556.854ZM969.702 451.013C956.056 456.884 941.14 462.121 925.748 467.04C916.703 435.938 904.801 403.567 890.044 370.403C904.643 337.397 916.385 305.184 925.272 274.241C940.981 279.16 955.897 284.556 969.861 290.427C1026.03 314.388 1062.37 345.807 1062.37 370.72C1062.21 395.633 1025.88 427.211 969.702 451.013Z" fill="#61DAFB"/>
<path d="M708.195 443.238C748.245 443.238 780.712 410.77 780.712 370.72C780.712 330.67 748.245 298.202 708.195 298.202C668.144 298.202 635.677 330.67 635.677 370.72C635.677 410.77 668.144 443.238 708.195 443.238Z" fill="#61DAFB"/>
</svg>
