<svg width="1127" height="855" viewBox="0 0 1127 855" fill="none" xmlns="http://www.w3.org/2000/svg"><path d="M544.864 755.938C302.465 737.491 13.3935 549.672 28.1106 356.281C42.8277 162.889 322.797 -17.1415 565.196 1.305C807.595 19.7515 947.128 381.167 932.411 574.558C917.693 767.949 787.263 774.384 544.864 755.938Z" fill="#E7EFFD"/><path d="M565.194 787C844.65 787 1071.19 773.121 1071.19 756C1071.19 738.879 844.65 725 565.194 725C285.737 725 59.1935 738.879 59.1935 756C59.1935 773.121 285.737 787 565.194 787Z" fill="#3F3D56"/><path opacity="0.1" d="M565.194 776C803.228 776 996.194 766.822 996.194 755.5C996.194 744.178 803.228 735 565.194 735C327.159 735 134.194 744.178 134.194 755.5C134.194 766.822 327.159 776 565.194 776Z" fill="black"/><path d="M212.194 855C329.385 855 424.387 846.717 424.387 836.5C424.387 826.283 329.385 818 212.194 818C95.0023 818 0 826.283 0 836.5C0 846.717 95.0023 855 212.194 855Z" fill="#3F3D56"/><path opacity="0.1" d="M212.194 848.435C312.015 848.435 392.935 842.958 392.935 836.202C392.935 829.445 312.015 823.968 212.194 823.968C112.373 823.968 31.4516 829.445 31.4516 836.202C31.4516 842.958 112.373 848.435 212.194 848.435Z" fill="black"/><path d="M948.194 162H196.194V752H948.194V162Z" fill="#3F3D56"/><path d="M563.638 242.629H378.12C377.824 242.63 377.531 242.572 377.257 242.459C376.984 242.346 376.735 242.181 376.525 241.971C376.316 241.762 376.15 241.514 376.036 241.24C375.923 240.967 375.864 240.674 375.864 240.378C375.864 240.082 375.923 239.789 376.036 239.515C376.15 239.242 376.316 238.993 376.525 238.784C376.735 238.575 376.984 238.409 377.257 238.296C377.531 238.183 377.824 238.126 378.12 238.126H563.638C564.234 238.128 564.806 238.365 565.227 238.787C565.648 239.209 565.885 239.781 565.885 240.378C565.885 240.974 565.648 241.546 565.227 241.968C564.806 242.39 564.234 242.628 563.638 242.629V242.629Z" fill="#F2F2F2"/><path d="M766.717 267.395H474.932C474.335 267.395 473.762 267.158 473.34 266.735C472.918 266.313 472.68 265.741 472.68 265.143C472.68 264.546 472.918 263.974 473.34 263.551C473.762 263.129 474.335 262.892 474.932 262.892H766.717C767.013 262.892 767.305 262.95 767.579 263.063C767.852 263.177 768.1 263.342 768.309 263.551C768.518 263.76 768.684 264.009 768.797 264.282C768.91 264.555 768.968 264.848 768.968 265.143C768.968 265.439 768.91 265.732 768.797 266.005C768.684 266.278 768.518 266.526 768.309 266.735C768.1 266.945 767.852 267.11 767.579 267.223C767.305 267.337 767.013 267.395 766.717 267.395V267.395Z" fill="#F2F2F2"/><path d="M564.539 292.161H379.021C378.424 292.161 377.851 291.923 377.429 291.501C377.007 291.079 376.77 290.506 376.77 289.909C376.77 289.312 377.007 288.739 377.429 288.317C377.851 287.895 378.424 287.658 379.021 287.658H564.539C565.136 287.658 565.708 287.895 566.131 288.317C566.553 288.739 566.79 289.312 566.79 289.909C566.79 290.506 566.553 291.079 566.131 291.501C565.708 291.923 565.136 292.161 564.539 292.161V292.161Z" fill="#F2F2F2"/><path d="M766.717 292.611H581.199C580.602 292.611 580.029 292.374 579.607 291.951C579.185 291.529 578.948 290.957 578.948 290.359C578.948 289.762 579.185 289.19 579.607 288.767C580.029 288.345 580.602 288.108 581.199 288.108H766.717C767.314 288.108 767.887 288.345 768.309 288.767C768.731 289.19 768.968 289.762 768.968 290.359C768.968 290.957 768.731 291.529 768.309 291.951C767.887 292.374 767.314 292.611 766.717 292.611V292.611Z" fill="#F2F2F2"/><path d="M564.989 316.926H379.471C378.874 316.926 378.301 316.689 377.879 316.267C377.457 315.845 377.22 315.272 377.22 314.675C377.22 314.078 377.457 313.505 377.879 313.083C378.301 312.661 378.874 312.423 379.471 312.423H564.989C565.586 312.423 566.159 312.661 566.581 313.083C567.003 313.505 567.24 314.078 567.24 314.675C567.24 315.272 567.003 315.845 566.581 316.267C566.159 316.689 565.586 316.926 564.989 316.926V316.926Z" fill="#F2F2F2"/><path d="M565.439 341.692H379.922C379.324 341.692 378.752 341.455 378.33 341.033C377.907 340.61 377.67 340.038 377.67 339.441C377.67 338.843 377.907 338.271 378.33 337.849C378.752 337.426 379.324 337.189 379.922 337.189H565.439C566.036 337.189 566.609 337.426 567.031 337.849C567.454 338.271 567.691 338.843 567.691 339.441C567.691 340.038 567.454 340.61 567.031 341.033C566.609 341.455 566.036 341.692 565.439 341.692V341.692Z" fill="#F2F2F2"/><path d="M649.643 243.079H596.509C595.912 243.079 595.339 242.842 594.917 242.42C594.495 241.998 594.258 241.425 594.258 240.828C594.258 240.231 594.495 239.658 594.917 239.236C595.339 238.814 595.912 238.577 596.509 238.577H649.643C650.24 238.577 650.812 238.814 651.235 239.236C651.657 239.658 651.894 240.231 651.894 240.828C651.894 241.425 651.657 241.998 651.235 242.42C650.812 242.842 650.24 243.079 649.643 243.079V243.079Z" fill="#F2F2F2"/><path d="M649.643 316.926H596.509C595.912 316.926 595.339 316.689 594.917 316.267C594.495 315.845 594.258 315.272 594.258 314.675C594.258 314.078 594.495 313.505 594.917 313.083C595.339 312.661 595.912 312.423 596.509 312.423H649.643C650.24 312.423 650.812 312.661 651.235 313.083C651.657 313.505 651.894 314.078 651.894 314.675C651.894 315.272 651.657 315.845 651.235 316.267C650.812 316.689 650.24 316.926 649.643 316.926V316.926Z" fill="#F2F2F2"/><path d="M649.643 341.242H596.509C596.213 341.242 595.92 341.185 595.646 341.072C595.372 340.959 595.123 340.793 594.914 340.584C594.704 340.375 594.538 340.126 594.425 339.853C594.311 339.58 594.253 339.286 594.253 338.99C594.253 338.694 594.311 338.401 594.425 338.128C594.538 337.854 594.704 337.606 594.914 337.397C595.123 337.187 595.372 337.022 595.646 336.909C595.92 336.796 596.213 336.738 596.509 336.739H649.643C649.939 336.738 650.232 336.796 650.506 336.909C650.779 337.022 651.028 337.187 651.238 337.397C651.447 337.606 651.614 337.854 651.727 338.128C651.84 338.401 651.899 338.694 651.899 338.99C651.899 339.286 651.84 339.58 651.727 339.853C651.614 340.126 651.447 340.375 651.238 340.584C651.028 340.793 650.779 340.959 650.506 341.072C650.232 341.185 649.939 341.242 649.643 341.242V341.242Z" fill="#F2F2F2"/><path d="M738.799 341.242H685.666C685.069 341.24 684.498 341.003 684.077 340.581C683.655 340.159 683.419 339.587 683.419 338.99C683.419 338.394 683.655 337.822 684.077 337.4C684.498 336.978 685.069 336.74 685.666 336.739H738.799C739.095 336.738 739.389 336.796 739.662 336.909C739.936 337.022 740.185 337.187 740.394 337.397C740.604 337.606 740.77 337.854 740.884 338.128C740.997 338.401 741.055 338.694 741.055 338.99C741.055 339.286 740.997 339.58 740.884 339.853C740.77 340.126 740.604 340.375 740.394 340.584C740.185 340.793 739.936 340.959 739.662 341.072C739.389 341.185 739.095 341.242 738.799 341.242V341.242Z" fill="#F2F2F2"/><path d="M430.804 267.395H377.67C377.073 267.395 376.5 267.158 376.078 266.735C375.656 266.313 375.419 265.741 375.419 265.143C375.419 264.546 375.656 263.974 376.078 263.551C376.5 263.129 377.073 262.892 377.67 262.892H430.804C431.401 262.892 431.974 263.129 432.396 263.551C432.818 263.974 433.055 264.546 433.055 265.143C433.055 265.741 432.818 266.313 432.396 266.735C431.974 267.158 431.401 267.395 430.804 267.395V267.395Z" fill="#F2F2F2"/><path d="M463.261 523.063L648.778 523.063C649.075 523.062 649.368 523.12 649.642 523.233C649.915 523.346 650.164 523.511 650.374 523.721C650.583 523.93 650.749 524.178 650.863 524.452C650.976 524.725 651.035 525.018 651.035 525.314C651.035 525.61 650.976 525.904 650.863 526.177C650.749 526.45 650.583 526.699 650.374 526.908C650.164 527.117 649.915 527.283 649.642 527.396C649.368 527.509 649.075 527.566 648.778 527.566L463.261 527.566C462.664 527.564 462.093 527.327 461.672 526.905C461.251 526.483 461.014 525.911 461.014 525.314C461.014 524.718 461.251 524.146 461.672 523.724C462.093 523.302 462.664 523.064 463.261 523.063V523.063Z" fill="#F2F2F2"/><path d="M377.67 498.297L669.455 498.297C670.052 498.297 670.625 498.534 671.047 498.957C671.469 499.379 671.707 499.951 671.707 500.549C671.707 501.146 671.469 501.718 671.047 502.141C670.625 502.563 670.052 502.8 669.455 502.8L377.67 502.8C377.374 502.8 377.082 502.742 376.809 502.629C376.535 502.515 376.287 502.35 376.078 502.141C375.869 501.931 375.703 501.683 375.59 501.41C375.477 501.137 375.419 500.844 375.419 500.549C375.419 500.253 375.477 499.96 375.59 499.687C375.703 499.414 375.869 499.166 376.078 498.957C376.287 498.747 376.535 498.582 376.809 498.469C377.082 498.355 377.374 498.297 377.67 498.297V498.297Z" fill="#F2F2F2"/><path d="M579.848 473.531L765.366 473.531C765.963 473.531 766.536 473.769 766.958 474.191C767.38 474.613 767.618 475.186 767.618 475.783C767.618 476.38 767.38 476.953 766.958 477.375C766.536 477.797 765.963 478.034 765.366 478.034L579.848 478.034C579.251 478.034 578.679 477.797 578.256 477.375C577.834 476.953 577.597 476.38 577.597 475.783C577.597 475.186 577.834 474.613 578.256 474.191C578.679 473.769 579.251 473.531 579.848 473.531V473.531Z" fill="#F2F2F2"/><path d="M377.67 473.081L563.188 473.081C563.785 473.081 564.358 473.318 564.78 473.741C565.202 474.163 565.439 474.735 565.439 475.333C565.439 475.93 565.202 476.502 564.78 476.925C564.358 477.347 563.785 477.584 563.188 477.584L377.67 477.584C377.073 477.584 376.5 477.347 376.078 476.925C375.656 476.502 375.419 475.93 375.419 475.333C375.419 474.735 375.656 474.163 376.078 473.741C376.5 473.318 377.073 473.081 377.67 473.081V473.081Z" fill="#F2F2F2"/><path d="M461.91 448.766L647.428 448.766C648.025 448.766 648.597 449.003 649.02 449.425C649.442 449.847 649.679 450.42 649.679 451.017C649.679 451.614 649.442 452.187 649.02 452.609C648.597 453.031 648.025 453.269 647.428 453.269L461.91 453.269C461.313 453.269 460.74 453.031 460.318 452.609C459.896 452.187 459.658 451.614 459.658 451.017C459.658 450.42 459.896 449.847 460.318 449.425C460.74 449.003 461.313 448.766 461.91 448.766V448.766Z" fill="#F2F2F2"/><path d="M461.46 424L646.977 424C647.574 424 648.147 424.237 648.569 424.659C648.992 425.082 649.229 425.654 649.229 426.251C649.229 426.849 648.992 427.421 648.569 427.843C648.147 428.266 647.574 428.503 646.977 428.503L461.46 428.503C460.863 428.503 460.29 428.266 459.868 427.843C459.445 427.421 459.208 426.849 459.208 426.251C459.208 425.654 459.445 425.082 459.868 424.659C460.29 424.237 460.863 424 461.46 424V424Z" fill="#F2F2F2"/><path d="M377.256 522.613L430.39 522.613C430.987 522.613 431.56 522.85 431.982 523.272C432.404 523.694 432.641 524.267 432.641 524.864C432.641 525.461 432.404 526.034 431.982 526.456C431.56 526.878 430.987 527.115 430.39 527.115L377.256 527.115C376.659 527.115 376.086 526.878 375.664 526.456C375.242 526.034 375.005 525.461 375.005 524.864C375.005 524.267 375.242 523.694 375.664 523.272C376.086 522.85 376.659 522.613 377.256 522.613V522.613Z" fill="#F2F2F2"/><path d="M377.256 448.766L430.39 448.766C430.987 448.766 431.56 449.003 431.982 449.425C432.404 449.847 432.641 450.42 432.641 451.017C432.641 451.614 432.404 452.187 431.982 452.609C431.56 453.031 430.987 453.269 430.39 453.269L377.256 453.269C376.659 453.269 376.086 453.031 375.664 452.609C375.242 452.187 375.005 451.614 375.005 451.017C375.005 450.42 375.242 449.847 375.664 449.425C376.086 449.003 376.659 448.766 377.256 448.766V448.766Z" fill="#F2F2F2"/><path d="M377.256 424.45L430.39 424.45C430.686 424.45 430.979 424.507 431.253 424.62C431.527 424.733 431.775 424.899 431.985 425.108C432.195 425.317 432.361 425.566 432.474 425.839C432.588 426.113 432.646 426.406 432.646 426.702C432.646 426.998 432.588 427.291 432.474 427.564C432.361 427.838 432.195 428.086 431.985 428.295C431.775 428.505 431.527 428.67 431.253 428.783C430.979 428.896 430.686 428.954 430.39 428.953L377.256 428.953C376.96 428.954 376.667 428.896 376.393 428.783C376.12 428.67 375.871 428.505 375.661 428.295C375.452 428.086 375.285 427.838 375.172 427.564C375.058 427.291 375 426.998 375 426.702C375 426.406 375.058 426.113 375.172 425.839C375.285 425.566 375.452 425.317 375.661 425.108C375.871 424.899 376.12 424.733 376.393 424.62C376.667 424.507 376.96 424.45 377.256 424.45V424.45Z" fill="#F2F2F2"/><path d="M713.583 498.297L766.717 498.297C767.314 498.297 767.887 498.534 768.309 498.957C768.731 499.379 768.968 499.951 768.968 500.549C768.968 501.146 768.731 501.718 768.309 502.141C767.887 502.563 767.314 502.8 766.717 502.8L713.583 502.8C712.986 502.8 712.413 502.563 711.991 502.141C711.569 501.718 711.332 501.146 711.332 500.549C711.332 499.951 711.569 499.379 711.991 498.957C712.413 498.534 712.986 498.297 713.583 498.297V498.297Z" fill="#F2F2F2"/><path d="M563.863 607.361H378.346C377.748 607.361 377.176 607.123 376.754 606.701C376.331 606.279 376.094 605.706 376.094 605.109C376.094 604.512 376.331 603.939 376.754 603.517C377.176 603.095 377.748 602.858 378.346 602.858H563.863C564.46 602.858 565.033 603.095 565.455 603.517C565.878 603.939 566.115 604.512 566.115 605.109C566.115 605.706 565.878 606.279 565.455 606.701C565.033 607.123 564.46 607.361 563.863 607.361Z" fill="#F2F2F2"/><path d="M562.963 656.892H377.445C376.848 656.892 376.275 656.655 375.853 656.233C375.431 655.81 375.194 655.238 375.194 654.641C375.194 654.043 375.431 653.471 375.853 653.049C376.275 652.626 376.848 652.389 377.445 652.389H562.963C563.56 652.389 564.132 652.626 564.555 653.049C564.977 653.471 565.214 654.043 565.214 654.641C565.214 655.238 564.977 655.81 564.555 656.233C564.132 656.655 563.56 656.892 562.963 656.892Z" fill="#F2F2F2"/><path d="M563.413 681.658H377.895C377.599 681.658 377.306 681.601 377.032 681.488C376.759 681.375 376.51 681.209 376.3 681C376.091 680.791 375.924 680.542 375.811 680.269C375.697 679.996 375.639 679.702 375.639 679.406C375.639 679.11 375.697 678.817 375.811 678.544C375.924 678.27 376.091 678.022 376.3 677.813C376.51 677.604 376.759 677.438 377.032 677.325C377.306 677.212 377.599 677.154 377.895 677.155H563.413C563.709 677.154 564.002 677.212 564.276 677.325C564.55 677.438 564.798 677.604 565.008 677.813C565.218 678.022 565.384 678.27 565.497 678.544C565.611 678.817 565.669 679.11 565.669 679.406C565.669 679.702 565.611 679.996 565.497 680.269C565.384 680.542 565.218 680.791 565.008 681C564.798 681.209 564.55 681.375 564.276 681.488C564.002 681.601 563.709 681.658 563.413 681.658V681.658Z" fill="#F2F2F2"/><path d="M642.663 657.342H589.53C588.932 657.342 588.36 657.105 587.938 656.683C587.515 656.261 587.278 655.688 587.278 655.091C587.278 654.494 587.515 653.921 587.938 653.499C588.36 653.077 588.932 652.839 589.53 652.839H642.663C643.26 652.839 643.833 653.077 644.255 653.499C644.677 653.921 644.915 654.494 644.915 655.091C644.915 655.688 644.677 656.261 644.255 656.683C643.833 657.105 643.26 657.342 642.663 657.342Z" fill="#F2F2F2"/><path d="M642.663 681.658H589.53C588.932 681.658 588.36 681.421 587.938 680.998C587.515 680.576 587.278 680.003 587.278 679.406C587.278 678.809 587.515 678.236 587.938 677.814C588.36 677.392 588.932 677.155 589.53 677.155H642.663C643.26 677.155 643.833 677.392 644.255 677.814C644.677 678.236 644.915 678.809 644.915 679.406C644.915 680.003 644.677 680.576 644.255 680.998C643.833 681.421 643.26 681.658 642.663 681.658V681.658Z" fill="#F2F2F2"/><path d="M731.82 657.342H678.686C678.089 657.342 677.516 657.105 677.094 656.683C676.672 656.261 676.435 655.688 676.435 655.091C676.435 654.494 676.672 653.921 677.094 653.499C677.516 653.077 678.089 652.839 678.686 652.839H731.82C732.417 652.839 732.99 653.077 733.412 653.499C733.834 653.921 734.071 654.494 734.071 655.091C734.071 655.688 733.834 656.261 733.412 656.683C732.99 657.105 732.417 657.342 731.82 657.342V657.342Z" fill="#F2F2F2"/><path d="M766.942 632.126H475.157C474.56 632.126 473.987 631.889 473.565 631.467C473.143 631.045 472.906 630.472 472.906 629.875C472.906 629.278 473.143 628.705 473.565 628.283C473.987 627.861 474.56 627.623 475.157 627.623H766.942C767.539 627.623 768.112 627.861 768.534 628.283C768.956 628.705 769.194 629.278 769.194 629.875C769.194 630.472 768.956 631.045 768.534 631.467C768.112 631.889 767.539 632.126 766.942 632.126V632.126Z" fill="#F2F2F2"/><path d="M431.029 632.126H377.895C377.298 632.126 376.725 631.889 376.303 631.467C375.881 631.045 375.644 630.472 375.644 629.875C375.644 629.278 375.881 628.705 376.303 628.283C376.725 627.861 377.298 627.623 377.895 627.623H431.029C431.626 627.623 432.199 627.861 432.621 628.283C433.043 628.705 433.28 629.278 433.28 629.875C433.28 630.472 433.043 631.045 432.621 631.467C432.199 631.889 431.626 632.126 431.029 632.126V632.126Z" fill="#F2F2F2"/><path d="M766.942 706.874H475.157C474.861 706.874 474.568 706.817 474.294 706.704C474.02 706.591 473.771 706.425 473.562 706.216C473.352 706.007 473.186 705.758 473.073 705.485C472.959 705.212 472.901 704.918 472.901 704.622C472.901 704.326 472.959 704.033 473.073 703.76C473.186 703.486 473.352 703.238 473.562 703.029C473.771 702.82 474.02 702.654 474.294 702.541C474.568 702.428 474.861 702.37 475.157 702.371H766.942C767.539 702.371 768.112 702.608 768.534 703.03C768.956 703.453 769.194 704.025 769.194 704.622C769.194 705.219 768.956 705.792 768.534 706.214C768.112 706.637 767.539 706.874 766.942 706.874V706.874Z" fill="#F2F2F2"/><path d="M431.029 706.874H377.895C377.599 706.874 377.306 706.817 377.032 706.704C376.759 706.591 376.51 706.425 376.3 706.216C376.091 706.007 375.924 705.758 375.811 705.485C375.697 705.212 375.639 704.918 375.639 704.622C375.639 704.326 375.697 704.033 375.811 703.76C375.924 703.486 376.091 703.238 376.3 703.029C376.51 702.82 376.759 702.654 377.032 702.541C377.306 702.428 377.599 702.37 377.895 702.371H431.029C431.325 702.37 431.618 702.428 431.892 702.541C432.166 702.654 432.414 702.82 432.624 703.029C432.834 703.238 433 703.486 433.113 703.76C433.227 704.033 433.285 704.326 433.285 704.622C433.285 704.918 433.227 705.212 433.113 705.485C433 705.758 432.834 706.007 432.624 706.216C432.414 706.425 432.166 706.591 431.892 706.704C431.618 706.817 431.325 706.874 431.029 706.874Z" fill="#F2F2F2"/><path d="M216.194 186C221.164 186 225.194 181.971 225.194 177C225.194 172.029 221.164 168 216.194 168C211.223 168 207.194 172.029 207.194 177C207.194 181.971 211.223 186 216.194 186Z" fill="#4098D7"/><path d="M240.194 186C245.164 186 249.194 181.971 249.194 177C249.194 172.029 245.164 168 240.194 168C235.223 168 231.194 172.029 231.194 177C231.194 181.971 235.223 186 240.194 186Z" fill="#4098D7"/><path d="M264.194 186C269.164 186 273.194 181.971 273.194 177C273.194 172.029 269.164 168 264.194 168C259.223 168 255.194 172.029 255.194 177C255.194 181.971 259.223 186 264.194 186Z" fill="#4098D7"/><path opacity="0.1" d="M948.194 192H196.194V195H948.194V192Z" fill="black"/><path d="M1126.19 607.454C1126.19 671.225 1088.28 693.491 1041.52 693.491C994.752 693.491 956.841 671.225 956.841 607.454C956.841 543.682 1041.52 462.556 1041.52 462.556C1041.52 462.556 1126.19 543.682 1126.19 607.454Z" fill="#E7EFFD"/><path d="M1038.43 683.736L1039.3 630.365L1075.39 564.338L1039.44 621.993L1039.83 597.995L1064.7 550.226L1039.93 591.645L1040.63 548.484L1067.27 510.453L1040.74 541.697L1041.18 462.556L1038.43 567.325L1038.65 563.003L1011.57 521.552L1038.22 571.3L1035.69 619.503L1035.62 618.223L1004.4 574.602L1035.52 622.743L1035.21 628.771L1035.15 628.862L1035.18 629.357L1028.78 751.653H1037.33L1038.35 688.485L1069.4 640.461L1038.43 683.736Z" fill="#3F3D56"/><path d="M122.622 751.091C120.024 752.538 117.283 753.712 114.444 754.594C109.365 755.981 103.936 755.472 98.8064 756.657C96.706 757.142 94.4201 758.156 93.7521 760.205C93.2622 761.709 93.7952 763.332 94.3056 764.829C99.9741 781.448 103.391 799.095 112.431 814.149C116.23 820.472 120.945 826.197 126.423 831.137C128.479 832.989 130.808 834.801 133.559 835.092C134.827 835.226 136.108 835.023 137.272 834.503C138.437 833.984 139.444 833.167 140.191 832.134C140.939 831.101 141.401 829.889 141.53 828.621C141.66 827.352 141.453 826.072 140.929 824.91C140.119 823.108 138.612 821.713 137.64 819.994C136.587 817.804 135.969 815.429 135.821 813.003C134.928 805.895 134.067 798.466 136.53 791.738C138.182 787.226 141.212 783.379 143.737 779.291C146.261 775.202 148.358 770.519 147.797 765.747C147.413 762.49 145.825 759.51 144.147 756.693C142.465 753.87 139.142 746.284 135.764 745.342C132.257 744.364 125.68 749.524 122.622 751.091Z" fill="#2F2E41"/><path d="M215.057 808.5C215.109 810.108 214.885 811.713 214.393 813.245C213.336 816.038 210.712 817.951 209.357 820.612C207.472 824.313 208.326 828.786 209.575 832.747C210.358 835.23 211.385 837.814 213.488 839.35C215.286 840.464 217.331 841.119 219.442 841.257C237.478 843.753 255.8 842.321 274 842.844C277.317 842.939 280.83 843.055 283.725 841.434C286.621 839.813 288.411 835.737 286.442 833.066C284.673 830.668 281.177 830.69 278.2 830.549C270.448 830.155 263.067 827.114 257.287 821.934C256.147 820.96 255.158 819.822 254.353 818.557C253.734 817.435 253.221 816.257 252.819 815.04C250.268 808.128 247.232 801.406 243.736 794.921C242.757 793.106 241.649 791.216 239.83 790.245C238.498 789.639 237.053 789.324 235.59 789.319C231.054 789.025 219.307 787.481 215.799 791.009C212.558 794.268 215.128 804.36 215.057 808.5Z" fill="#2F2E41"/><path d="M242.971 405.695C258.973 405.695 271.946 392.723 271.946 376.72C271.946 360.718 258.973 347.745 242.971 347.745C226.968 347.745 213.996 360.718 213.996 376.72C213.996 392.723 226.968 405.695 242.971 405.695Z" fill="#FBBEBE"/><path d="M216.806 400.646C215.082 405.26 212.159 409.593 207.905 412.076L247.98 420.25C246.526 414.402 246.335 408.31 247.418 402.381C247.816 400.946 247.898 399.442 247.658 397.972C246.904 395.065 243.631 393.666 240.703 392.998C233.389 391.331 226.921 390.437 220.124 387.206C218.047 390.763 218.337 396.545 216.806 400.646Z" fill="#FBBEBE"/><path d="M207.571 401.227C211.882 399.276 216.579 398.327 221.309 398.45C226.039 398.574 230.68 399.767 234.884 401.941C240.022 404.648 244.276 408.735 248.455 412.767C252.308 416.484 256.418 420.739 256.691 426.086C256.824 428.676 256.015 431.208 255.607 433.769C254.874 439.066 255.806 444.459 258.275 449.202C260.744 453.945 264.628 457.802 269.387 460.239C272.571 465.542 273.228 471.968 273.277 478.153C273.462 501.589 266.067 525.314 271.346 548.148C272.586 553.51 274.508 558.702 275.578 564.1C276.965 571.091 276.897 578.279 277.622 585.369C278.409 593.047 280.126 600.601 282.736 607.865C280.992 610.639 277.362 611.702 274.093 611.478C270.825 611.253 267.768 609.834 264.851 608.342C250.728 601.115 237.792 591.585 223.164 585.442C213.487 581.379 203.177 578.847 193.789 574.154C184.4 569.461 175.669 562.012 172.798 551.916C171.557 547.551 171.48 542.951 171.413 538.413C171.127 519.299 170.862 499.977 175.023 481.319C178.692 464.866 185.764 449.125 187.307 432.338C187.809 426.874 187.82 421.025 190.873 416.465C195.188 410.02 204.505 408.351 207.571 401.227Z" fill="#2F2E41"/><path d="M226.492 377.129C228.199 374.903 231.492 374.599 234.219 375.258C236.947 375.916 239.462 377.322 242.217 377.856C242.843 378.034 243.499 378.079 244.144 377.988C244.789 377.898 245.407 377.674 245.96 377.33C246.923 376.382 247.499 375.109 247.576 373.76C248.54 368.019 248.766 362.178 248.246 356.38C248.103 355.566 248.157 354.73 248.405 353.942C249.087 352.299 251.168 351.908 252.867 351.38C255.671 350.433 258.079 348.578 259.711 346.109C261.343 343.64 262.106 340.698 261.88 337.747C261.838 336.332 261.243 334.989 260.223 334.007C259.048 333.049 257.403 332.99 255.887 332.978C248.099 332.916 240.31 332.917 232.521 332.984C229.638 333.008 226.61 333.079 224.111 334.516C222.264 335.579 220.89 337.289 219.231 338.628C214.905 342.119 209.053 342.829 203.79 344.619C201.22 345.35 198.887 346.742 197.022 348.654C195.272 350.654 194.43 353.628 195.53 356.047C196.094 357.055 196.724 358.025 197.416 358.951C200.521 363.915 198.454 370.354 198.918 376.191C199.497 383.479 210.283 395.302 217.597 397.027C229.404 399.811 222.583 381.914 226.492 377.129Z" fill="#2F2E41"/><path d="M210.134 696.683C210.879 702.004 211.835 707.344 211.58 712.712C211.223 720.206 208.52 727.426 208.021 734.911C207.648 740.502 208.511 746.153 207.734 751.703C207.237 755.256 206.078 758.681 205.361 762.196C204.225 767.925 204.257 773.824 205.455 779.54C206.654 785.256 208.993 790.672 212.334 795.462C212.825 796.282 213.523 796.958 214.358 797.423C215.158 797.719 216.015 797.833 216.865 797.755C225.299 797.583 233.71 796.819 242.036 795.467C242.645 795.442 243.223 795.187 243.652 794.754C243.84 794.467 243.96 794.141 244.003 793.8C245.547 785.864 242.026 777.907 241.131 769.872C240.175 761.292 242.234 752.694 244.277 744.307C245.204 740.169 246.361 736.087 247.744 732.079C248.732 729.382 249.925 726.758 250.781 724.016C251.994 719.709 252.732 715.282 252.983 710.814C253.577 703.764 253.892 696.697 253.928 689.615C254.13 682.903 253.571 676.191 252.263 669.605C250.385 661.267 246.539 653.524 242.727 645.875C240.688 646.363 238.775 647.273 237.109 648.545C232.196 651.726 227.067 654.56 221.759 657.025C218.192 658.682 211.237 659.859 208.973 663.311C206.741 666.716 208.181 673.662 208.352 677.417C208.645 683.862 209.239 690.284 210.134 696.683Z" fill="#2F2E41"/><path opacity="0.1" d="M210.134 696.683C210.879 702.004 211.835 707.344 211.58 712.712C211.223 720.206 208.52 727.426 208.021 734.911C207.648 740.502 208.511 746.153 207.734 751.703C207.237 755.256 206.078 758.681 205.361 762.196C204.225 767.925 204.257 773.824 205.455 779.54C206.654 785.256 208.993 790.672 212.334 795.462C212.825 796.282 213.523 796.958 214.358 797.423C215.158 797.719 216.015 797.833 216.865 797.755C225.299 797.583 233.71 796.819 242.036 795.467C242.645 795.442 243.223 795.187 243.652 794.754C243.84 794.467 243.96 794.141 244.003 793.8C245.547 785.864 242.026 777.907 241.131 769.872C240.175 761.292 242.234 752.694 244.277 744.307C245.204 740.169 246.361 736.087 247.744 732.079C248.732 729.382 249.925 726.758 250.781 724.016C251.994 719.709 252.732 715.282 252.983 710.814C253.577 703.764 253.892 696.697 253.928 689.615C254.13 682.903 253.571 676.191 252.263 669.605C250.385 661.267 246.539 653.524 242.727 645.875C240.688 646.363 238.775 647.273 237.109 648.545C232.196 651.726 227.067 654.56 221.759 657.025C218.192 658.682 211.237 659.859 208.973 663.311C206.741 666.716 208.181 673.662 208.352 677.417C208.645 683.862 209.239 690.284 210.134 696.683Z" fill="black"/><path d="M170.961 583.018C167.113 593.377 172.769 604.572 177.683 614.47C189.789 638.856 198.196 664.878 206.558 690.787C207.184 692.728 207.81 694.846 207.112 696.762C206.509 698.123 205.53 699.284 204.29 700.109C198.524 704.488 191.183 706.047 184.315 708.338C177.678 710.554 171.321 713.534 165.372 717.218C160.396 720.302 155.733 723.862 151.081 727.416L136.269 738.728C135.31 739.376 134.472 740.188 133.793 741.125C132.364 743.366 132.949 746.292 133.661 748.853C135.544 755.634 137.969 762.253 140.913 768.645C141.397 770.047 142.319 771.255 143.543 772.092C145.855 773.334 148.682 771.687 150.448 769.745C152.213 767.803 153.74 765.386 156.229 764.552C158.715 763.719 161.451 764.728 164.047 764.363C168.245 763.774 171.033 759.906 174.059 756.937C186.425 744.805 207.069 745.686 220.672 734.96C222.638 733.2 224.72 731.574 226.903 730.092C229.202 728.733 231.81 727.987 234.196 726.785C241.453 723.131 246.015 715.577 248.458 707.828C250.902 700.08 251.599 691.901 253.355 683.968C254.263 679.867 255.458 675.81 255.862 671.629C256.122 667.741 256.037 663.837 255.609 659.963L250.701 599.248C250.301 594.304 249.901 589.355 249.125 584.457C234.548 584.978 219.982 585.565 205.397 585.737C193.792 585.874 181.973 586.686 170.961 583.018Z" fill="#2F2E41"/><path d="M165.603 597.221C167.58 600.401 172.393 600.335 175.707 598.592C179.021 596.848 181.596 593.919 184.917 592.191C189.381 589.868 194.664 589.955 199.694 590.097C207.657 590.322 215.719 590.562 223.381 592.744C231.305 595.001 239.02 599.347 247.215 598.48C248.64 598.329 250.2 597.921 250.976 596.715C251.43 595.841 251.644 594.863 251.595 593.879L251.863 586.72C252.027 585.482 251.83 584.223 251.293 583.095C250.606 582.156 249.663 581.434 248.577 581.015C236.914 575.369 223.613 574.318 210.662 573.874C204.079 573.649 197.493 573.556 190.905 573.596C185.314 573.63 178.602 572.821 173.166 574.315C165.871 576.32 161.901 591.269 165.603 597.221Z" fill="#2F2E41"/><path d="M238.839 409.726C223.557 409.59 209.708 399.503 194.427 399.257C192.581 399.13 190.731 399.449 189.035 400.188C186.906 401.26 185.506 403.334 183.888 405.086C179.37 409.979 172.827 412.591 168.185 417.367C163.833 421.845 161.412 428.517 163.13 434.52C164.849 440.524 171.334 445.129 177.409 443.685C179.857 435.762 184.909 428.898 191.746 424.206C195.304 421.924 199.053 419.956 202.952 418.324C209.82 415.212 217.499 412.041 224.67 414.374C227.314 415.372 229.807 416.732 232.079 418.414L244.033 426.444C242.64 420.95 241.387 414.788 238.839 409.726Z" fill="#4098D7"/><path d="M175.649 438.374C173.62 440.906 176.543 444.574 176.096 447.787C175.798 449.922 174.041 451.552 173.31 453.58C172.552 455.681 172.954 458.007 172.666 460.222C172.378 461.832 171.951 463.414 171.391 464.951C170.104 469.543 169.205 474.235 168.705 478.977L166.03 498.953C165.566 501.959 165.283 504.99 165.184 508.03C165.319 510.303 165.167 512.583 164.732 514.817C164.139 517 162.828 518.91 161.946 520.993C161.063 523.075 160.654 525.595 161.846 527.517C157.855 530.842 156.668 537.371 159.459 541.752C159.99 542.435 160.406 543.2 160.689 544.017C160.843 545.16 160.655 546.322 160.147 547.357L157.443 554.564C156.75 556.409 156.531 559.217 158.456 559.638C156.862 561.294 155.62 563.256 154.805 565.405C154.41 566.484 154.291 567.645 154.461 568.782C154.631 569.919 155.084 570.994 155.777 571.911C156.449 572.5 157.021 573.195 157.472 573.967C157.736 575.043 157.668 576.174 157.276 577.21C156.871 578.784 156.793 580.424 157.047 582.029C157.3 583.634 157.879 585.171 158.749 586.544C159.65 587.898 160.926 588.96 162.421 589.601C163.916 590.242 165.565 590.434 167.167 590.152C172.578 588.932 177.44 587.005 182.895 588.006C194.641 590.162 206.425 592.326 217.801 595.958C230.785 600.104 243.357 606.183 256.927 607.459C257.82 607.642 258.748 607.497 259.544 607.052C260.235 606.397 260.665 605.513 260.754 604.564C262.152 598.009 263.55 591.454 264.948 584.899C266.638 577.634 267.925 570.28 268.803 562.872C269.28 558.091 269.416 553.283 269.552 548.479L270.633 510.248C271.139 504.614 270.388 498.937 268.433 493.629L262.215 473.781C258.667 462.454 250.528 452.409 247.63 440.899C245.796 433.614 244.441 425.796 239.522 420.118C232.509 412.023 220.377 410.764 209.758 412.156C204.961 412.784 200.122 413.87 195.973 416.357C191.175 419.234 187.64 423.766 184.22 428.194C181.402 431.843 178.533 434.776 175.649 438.374Z" fill="#4098D7"/><path d="M200.444 550.823C201.319 554.596 203.156 558.075 204.281 561.78C206.165 567.989 206.006 574.676 207.886 580.886C208.676 583.492 209.819 585.995 210.386 588.659C211.707 594.869 209.778 601.294 207.382 607.174C204.987 613.055 202.069 618.852 201.291 625.154C200.743 629.592 201.53 634.604 204.951 637.485C208.503 640.475 213.664 640.272 218.29 639.874C219.951 639.828 221.59 639.487 223.131 638.866C226.669 637.193 228.159 633.007 228.986 629.181C231.757 616.362 230.966 603.075 230.16 589.985L228.054 555.75C227.649 549.16 227.214 542.432 225.183 536.104C224.445 533.802 223.157 529.15 221.054 527.68C218.972 526.225 213.024 526.16 210.446 526.039C198.348 525.47 198.483 542.356 200.444 550.823Z" fill="#FBBEBE"/><path d="M213.848 424.423C211.377 423.13 208.265 423.687 205.876 425.128C203.57 426.707 201.551 428.668 199.904 430.926C194.566 437.443 188.914 444.921 189.706 453.308C190.002 456.453 191.207 459.429 192.023 462.48C195.602 475.86 191.644 490.01 192.098 503.853C192.361 511.852 194.101 519.72 195.835 527.533C196.188 529.127 196.755 530.973 198.297 531.51C199.456 531.913 200.708 531.395 201.855 530.959C206.127 529.38 210.717 528.853 215.236 529.423C219.755 529.992 224.071 531.641 227.818 534.231C230.683 532.702 229.609 527.868 228.967 524.685C227.058 515.228 229.649 505.471 232.795 496.35C235.941 487.229 239.706 478.12 240.227 468.485C240.818 457.569 237.198 446.915 233.627 436.582C232.848 434.327 231.996 431.962 230.189 430.404C228.641 429.254 226.868 428.443 224.986 428.027C221.193 426.906 217.352 426.258 213.848 424.423Z" fill="#2F2E41"/><path d="M708.84 838.955C861.182 838.955 984.68 828.096 984.68 814.7C984.68 801.304 861.182 790.445 708.84 790.445C556.498 790.445 433 801.304 433 814.7C433 828.096 556.498 838.955 708.84 838.955Z" fill="#3F3D56"/><path opacity="0.1" d="M708.84 830.394C838.594 830.394 943.78 823.155 943.78 814.224C943.78 805.294 838.594 798.054 708.84 798.054C579.086 798.054 473.9 805.294 473.9 814.224C473.9 823.155 579.086 830.394 708.84 830.394Z" fill="black"/><path d="M1108.6 471.72C1108.6 420.148 1044.02 371.274 944.999 340.966C967.849 240.044 957.694 159.751 912.945 134.045C902.631 128.015 890.571 125.159 877.4 125.159V160.545C884.7 160.545 890.571 161.973 895.49 164.67C917.071 177.048 926.433 224.176 919.134 284.793C917.388 299.709 914.532 315.418 911.041 331.445C879.939 323.828 845.981 317.957 810.278 314.149C788.856 284.793 766.641 258.134 744.266 234.808C795.997 186.727 844.553 160.386 877.559 160.386V125C833.922 125 776.796 156.102 719.036 210.053C661.276 156.419 604.15 125.635 560.513 125.635V161.021C593.36 161.021 642.075 187.203 693.806 234.967C671.59 258.293 649.375 284.793 628.27 314.149C592.408 317.957 558.45 323.828 527.348 331.604C523.699 315.736 521.001 300.343 519.097 285.586C511.639 224.97 520.842 177.841 542.264 165.305C547.025 162.449 553.213 161.179 560.513 161.179V125.793C547.183 125.793 535.124 128.65 524.651 134.68C480.061 160.386 470.064 240.52 493.073 341.125C394.373 371.592 330.107 420.307 330.107 471.72C330.107 523.292 394.69 572.166 493.708 602.474C470.857 703.395 481.013 783.688 525.761 809.395C536.076 815.425 548.136 818.281 561.465 818.281C605.102 818.281 662.228 787.179 719.988 733.228C777.748 786.862 834.874 817.646 878.511 817.646C891.841 817.646 903.9 814.79 914.373 808.76C958.963 783.054 968.96 702.919 945.951 602.315C1044.33 572.007 1108.6 523.133 1108.6 471.72V471.72ZM901.996 365.879C896.125 386.349 888.826 407.454 880.574 428.558C874.068 415.864 867.245 403.169 859.787 390.475C852.487 377.78 844.712 365.403 836.937 353.343C859.469 356.676 881.209 360.801 901.996 365.879ZM829.32 534.875C816.943 556.297 804.248 576.609 791.078 595.492C767.434 597.555 743.473 598.665 719.353 598.665C695.392 598.665 671.431 597.555 647.946 595.65C634.776 576.767 621.923 556.615 609.545 535.351C597.486 514.564 586.537 493.459 576.54 472.196C586.378 450.933 597.486 429.669 609.387 408.882C621.764 387.46 634.459 367.149 647.629 348.265C671.273 346.203 695.234 345.092 719.353 345.092C743.314 345.092 767.275 346.203 790.76 348.107C803.931 366.99 816.784 387.142 829.161 408.406C841.221 429.193 852.17 450.298 862.167 471.561C852.17 492.825 841.221 514.088 829.32 534.875ZM880.574 514.247C889.143 535.51 896.442 556.773 902.472 577.402C881.685 582.48 859.787 586.764 837.095 590.097C844.871 577.878 852.646 565.342 859.946 552.489C867.245 539.794 874.068 526.941 880.574 514.247ZM719.671 683.56C704.913 668.327 690.156 651.348 675.557 632.782C689.839 633.417 704.437 633.893 719.195 633.893C734.111 633.893 748.868 633.575 763.308 632.782C749.027 651.348 734.269 668.327 719.671 683.56ZM601.611 590.097C579.079 586.764 557.339 582.639 536.552 577.561C542.423 557.091 549.722 535.986 557.974 514.881C564.48 527.576 571.303 540.271 578.761 552.965C586.219 565.66 593.836 578.037 601.611 590.097ZM718.877 259.88C733.635 275.113 748.392 292.092 762.991 310.658C748.709 310.023 734.111 309.547 719.353 309.547C704.437 309.547 689.68 309.864 675.24 310.658C689.521 292.092 704.279 275.113 718.877 259.88ZM601.453 353.343C593.677 365.562 585.902 378.098 578.602 390.951C571.303 403.645 564.48 416.34 557.974 429.034C549.405 407.771 542.106 386.508 536.076 365.879C556.863 360.96 578.761 356.676 601.453 353.343ZM457.846 552.013C401.672 528.052 365.334 496.633 365.334 471.72C365.334 446.807 401.672 415.229 457.846 391.427C471.492 385.556 486.408 380.319 501.8 375.4C510.845 406.502 522.746 438.873 537.504 472.037C522.905 505.043 511.163 537.256 502.277 568.198C486.567 563.279 471.651 557.884 457.846 552.013ZM543.216 778.769C521.636 766.392 512.273 719.264 519.573 658.647C521.318 643.731 524.175 628.022 527.666 611.995C558.767 619.611 592.725 625.483 628.429 629.291C649.851 658.647 672.066 685.306 694.44 708.632C642.71 756.713 594.153 783.054 561.147 783.054C554.007 782.895 547.977 781.467 543.216 778.769V778.769ZM919.61 657.854C927.068 718.47 917.864 765.599 896.442 778.135C891.682 780.991 885.493 782.26 878.194 782.26C845.347 782.26 796.631 756.078 744.901 708.315C767.117 684.988 789.332 658.489 810.437 629.132C846.299 625.324 880.257 619.453 911.358 611.677C915.008 627.704 917.864 643.096 919.61 657.854V657.854ZM980.702 552.013C967.056 557.884 952.14 563.121 936.748 568.04C927.703 536.938 915.802 504.567 901.044 471.403C915.643 438.397 927.385 406.184 936.271 375.241C951.981 380.16 966.897 385.556 980.861 391.427C1037.03 415.388 1073.37 446.807 1073.37 471.72C1073.21 496.633 1036.88 528.211 980.702 552.013V552.013Z" fill="#61DAFB"/><path d="M719.195 544.238C759.245 544.238 791.712 511.77 791.712 471.72C791.712 431.67 759.245 399.202 719.195 399.202C679.144 399.202 646.677 431.67 646.677 471.72C646.677 511.77 679.144 544.238 719.195 544.238Z" fill="#61DAFB"/></svg>
