<svg width="972" height="502" viewBox="0 0 972 502" fill="none" xmlns="http://www.w3.org/2000/svg"><g opacity="0.7"><path opacity="0.7" d="M738.41 0H232.03C227.69 0.0158864 223.534 1.75446 220.476 4.83353C217.417 7.91259 215.707 12.0801 215.72 16.42V364.94C215.707 369.28 217.417 373.447 220.476 376.526C223.534 379.606 227.69 381.344 232.03 381.36H406.19V441.52H398.25C397.16 441.524 396.081 441.743 395.076 442.163C394.07 442.584 393.158 443.199 392.39 443.972C391.622 444.746 391.014 445.663 390.6 446.671C390.187 447.68 389.976 448.76 389.98 449.85V461.92H406.19V469.06H564.25V461.92H580.46V449.85C580.464 448.76 580.253 447.68 579.84 446.671C579.426 445.663 578.818 444.746 578.05 443.972C577.282 443.199 576.369 442.584 575.364 442.163C574.358 441.743 573.28 441.524 572.19 441.52H564.72V441H564.21V381.36H738.41C742.75 381.344 746.906 379.606 749.964 376.526C753.023 373.447 754.733 369.28 754.72 364.94V16.42C754.733 12.0801 753.023 7.91259 749.964 4.83353C746.906 1.75446 742.75 0.0158864 738.41 0Z" fill="url(#paint0_linear)" /></g><path d="M563.72 371H407.72V463H563.72V371Z" fill="#BDBDBD" /><g opacity="0.1"><path opacity="0.1" d="M410.79 380H560.96C562.77 372.13 564.22 367 564.22 367H407.22C407.22 367 408.83 372.11 410.79 380Z" fill="black" /></g><path d="M235.82 3H735.62C739.89 3 743.985 4.69625 747.004 7.71558C750.024 10.7349 751.72 14.83 751.72 19.1V327H219.72V19.1C219.72 14.83 221.416 10.7349 224.436 7.71558C227.455 4.69625 231.55 3 235.82 3V3Z" fill="#535461" /><path d="M735.62 377H235.82C231.55 377 227.455 375.304 224.436 372.284C221.416 369.265 219.72 365.17 219.72 360.9V327H751.72V360.9C751.72 365.17 750.024 369.265 747.004 372.284C743.985 375.304 739.89 377 735.62 377V377Z" fill="#BDBDBD" /><path d="M485.72 361C490.691 361 494.72 356.971 494.72 352C494.72 347.029 490.691 343 485.72 343C480.749 343 476.72 347.029 476.72 352C476.72 356.971 480.749 361 485.72 361Z" fill="#535461" /><path d="M399.89 436H571.55C573.717 436 575.795 436.861 577.327 438.393C578.859 439.925 579.72 442.003 579.72 444.17V456H391.72V444.17C391.72 443.097 391.931 442.035 392.342 441.043C392.752 440.052 393.354 439.152 394.113 438.393C394.872 437.634 395.772 437.032 396.763 436.622C397.755 436.211 398.817 436 399.89 436V436Z" fill="#BDBDBD" /><g opacity="0.5"><path opacity="0.5" d="M646.22 71.12H325.22C322.735 71.12 320.72 73.1347 320.72 75.62V254.38C320.72 256.865 322.735 258.88 325.22 258.88H646.22C648.705 258.88 650.72 256.865 650.72 254.38V75.62C650.72 73.1347 648.705 71.12 646.22 71.12Z" fill="url(#paint1_linear)" /></g><path d="M641.99 72.5H329.45C326.965 72.5 324.95 74.5147 324.95 77V251.96C324.95 254.445 326.965 256.46 329.45 256.46H641.99C644.475 256.46 646.49 254.445 646.49 251.96V77C646.49 74.5147 644.475 72.5 641.99 72.5Z" fill="white" /><g opacity="0.5"><path opacity="0.5" d="M445.46 98.91H419.02C416.535 98.91 414.52 100.925 414.52 103.41V126.31C414.52 128.795 416.535 130.81 419.02 130.81H445.46C447.945 130.81 449.96 128.795 449.96 126.31V103.41C449.96 100.925 447.945 98.91 445.46 98.91Z" fill="#4098D7" /></g><path d="M554.51 98.91H462.36C461.382 98.91 460.59 99.7025 460.59 100.68C460.59 101.658 461.382 102.45 462.36 102.45H554.51C555.488 102.45 556.28 101.658 556.28 100.68C556.28 99.7025 555.488 98.91 554.51 98.91Z" fill="#E0E0E0" /><path d="M538.36 109.55H462.36C461.382 109.55 460.59 110.342 460.59 111.32C460.59 112.298 461.382 113.09 462.36 113.09H538.36C539.338 113.09 540.13 112.298 540.13 111.32C540.13 110.342 539.338 109.55 538.36 109.55Z" fill="#E0E0E0" /><g opacity="0.5"><path opacity="0.5" d="M445.46 148.53H419.02C416.535 148.53 414.52 150.545 414.52 153.03V175.93C414.52 178.415 416.535 180.43 419.02 180.43H445.46C447.945 180.43 449.96 178.415 449.96 175.93V153.03C449.96 150.545 447.945 148.53 445.46 148.53Z" fill="#4098D7" /></g><path d="M554.51 148.53H462.36C461.382 148.53 460.59 149.322 460.59 150.3C460.59 151.278 461.382 152.07 462.36 152.07H554.51C555.488 152.07 556.28 151.278 556.28 150.3C556.28 149.322 555.488 148.53 554.51 148.53Z" fill="#E0E0E0" /><path d="M554.51 159.16H462.36C461.382 159.16 460.59 159.952 460.59 160.93C460.59 161.908 461.382 162.7 462.36 162.7H554.51C555.488 162.7 556.28 161.908 556.28 160.93C556.28 159.952 555.488 159.16 554.51 159.16Z" fill="#E0E0E0" /><g opacity="0.5"><path opacity="0.5" d="M445.46 198.15H419.02C416.535 198.15 414.52 200.165 414.52 202.65V225.55C414.52 228.035 416.535 230.05 419.02 230.05H445.46C447.945 230.05 449.96 228.035 449.96 225.55V202.65C449.96 200.165 447.945 198.15 445.46 198.15Z" fill="#4098D7" /></g><path d="M554.51 198.15H462.36C461.382 198.15 460.59 198.942 460.59 199.92C460.59 200.898 461.382 201.69 462.36 201.69H554.51C555.488 201.69 556.28 200.898 556.28 199.92C556.28 198.942 555.488 198.15 554.51 198.15Z" fill="#E0E0E0" /><path d="M555.33 208.78H462.18C461.302 208.78 460.59 209.492 460.59 210.37V210.73C460.59 211.608 461.302 212.32 462.18 212.32H555.33C556.208 212.32 556.92 211.608 556.92 210.73V210.37C556.92 209.492 556.208 208.78 555.33 208.78Z" fill="#E0E0E0" /><path d="M485.72 42V20" stroke="#4098D7" stroke-width="2" stroke-miterlimit="10" /><path d="M485.72 79V50.13" stroke="#4098D7" stroke-width="2" stroke-miterlimit="10" /><path d="M485.72 83C487.929 83 489.72 81.2091 489.72 79C489.72 76.7909 487.929 75 485.72 75C483.511 75 481.72 76.7909 481.72 79C481.72 81.2091 483.511 83 485.72 83Z" fill="#4098D7" /><path d="M485.72 50C487.929 50 489.72 48.2091 489.72 46C489.72 43.7909 487.929 42 485.72 42C483.511 42 481.72 43.7909 481.72 46C481.72 48.2091 483.511 50 485.72 50Z" stroke="white" stroke-miterlimit="10" /><path d="M485.72 42V20" stroke="#4098D7" stroke-width="2" stroke-miterlimit="10" /><path d="M485.72 79V50.13" stroke="#4098D7" stroke-width="2" stroke-miterlimit="10" /><path d="M485.72 83C487.929 83 489.72 81.2091 489.72 79C489.72 76.7909 487.929 75 485.72 75C483.511 75 481.72 76.7909 481.72 79C481.72 81.2091 483.511 83 485.72 83Z" fill="#4098D7" /><path d="M485.72 50C487.929 50 489.72 48.2091 489.72 46C489.72 43.7909 487.929 42 485.72 42C483.511 42 481.72 43.7909 481.72 46C481.72 48.2091 483.511 50 485.72 50Z" stroke="white" stroke-miterlimit="10" /><path d="M485.72 279V310" stroke="#4098D7" stroke-width="2" stroke-miterlimit="10" /><path d="M485.72 251V279.87" stroke="#4098D7" stroke-width="2" stroke-miterlimit="10" /><path d="M485.72 255C487.929 255 489.72 253.209 489.72 251C489.72 248.791 487.929 247 485.72 247C483.511 247 481.72 248.791 481.72 251C481.72 253.209 483.511 255 485.72 255Z" fill="#4098D7" /><path d="M305.72 168.5H274.22" stroke="#4098D7" stroke-width="2" stroke-miterlimit="10" /><path d="M333.22 168.5H304.35" stroke="#4098D7" stroke-width="2" stroke-miterlimit="10" /><path d="M333.22 172.5C335.429 172.5 337.22 170.709 337.22 168.5C337.22 166.291 335.429 164.5 333.22 164.5C331.011 164.5 329.22 166.291 329.22 168.5C329.22 170.709 331.011 172.5 333.22 172.5Z" fill="#4098D7" /><g opacity="0.1"><path opacity="0.1" d="M564.22 435.5H408.22V438.5H564.22V435.5Z" fill="black" /></g><path d="M690.22 168.5H696.22" stroke="#4098D7" stroke-width="2" stroke-miterlimit="10" /><path d="M637.22 168.5H682.1" stroke="#4098D7" stroke-width="2" stroke-miterlimit="10" /><path d="M637.22 172.5C639.429 172.5 641.22 170.709 641.22 168.5C641.22 166.291 639.429 164.5 637.22 164.5C635.011 164.5 633.22 166.291 633.22 168.5C633.22 170.709 635.011 172.5 637.22 172.5Z" fill="#4098D7" /><path d="M686.22 172.5C688.429 172.5 690.22 170.709 690.22 168.5C690.22 166.291 688.429 164.5 686.22 164.5C684.011 164.5 682.22 166.291 682.22 168.5C682.22 170.709 684.011 172.5 686.22 172.5Z" stroke="white" stroke-miterlimit="10" /><path opacity="0.7" d="M519.233 341.293C517.513 340.076 517.799 336.142 523.455 323.89C525.675 319.079 530.741 310.981 539.548 303.241C540.568 306.424 541.191 309.476 541.173 312.318C541.059 331.274 527.458 338.354 519.233 341.293ZM446.835 357.704C444.53 358.903 442.416 359.657 441.434 359.075C440.714 358.648 442.385 357.068 442.385 357.068C442.385 357.068 454.141 344.494 458.77 338.767C461.464 335.437 464.586 331.485 467.989 327.064C468.017 327.506 468.032 327.944 468.032 328.377C467.997 343.443 453.362 353.615 446.835 357.704ZM352.858 313.114C347.42 326.298 336.038 360.026 329.111 358.218C323.164 356.667 319.543 331.027 327.924 305.794C332.142 293.093 341.153 277.915 346.446 272.025C354.969 262.545 364.352 259.445 366.631 263.288C369.537 268.185 356.268 304.85 352.858 313.114ZM239.109 390.011C223.496 406.949 201.682 413.35 192.328 407.959C182.227 402.135 186.227 377.198 205.388 359.223C217.067 348.269 232.143 338.18 242.145 331.965C244.421 330.603 247.765 328.603 251.829 326.181C252.503 325.8 252.883 325.588 252.883 325.588L252.868 325.563C253.652 325.096 254.456 324.617 255.286 324.124C262.258 349.708 255.498 372.233 239.109 390.011ZM602.45 268.201C583.507 268.3 567.1 272.823 553.346 279.563C548.316 269.58 543.225 260.798 542.37 254.267C541.372 246.644 540.215 242.096 541.42 233.014C542.626 223.933 547.91 211.073 547.833 210.109C547.756 209.146 546.648 204.519 535.722 204.441C524.795 204.363 515.449 206.531 514.35 209.4C513.249 212.269 511.146 218.726 509.837 225.458C507.923 235.31 488.022 270.446 476.722 288.828C473.027 281.654 469.884 275.329 469.229 270.326C468.232 262.703 467.074 258.155 468.279 249.072C469.485 239.991 474.769 227.129 474.692 226.166C474.615 225.203 473.507 220.577 462.581 220.499C451.654 220.421 442.308 222.589 441.208 225.458C440.108 228.327 438.934 235.03 436.695 241.516C434.457 248.002 408.003 306.614 401.075 321.806C397.544 329.547 394.472 335.765 392.303 340.013C392.297 340.002 392.289 339.989 392.289 339.989C392.289 339.989 392.156 340.271 391.925 340.749C390.069 344.364 388.964 346.364 388.964 346.364C388.964 346.364 388.975 346.391 388.996 346.439C387.524 349.093 385.946 351.559 385.164 351.559C384.618 351.559 383.524 344.492 385.402 334.793C389.339 314.461 398.795 282.752 398.701 281.66C398.651 281.1 400.458 275.576 392.526 272.687C384.815 269.881 382.069 274.561 381.365 274.576C380.684 274.591 380.177 276.23 380.177 276.23C380.177 276.23 388.768 240.572 363.792 240.572C348.177 240.572 326.54 257.558 315.882 272.954C309.155 276.603 294.762 284.416 279.49 292.76C273.625 295.964 267.639 299.239 261.964 302.349C261.578 301.923 261.193 301.497 260.796 301.076C230.511 268.946 174.526 246.22 176.902 203.024C177.766 187.32 183.255 145.971 284.477 95.814C367.394 54.7267 433.773 66.0331 445.245 91.0911C461.633 126.891 409.769 193.426 323.659 203.024C290.85 206.681 273.575 194.038 269.278 189.327C264.755 184.37 264.08 184.147 262.391 185.077C259.641 186.593 261.384 190.97 262.391 193.578C264.963 200.232 275.513 212.032 293.5 217.901C309.324 223.065 347.843 225.901 394.425 207.983C446.6 187.915 487.34 132.088 475.374 85.4236C463.204 37.9634 384.07 22.361 309.174 48.8211C264.6 64.568 216.346 89.2836 181.652 121.554C140.399 159.924 133.821 193.32 136.531 207.275C146.163 256.856 214.886 289.144 242.406 313.073C241.048 313.818 239.774 314.518 238.615 315.153C224.818 321.941 172.432 349.203 159.329 378.007C144.465 410.681 161.695 434.123 173.102 437.28C208.444 447.059 244.712 429.469 264.202 400.56C283.689 371.658 281.309 334.024 272.365 316.846C272.254 316.632 272.132 316.424 272.018 316.212C275.58 314.115 279.213 311.983 282.814 309.881C289.836 305.781 296.729 301.955 302.711 298.718C299.365 307.838 296.913 318.769 295.637 334.557C294.139 353.104 301.783 377.078 311.785 386.51C316.189 390.662 321.488 390.759 324.846 390.759C336.485 390.759 341.797 381.131 347.644 369.742C354.816 355.775 361.179 339.516 361.179 339.516C361.179 339.516 353.192 383.439 374.954 383.439C382.882 383.439 390.858 373.215 394.411 368.002C394.42 368.059 394.425 368.089 394.425 368.089C394.425 368.089 394.632 367.75 395.036 367.069C395.859 365.817 396.325 365.021 396.325 365.021C396.325 365.021 396.341 364.938 396.367 364.794C399.554 359.291 406.623 346.745 417.224 326.056C430.92 299.325 444.057 265.839 444.057 265.839C444.057 265.839 445.279 274.026 449.281 287.564C451.636 295.53 456.639 304.335 460.586 312.779C457.409 317.163 455.456 319.681 455.456 319.681C455.456 319.681 455.474 319.727 455.509 319.811C452.97 323.163 450.123 326.78 447.145 330.306C436.335 343.109 423.459 357.729 421.735 361.95C419.704 366.922 420.184 370.579 424.109 373.521C426.977 375.67 432.081 376.003 437.408 375.646C447.122 374.997 453.958 372.601 457.33 371.141C462.587 369.293 468.708 366.385 474.454 362.186C485.058 354.433 491.454 343.343 490.84 328.653C490.499 320.557 487.903 312.533 484.619 304.958C485.582 303.582 486.547 302.194 487.514 300.788C504.231 276.486 517.198 249.781 517.198 249.781C517.198 249.781 518.42 257.967 522.424 271.506C524.449 278.359 528.445 285.834 532.039 293.166C516.321 305.867 506.572 320.624 503.187 330.306C496.929 348.211 501.831 356.324 511.025 358.171C515.19 359.009 521.071 357.111 525.496 355.248C531.001 353.433 537.617 350.409 543.796 345.893C554.4 338.14 564.595 327.284 563.981 312.595C563.7 305.907 561.876 299.27 559.402 292.893C572.726 287.374 589.977 284.305 611.95 286.856C659.088 292.33 668.336 321.598 666.569 333.848C664.801 346.099 654.913 352.832 651.607 354.866C648.302 356.899 647.293 357.605 647.571 359.117C647.973 361.315 649.501 361.23 652.319 360.758C656.2 360.107 677.073 350.794 677.966 328.182C679.101 299.474 651.443 267.941 602.45 268.201Z" fill="#808080" fill-opacity="0.25" /><path d="M518.405 344.293C516.698 343.076 516.982 339.143 522.596 326.891C524.8 322.08 529.828 313.982 538.571 306.242C539.583 309.425 540.201 312.477 540.183 315.319C540.07 334.275 526.57 341.355 518.405 344.293ZM446.542 360.704C444.253 361.904 442.156 362.657 441.18 362.076C440.465 361.648 442.124 360.069 442.124 360.069C442.124 360.069 453.793 347.494 458.389 341.768C461.062 338.438 464.162 334.486 467.54 330.065C467.567 330.507 467.582 330.945 467.582 331.378C467.547 346.443 453.02 356.615 446.542 360.704V360.704ZM353.258 316.115C347.86 329.298 336.562 363.026 329.686 361.219C323.783 359.667 320.188 334.028 328.507 308.795C332.694 296.094 341.639 280.917 346.894 275.026C355.353 265.547 364.667 262.447 366.93 266.29C369.814 271.187 356.642 307.851 353.258 316.115ZM240.348 393.011C224.85 409.949 203.197 416.35 193.912 410.959C183.886 405.135 187.857 380.198 206.876 362.223C218.469 351.27 233.434 341.18 243.362 334.966C245.621 333.604 248.94 331.604 252.974 329.182C253.643 328.801 254.02 328.589 254.02 328.589L254.005 328.563C254.784 328.097 255.582 327.618 256.406 327.125C263.326 352.709 256.616 375.233 240.348 393.011V393.011ZM601.009 271.203C582.205 271.302 565.919 275.824 552.267 282.565C547.274 272.582 542.22 263.8 541.372 257.269C540.381 249.646 539.233 245.098 540.429 236.016C541.626 226.935 546.871 214.075 546.794 213.112C546.718 212.148 545.618 207.522 534.773 207.443C523.927 207.365 514.649 209.533 513.558 212.402C512.466 215.271 510.378 221.728 509.078 228.46C507.179 238.312 487.425 273.448 476.208 291.83C472.54 284.656 469.42 278.33 468.77 273.328C467.78 265.704 466.631 261.157 467.827 252.074C469.025 242.993 474.269 230.132 474.193 229.168C474.116 228.205 473.017 223.58 462.171 223.501C451.325 223.423 442.048 225.591 440.956 228.46C439.864 231.329 438.698 238.032 436.477 244.518C434.255 251.004 407.996 309.615 401.119 324.807C397.614 332.547 394.565 338.766 392.412 343.013C392.406 343.003 392.398 342.99 392.398 342.99C392.398 342.99 392.266 343.272 392.037 343.749C390.194 347.364 389.097 349.364 389.097 349.364C389.097 349.364 389.109 349.392 389.13 349.439C387.668 352.094 386.102 354.56 385.326 354.56C384.783 354.56 383.698 347.493 385.562 337.794C389.469 317.462 398.856 285.754 398.763 284.662C398.713 284.102 400.507 278.577 392.633 275.688C384.979 272.882 382.253 277.563 381.555 277.577C380.878 277.592 380.376 279.231 380.376 279.231C380.376 279.231 388.903 243.574 364.111 243.574C348.611 243.574 327.134 260.559 316.554 275.956C309.878 279.604 295.59 287.418 280.431 295.761C274.609 298.965 268.668 302.241 263.034 305.35C262.651 304.925 262.269 304.499 261.875 304.078C231.814 271.947 176.242 249.222 178.6 206.026C179.457 190.323 184.906 148.974 285.382 98.8178C367.687 57.731 433.576 69.0373 444.964 94.0949C461.23 129.894 409.749 196.428 324.274 206.026C291.708 209.684 274.56 197.04 270.295 192.33C265.805 187.373 265.135 187.15 263.459 188.08C260.728 189.596 262.459 193.972 263.459 196.581C266.011 203.235 276.483 215.034 294.338 220.903C310.045 226.067 348.28 228.904 394.519 210.985C446.308 190.917 486.748 135.091 474.87 88.4276C462.79 40.9679 384.239 25.3658 309.896 51.8255C265.651 67.5723 217.753 92.2875 183.315 124.557C142.367 162.927 135.837 196.323 138.528 210.277C148.088 259.858 216.304 292.145 243.621 316.075C242.272 316.819 241.008 317.519 239.858 318.155C226.163 324.942 174.164 352.203 161.157 381.008C146.403 413.681 163.506 437.123 174.829 440.279C209.91 450.058 245.909 432.469 265.256 403.56C284.599 374.658 282.237 337.025 273.359 319.847C273.249 319.633 273.127 319.425 273.014 319.213C276.55 317.116 280.156 314.984 283.731 312.882C290.701 308.782 297.543 304.956 303.481 301.719C300.159 310.839 297.725 321.77 296.459 337.558C294.972 356.105 302.56 380.078 312.488 389.51C316.86 393.662 322.119 393.759 325.453 393.759C337.006 393.759 342.278 384.131 348.082 372.743C355.202 358.776 361.518 342.517 361.518 342.517C361.518 342.517 353.59 386.439 375.191 386.439C383.061 386.439 390.978 376.215 394.504 371.002C394.514 371.059 394.519 371.09 394.519 371.09C394.519 371.09 394.724 370.75 395.125 370.069C395.942 368.818 396.404 368.021 396.404 368.021C396.404 368.021 396.42 367.938 396.446 367.795C399.609 362.291 406.626 349.745 417.149 329.056C430.744 302.326 443.784 268.84 443.784 268.84C443.784 268.84 444.997 277.027 448.97 290.565C451.307 298.531 456.273 307.336 460.191 315.78C457.037 320.164 455.099 322.682 455.099 322.682C455.099 322.682 455.117 322.728 455.152 322.812C452.631 326.164 449.806 329.781 446.849 333.307C436.119 346.11 423.338 360.73 421.626 364.95C419.611 369.922 420.087 373.579 423.984 376.521C426.83 378.67 431.897 379.003 437.184 378.646C446.827 377.997 453.612 375.601 456.959 374.142C462.177 372.293 468.254 369.385 473.957 365.186C484.483 357.434 490.832 346.344 490.222 331.654C489.884 323.558 487.307 315.534 484.047 307.959C485.002 306.584 485.96 305.195 486.921 303.789C503.514 279.487 516.386 252.783 516.386 252.783C516.386 252.783 517.599 260.969 521.572 274.508C523.583 281.361 527.55 288.836 531.117 296.168C515.514 308.868 505.838 323.625 502.478 333.307C496.266 351.212 501.132 359.325 510.258 361.172C514.392 362.009 520.23 360.111 524.622 358.249C530.087 356.433 536.653 353.41 542.787 348.893C553.313 341.141 563.433 330.285 562.823 315.596C562.544 308.909 560.734 302.271 558.278 295.894C571.504 290.375 588.628 287.307 610.439 289.858C657.229 295.331 666.408 324.599 664.654 336.849C662.899 349.1 653.084 355.833 649.803 357.867C646.522 359.899 645.52 360.605 645.796 362.117C646.195 364.316 647.713 364.231 650.51 363.759C654.362 363.107 675.081 353.794 675.968 331.183C677.094 302.476 649.64 270.943 601.009 271.203" fill="#CD4A9C" /><g opacity="0.7"><path opacity="0.7" d="M179.2 367.06H106.8L107.8 358.92C128.26 340.55 141.49 291.61 141.49 291.61C141.196 291.651 140.906 291.711 140.62 291.79C128.62 294.21 120.08 299.14 114.11 305.07L116.65 283.41C154.45 275.27 169.44 225.27 169.44 225.27C145.32 230.62 130.28 238.9 120.94 246.76L124.66 214.94C150.22 223.71 176.66 177.12 176.66 177.12L175.66 176.91L176.16 176.59L175.4 176.86C147.15 170.77 132.05 186.92 127.15 193.63L127.52 190.51C126.773 192.51 126.047 194.47 125.34 196.39V196.47C123.34 201.89 121.51 207.243 119.85 212.53C118.403 217.043 117.05 221.51 115.79 225.93V225.87C115.79 225.87 114.62 197.41 84.61 189.92C84.61 189.92 87.76 251.99 111.54 241.83C109.34 250.83 107.54 259.49 105.98 267.9C104.987 273.373 104.12 278.707 103.38 283.9L103.24 284.06L103.38 283.94L103.32 284.35C102.653 289.063 102.087 293.657 101.62 298.13C102.08 289.51 100.51 264.61 71.17 241.21C71.17 241.21 32.17 309.75 98.67 323.21C98.82 323.34 98.97 323.47 99.11 323.59L99.01 323.28L99.61 323.41L99.88 319.89C99.0783 334.581 99.1551 349.308 100.11 363.99V363.99C100.18 364.99 100.25 365.99 100.32 366.94H27.09C-0.850019 424.73 42.61 456.4 42.61 456.4H162.61C209.21 397.66 179.2 367.06 179.2 367.06Z" fill="url(#paint2_linear)" /></g><path opacity="0.6" d="M102.72 389C102.72 389 83.72 306 125.72 199" stroke="#535461" stroke-width="3" stroke-miterlimit="10" /><path d="M28.72 364H175.72C175.72 364 204.72 401 159.72 456H43.72C43.72 456 1.71998 418 28.72 364Z" fill="#4098D7" /><path d="M123.61 204.5C123.61 204.5 138.22 178.5 173.22 186.5C173.22 186.5 144.29 235.76 118.22 219.63L123.61 204.5Z" fill="#4DB6AC" /><path d="M114.35 232.09C114.35 232.09 113.22 205.5 84.22 198.5C84.22 198.5 87.22 256.5 110.22 247L114.35 232.09Z" fill="#4DB6AC" /><path d="M104.87 271.36C104.87 271.36 110.22 243.5 166.22 231.5C166.22 231.5 148.36 289.12 102.29 286.81L104.87 271.36Z" fill="#4DB6AC" /><path d="M100.33 302.63C100.33 302.63 106.22 273.5 71.22 246.5C71.22 246.5 33.22 311.17 98.7 323.33L100.33 302.63Z" fill="#4DB6AC" /><path d="M99.28 342.67C99.28 342.67 95.22 301.5 139.22 293.5C139.22 293.5 123.15 350.99 99.22 361.24L99.28 342.67Z" fill="#4DB6AC" /><path opacity="0.3" d="M118.72 220C118.72 220 156.72 191 172.72 186" stroke="#535461" stroke-miterlimit="10" /><path opacity="0.3" d="M102.22 286.5C102.22 286.5 148.22 237.5 166.22 231.5" stroke="#535461" stroke-miterlimit="10" /><path opacity="0.3" d="M84.22 198.5C84.22 198.5 112.22 236.5 110.22 246.5" stroke="#535461" stroke-miterlimit="10" /><path opacity="0.3" d="M71.22 246.5C71.22 246.5 86.22 314.5 98.22 323.5" stroke="#535461" stroke-miterlimit="10" /><path opacity="0.3" d="M99.22 361.5C99.22 361.5 123.22 295.5 139.22 293.5" stroke="#535461" stroke-miterlimit="10" /><g opacity="0.1"><path opacity="0.1" d="M175.72 364H28.72C28.39 364.67 28.07 365.34 27.72 366H170.72C170.72 366 199.01 402.11 156.32 456H159.72C204.72 401 175.72 364 175.72 364Z" fill="black" /></g><path d="M971.44 455.6H0V488.53H971.44V455.6Z" fill="#E0E0E0" /><path d="M930.27 488.53H41.16V502H930.27V488.53Z" fill="#E0E0E0" /><path opacity="0.1" d="M930.27 488.53H41.16V493.02H930.27V488.53Z" fill="black" /><g opacity="0.7"><path opacity="0.7" d="M912.72 444.88L912.82 444.73C913.027 444.41 913.23 444.077 913.43 443.73L913.54 443.54C913.733 443.213 913.917 442.88 914.09 442.54L914.18 442.37C914.38 441.98 914.57 441.59 914.74 441.18C915.1 440.362 915.414 439.524 915.68 438.67L915.78 438.34C915.87 438.03 915.96 437.72 916.04 437.41L916.14 436.97C916.207 436.69 916.267 436.407 916.32 436.12C916.32 435.96 916.38 435.8 916.41 435.64C916.44 435.48 916.5 435.08 916.54 434.79C916.58 434.5 916.54 434.46 916.6 434.3C916.66 434.14 916.66 433.69 916.68 433.38C916.68 433.24 916.68 433.09 916.68 432.95C916.68 432.5 916.68 432.04 916.68 431.59V349H902.83V308.52H885.83V349H874.11V290.86H857.11V349H850.72V282.55H833.72V349H818.72V431.6C818.72 445.08 829.93 456 843.72 456H891.72C895.644 456.016 899.518 455.114 903.032 453.367C906.546 451.621 909.603 449.077 911.96 445.94V445.94C912.207 445.587 912.46 445.233 912.72 444.88Z" fill="url(#paint3_linear)" /></g><path d="M851.72 321H835.72V421H851.72V321Z" fill="#535461" /><path d="M851.72 288H835.72V321H851.72V288Z" fill="#3AD29F" /><path d="M873.72 329H857.72V429H873.72V329Z" fill="#535461" /><path d="M873.72 296H857.72V329H873.72V296Z" fill="#4D8AF0" /><path d="M900.72 346H884.72V446H900.72V346Z" fill="#535461" /><path d="M900.72 313H884.72V346H900.72V313Z" fill="#F55F44" /><path d="M821.72 352H913.72V431.5C913.72 437.733 911.244 443.71 906.837 448.117C902.43 452.524 896.453 455 890.22 455H845.22C838.987 455 833.01 452.524 828.603 448.117C824.196 443.71 821.72 437.733 821.72 431.5V352Z" fill="#4098D7" /><g opacity="0.1"><path opacity="0.1" d="M821.72 352V356H909.72V435.5C909.728 440.755 907.967 445.859 904.72 449.99C907.526 447.794 909.795 444.988 911.355 441.784C912.914 438.58 913.723 435.063 913.72 431.5V352H821.72Z" fill="black" /></g><defs><linearGradient id="paint0_linear" x1="485.22" y1="469.05" x2="485.22" y2="0" gradientUnits="userSpaceOnUse"><stop stop-color="#808080" stop-opacity="0.25" /><stop offset="0.54" stop-color="#808080" stop-opacity="0.12" /><stop offset="1" stop-color="#808080" stop-opacity="0.1" /></linearGradient><linearGradient id="paint1_linear" x1="160608" y1="48678.4" x2="160608" y2="13424.6" gradientUnits="userSpaceOnUse"><stop stop-color="#808080" stop-opacity="0.25" /><stop offset="0.54" stop-color="#808080" stop-opacity="0.12" /><stop offset="1" stop-color="#808080" stop-opacity="0.1" /></linearGradient><linearGradient id="paint2_linear" x1="22588.2" y1="144832" x2="51827.1" y2="144832" gradientUnits="userSpaceOnUse"><stop stop-color="#808080" stop-opacity="0.25" /><stop offset="0.54" stop-color="#808080" stop-opacity="0.12" /><stop offset="1" stop-color="#808080" stop-opacity="0.1" /></linearGradient><linearGradient id="paint3_linear" x1="92215.4" y1="98850.8" x2="101815" y2="98850.8" gradientUnits="userSpaceOnUse"><stop stop-color="#808080" stop-opacity="0.25" /><stop offset="0.54" stop-color="#808080" stop-opacity="0.12" /><stop offset="1" stop-color="#808080" stop-opacity="0.1" /></linearGradient></defs></svg>